<?xml version="1.0" encoding="utf-8"?>
<!-- Generator: Adobe Illustrator 21.0.0, SVG Export Plug-In . SVG Version: 6.00 Build 0)  -->
<svg version="1.1" id="圖層_1" xmlns="http://www.w3.org/2000/svg" xmlns:xlink="http://www.w3.org/1999/xlink" x="0px" y="0px"
	 viewBox="0 0 28.3 28.3" style="enable-background:new 0 0 28.3 28.3;" xml:space="preserve">
<style type="text/css">
	.st0{fill:#51B071;}
</style>
<path class="st0" d="M7.6,6.8h6.2v1.6H7.6V6.8z M7.6,20h3.5v-1.6H7.6V20z M7.6,12.2h7v-0.8v-0.8h-7V12.2z M7.6,16.1h10.7v-1.6H7.6
	V16.1z M14.6,24.7v0.8v0.8H4.5c-1.3,0-2.3-1-2.3-2.3V6.8c0-1.3,1-2.3,2.3-2.3V3.7c0-0.9,0.7-1.6,1.6-1.6h10.3c0.4,0,0.8,0.2,1.1,0.5
	l5.3,5.3C23,8.2,23.2,8.6,23.2,9v2.5h-1.6V9.9h-3.9c-1.3,0-2.3-1-2.3-2.3V3.7H6.1v18.7h6.6v1.6H6.1c-0.9,0-1.6-0.7-1.6-1.6V6
	C4.1,6,3.7,6.3,3.7,6.8v17.1c0,0.4,0.3,0.8,0.8,0.8H14.6z M17,4.3v3.2c0,0.4,0.3,0.8,0.8,0.8H21L17,4.3z"/>
<g>
	<g>
		<path class="st0" d="M17.8,22l-2.2-3.3c-0.4-0.5-1.1-0.7-1.6-0.3c-0.5,0.4-0.7,1.1-0.3,1.6l3.1,4.7c0.2,0.3,0.6,0.5,1,0.5
			c0,0,0,0,0,0c0.4,0,0.7-0.2,1-0.5l7.8-10.9c0.4-0.5,0.3-1.3-0.3-1.6c-0.5-0.4-1.3-0.3-1.6,0.3L17.8,22z"/>
	</g>
</g>
</svg>
