<?xml version="1.0" encoding="utf-8"?>
<!-- Generator: Adobe Illustrator 21.0.0, SVG Export Plug-In . SVG Version: 6.00 Build 0)  -->
<svg version="1.1" id="layer_1" xmlns="http://www.w3.org/2000/svg" xmlns:xlink="http://www.w3.org/1999/xlink" x="0px" y="0px"
	 viewBox="0 0 25.5 25.5" style="enable-background:new 0 0 25.5 25.5;" xml:space="preserve">
<style type="text/css">
	.st0{fill:#C9B37D;}
</style>
<g>
	<path class="st0" d="M8.1,9.9c0,0.3,0.1,0.9,0.9,1.3c0.8,0.5,2.3,0.7,3.8,0.7c1.5,0,3-0.2,3.8-0.7c0.8-0.4,0.9-1,0.9-1.4
		c-0.2-2.7-0.9-3.3-2.1-4.3l-0.2-0.2c0.5-0.5,0.8-1.3,0.8-2c0-1.7-1.4-3.1-3.1-3.1c-1.7,0-3.1,1.4-3.1,3.1c0,0.8,0.3,1.5,0.8,2
		l-0.2,0.2C9,6.5,8.3,7.2,8.1,9.9z M11.2,6.8l0.5-0.4l0.7,1l-1.1,2.9c-0.9-0.1-1.4-0.3-1.6-0.5C9.8,7.9,10.3,7.5,11.2,6.8z
		 M15.9,9.9c-0.2,0.1-0.7,0.3-1.6,0.5l-1.1-2.9l0.7-1l0.5,0.4C15.3,7.5,15.7,7.9,15.9,9.9z M12.8,1.8c0.9,0,1.6,0.7,1.6,1.6
		S13.6,5,12.8,5c-0.9,0-1.6-0.7-1.6-1.6S11.9,1.8,12.8,1.8z"/>
	<path class="st0" d="M7.5,18.8l-0.2-0.2c0.5-0.5,0.8-1.3,0.8-2c0-1.7-1.4-3.1-3.1-3.1c-1.7,0-3.1,1.4-3.1,3.1c0,0.8,0.3,1.5,0.8,2
		l-0.2,0.2c-1.2,0.9-1.9,1.6-2.1,4.3c0,0.3,0.1,0.9,0.9,1.3C2,25,3.5,25.2,5,25.2c1.5,0,3-0.2,3.8-0.7c0.8-0.4,0.9-1,0.9-1.4
		C9.4,20.4,8.7,19.8,7.5,18.8z M5,15.1c0.9,0,1.6,0.7,1.6,1.6c0,0.9-0.7,1.6-1.6,1.6s-1.6-0.7-1.6-1.6C3.4,15.8,4.1,15.1,5,15.1z
		 M3.4,20.1l0.5-0.4l0.7,1l-1.1,2.9c-0.9-0.1-1.4-0.3-1.6-0.5C2,21.1,2.5,20.8,3.4,20.1z M6.5,23.6l-1.1-2.9l0.7-1l0.5,0.4
		c0.9,0.7,1.4,1,1.5,3C7.9,23.2,7.4,23.4,6.5,23.6z"/>
	<path class="st0" d="M23.1,18.8l-0.2-0.2c0.5-0.5,0.8-1.3,0.8-2c0-1.7-1.4-3.1-3.1-3.1c-1.7,0-3.1,1.4-3.1,3.1c0,0.8,0.3,1.5,0.8,2
		L18,18.8c-1.2,0.9-1.9,1.6-2.1,4.3c0,0.3,0.1,0.9,0.9,1.3c0.8,0.5,2.3,0.7,3.8,0.7c1.5,0,3-0.2,3.8-0.7c0.8-0.4,0.9-1,0.9-1.4
		C25,20.4,24.3,19.8,23.1,18.8z M20.5,15.1c0.9,0,1.6,0.7,1.6,1.6c0,0.9-0.7,1.6-1.6,1.6c-0.9,0-1.6-0.7-1.6-1.6
		C19,15.8,19.7,15.1,20.5,15.1z M19,20.1l0.5-0.4l0.7,1L19,23.6c-0.9-0.1-1.4-0.3-1.6-0.5C17.6,21.1,18.1,20.8,19,20.1z M22.1,23.6
		L21,20.7l0.7-1l0.5,0.4c0.9,0.7,1.4,1,1.5,3C23.5,23.2,22.9,23.4,22.1,23.6z"/>
	<path class="st0" d="M19.8,10.4c0,0.5,0,0.9-0.1,1.4c-0.1,0.4,0.2,0.8,0.6,0.9c0.1,0,0.1,0,0.2,0c0.4,0,0.7-0.3,0.8-0.6
		c0.1-0.6,0.2-1.1,0.2-1.7c0-2.7-1.3-5.2-3.4-6.9c-0.3-0.3-0.8-0.2-1.1,0.2c-0.3,0.3-0.2,0.8,0.2,1.1C18.7,6.1,19.8,8.2,19.8,10.4z"
		/>
	<path class="st0" d="M16.6,17.2c-0.2-0.4-0.6-0.6-1-0.4c-0.2,0.1-0.5,0.2-0.7,0.3c-1.6,0.5-3.4,0.4-4.9-0.3c-0.4-0.2-0.9,0-1,0.4
		c-0.2,0.4,0,0.9,0.4,1c1.1,0.5,2.2,0.7,3.4,0.7c0.9,0,1.7-0.1,2.6-0.4c0.3-0.1,0.6-0.2,0.9-0.3C16.6,18.1,16.8,17.6,16.6,17.2z"/>
	<path class="st0" d="M5.1,12.8c0.1,0,0.1,0,0.2,0c0.4-0.1,0.7-0.5,0.6-0.9c-0.1-0.5-0.1-0.9-0.1-1.4c0-2.2,1-4.3,2.8-5.6
		C8.9,4.5,9,4.1,8.7,3.7C8.4,3.4,8,3.3,7.6,3.6c-2.2,1.6-3.4,4.1-3.4,6.9c0,0.6,0.1,1.2,0.2,1.7C4.4,12.5,4.8,12.8,5.1,12.8z"/>
</g>
</svg>
