<?xml version="1.0" encoding="utf-8"?>
<!-- Generator: Adobe Illustrator 21.0.0, SVG Export Plug-In . SVG Version: 6.00 Build 0)  -->
<svg version="1.1" id="layer_1" xmlns="http://www.w3.org/2000/svg" xmlns:xlink="http://www.w3.org/1999/xlink" x="0px" y="0px"
	 viewBox="0 0 25.5 25.5" style="enable-background:new 0 0 25.5 25.5;" xml:space="preserve">
<style type="text/css">
	.st0{fill:#C9B37D;}
</style>
<path class="st0" d="M12.7,22.2h4.7V23h-4.7v2.3h-0.8V23v-0.8H12.7z M18.9,18.3v0.8v2.3h0.8v-2.3h4.7v-0.8h-4.7H18.9z M25.1,16.8
	c0,0.4-0.3,0.8-0.8,0.8h-6.2v3.1c0,0.4-0.3,0.8-0.8,0.8h-6.2v3.1c0,0.4-0.3,0.8-0.8,0.8h-7c-0.4,0-0.8-0.3-0.8-0.8
	c0-0.4,0.3-0.8,0.8-0.8h2.3h3.9v-3.1c0-0.4,0.3-0.8,0.8-0.8h0.8c0,0,0-0.6,0-0.8l-0.6-1.7l-1.9-0.5L8,21.5c0,1.5-1.2,2.3-2.3,2.3
	c-1.2,0-2.3-0.8-2.3-2.3v-5.6c-0.9-0.4-1.6-1.2-1.6-2.2c0-2.6,1.6-5.6,3.7-7.3C5.1,5.8,4.9,5.1,4.9,4.3c0-2.2,1.7-3.9,3.9-3.9
	s3.9,1.7,3.9,3.9c0,1.2-0.6,2.3-1.5,3.1c0.7,1.5,0.7,2.9,0.7,4.3l2,1.3c0.2,0.1,0.3,0.3,0.3,0.5L15,19c0,0,0,0.1,0,0.1v0.8h1.6v-3.1
	c0-0.4,0.3-0.8,0.8-0.8h7C24.8,16,25.1,16.3,25.1,16.8z M6.4,4.3c0,1.3,1,2.3,2.3,2.3c1.3,0,2.3-1,2.3-2.3c0-1.3-1-2.3-2.3-2.3
	C7.5,2,6.4,3,6.4,4.3z M11.3,16c0.3,0.1,0.5,0.3,0.6,0.5l0.8,2.3c0,0.1,0,0.1,0,0.2c0.2,0.1,0.6,0.1,0.8,0l-0.7-4.9l-2-1.4
	c-0.2-0.1-0.3-0.4-0.3-0.6c0-1.3,0-2.5-0.5-3.8L9.6,9v3.1l-0.8,0.8L8,12.1V9L7.5,8C7.2,7.8,6.9,7.7,6.6,7.5c-2,1.5-3.3,4.3-3.3,6.1
	c0,0.3,0.4,0.8,0.8,0.8c0.4,0,0.8,0.3,0.8,0.8v6.2c0,0.7,0.6,0.8,0.8,0.8c0.1,0,0.8,0,0.8-0.8c0,0,0-0.1,0-0.1l0.8-5.5
	c0-0.2,0.2-0.4,0.3-0.5c0.2-0.1,0.4-0.2,0.6-0.1L11.3,16z"/>
</svg>
