<?xml version="1.0" encoding="utf-8"?>
<!-- Generator: Adobe Illustrator 21.0.0, SVG Export Plug-In . SVG Version: 6.00 Build 0)  -->
<svg version="1.1" id="layer_1" xmlns="http://www.w3.org/2000/svg" xmlns:xlink="http://www.w3.org/1999/xlink" x="0px" y="0px"
	 viewBox="0 0 25.5 25.5" style="enable-background:new 0 0 25.5 25.5;" xml:space="preserve">
<style type="text/css">
	.st0{fill:#C9B37D;}
</style>
<path class="st0" d="M23.7,11.6l0-0.6c-0.2-2.7-0.9-3.3-2.1-4.3l-0.2-0.2c0.5-0.5,0.8-1.3,0.8-2c0-1.7-1.4-3.1-3.1-3.1
	c-1.7,0-3.1,1.4-3.1,3.1c0,0.8,0.3,1.5,0.8,2l-0.2,0.2c-1.2,0.9-1.9,1.6-2.1,4.3l0,0.6h-2.9c-0.4-1.2-1-2.1-2-2.9
	c0.6-0.7,1-1.6,1-2.6c0-2.2-1.7-3.9-3.9-3.9C4.4,2.2,2.6,4,2.6,6.1c0,1,0.4,1.9,1,2.6c-1.6,1.3-2.3,3-2.5,6c0,1.3,0,2.8,1.7,3.1
	l0.7,3.4c0.4,1.8,1.7,2.9,3.1,2.9s2.6-1.1,3.1-3l0.7-3.3C12,17.5,12,16,12,14.6c0-0.5-0.1-1-0.2-1.5h11.9c0.4,0,0.8-0.3,0.8-0.8
	C24.4,12,24.1,11.6,23.7,11.6z M8.9,16.9l-0.8,3.9c-0.3,1.1-0.9,1.7-1.6,1.7c-0.7,0-1.3-0.7-1.6-1.7l-0.8-3.9
	c-0.1-0.4-0.4-0.6-0.8-0.6c-0.8,0-0.8,0-0.8-1.5c0.2-2.9,0.9-4,2-4.9c0.1,0,0.1-0.1,0.1-0.1c0.4-0.6,1.1-1.2,1.7-1.2
	c0.6,0,1.3,0.7,1.7,1.2c0,0.1,0.1,0.1,0.1,0.1c1.1,0.9,1.8,2,2,4.8c0,1.6,0,1.6-0.8,1.6C9.3,16.3,8.9,16.5,8.9,16.9z M6.5,3.8
	c1.3,0,2.3,1,2.3,2.3c0,0.6-0.2,1.1-0.5,1.5c-1.2-0.9-2.4-0.9-3.6,0C4.4,7.2,4.2,6.7,4.2,6.1C4.2,4.8,5.2,3.8,6.5,3.8z M19,3
	c0.9,0,1.6,0.7,1.6,1.6c0,0.9-0.7,1.6-1.6,1.6s-1.6-0.7-1.6-1.6C17.4,3.7,18.1,3,19,3z M15.8,11.6l0-0.4C16,9.1,16.5,8.7,17.4,8
	l0.5-0.4l0.7,1l-1.1,3H15.8z M19.4,8.6l0.7-1L20.6,8c0.9,0.7,1.4,1.1,1.5,3.2l0,0.4h-1.6L19.4,8.6z M12.8,13.9h10.1v0.8H12.8V13.9z"
	/>
</svg>
