<?xml version="1.0" encoding="utf-8"?>
<!-- Generator: Adobe Illustrator 21.0.0, SVG Export Plug-In . SVG Version: 6.00 Build 0)  -->
<svg version="1.1" id="layer_1" xmlns="http://www.w3.org/2000/svg" xmlns:xlink="http://www.w3.org/1999/xlink" x="0px" y="0px"
	 viewBox="0 0 25.5 25.5" style="enable-background:new 0 0 25.5 25.5;" xml:space="preserve">
<style type="text/css">
	.st0{fill:#C9B37D;}
</style>
<g>
	<path class="st0" d="M5.7,11.6H3l0.2-0.2c0.3-0.3,0.3-0.8,0-1.1c-0.3-0.3-0.8-0.3-1.1,0l-1.6,1.6c0,0,0,0,0,0c0,0,0,0,0,0l0,0
		c0,0,0,0,0,0l0,0c-0.1,0.1-0.2,0.3-0.2,0.5l0,0v0c0,0,0,0.1,0,0.1c0,0,0,0,0,0c0,0.1,0.1,0.3,0.2,0.4c0,0,0,0,0,0l1.6,1.6
		c0.2,0.2,0.4,0.2,0.6,0.2c0.2,0,0.4-0.1,0.6-0.2c0.3-0.3,0.3-0.8,0-1.1L3,13.2h2.8h0.8v-1.6H5.7z"/>
	<path class="st0" d="M8.3,7.7L8.1,7.4L7.3,6.6l-2-2h0.5c0.4,0,0.8-0.3,0.8-0.8c0-0.4-0.3-0.8-0.8-0.8H3.4c0,0,0,0,0,0c0,0,0,0,0,0
		h0c0,0,0,0,0,0h0C3.2,3.1,3,3.1,2.9,3.2l0,0l0,0c0,0-0.1,0.1-0.1,0.1l0,0C2.7,3.5,2.6,3.6,2.6,3.8c0,0,0,0,0,0.1v2.3
		c0,0.2,0.1,0.4,0.2,0.6C3,6.9,3.2,7,3.4,7c0.4,0,0.8-0.3,0.8-0.8V5.7l2,2l1.1,1.1L8.3,7.7z"/>
	<path class="st0" d="M6.5,16.8l-0.4,0.4l-2,2v-0.5c0-0.4-0.3-0.8-0.8-0.8c-0.2,0-0.4,0.1-0.6,0.2c-0.1,0.1-0.2,0.3-0.2,0.6V21
		c0,0,0,0,0,0.1c0,0.2,0.1,0.3,0.2,0.4l0,0c0,0,0.1,0.1,0.1,0.1l0,0l0,0c0.1,0.1,0.3,0.2,0.5,0.2h0c0,0,0,0,0,0h0c0,0,0,0,0,0
		c0,0,0,0,0,0h2.3c0.4,0,0.8-0.3,0.8-0.8c0-0.4-0.3-0.8-0.8-0.8H5.3l2-2l0,0L7.5,18L6.5,16.8z"/>
	<path class="st0" d="M25.2,12.4c0-0.2-0.1-0.4-0.2-0.5v0c0,0,0,0,0,0l0,0c0,0,0,0,0,0c0,0,0,0,0,0l-1.6-1.6c-0.3-0.3-0.8-0.3-1.1,0
		c-0.3,0.3-0.3,0.8,0,1.1l0.2,0.2h-2.8H19v1.6h0.8h2.8l-0.2,0.2c-0.3,0.3-0.3,0.8,0,1.1c0.2,0.2,0.4,0.2,0.6,0.2
		c0.2,0,0.4-0.1,0.6-0.2L25,13c0,0,0,0,0,0c0.1-0.1,0.2-0.3,0.2-0.4c0,0,0,0,0,0C25.2,12.5,25.2,12.4,25.2,12.4L25.2,12.4L25.2,12.4
		z"/>
	<path class="st0" d="M18.2,8.8l1.1-1.1l2-2v0.5c0,0.4,0.3,0.8,0.8,0.8c0.2,0,0.4-0.1,0.6-0.2c0.1-0.1,0.2-0.3,0.2-0.6V3.8
		c0,0,0,0,0-0.1c0-0.2-0.1-0.3-0.2-0.4l0,0c0,0-0.1-0.1-0.1-0.1l0,0l0,0c-0.1-0.1-0.3-0.2-0.5-0.2h0c0,0,0,0,0,0h0c0,0,0,0,0,0
		s0,0,0,0h-2.3c-0.4,0-0.8,0.3-0.8,0.8c0,0.4,0.3,0.8,0.8,0.8h0.5l-2,2l-1.1,1.1c0,0,0,0.1,0,0.1L18.2,8.8z"/>
	<path class="st0" d="M18.2,18.2L18.2,18.2l2,2h-0.5c-0.4,0-0.8,0.3-0.8,0.8c0,0.4,0.3,0.8,0.8,0.8h2.3c0,0,0,0,0,0s0,0,0,0h0
		c0,0,0,0,0,0h0c0.2,0,0.4-0.1,0.5-0.2l0,0l0,0c0,0,0.1-0.1,0.1-0.1c0,0,0,0,0,0c0.1-0.1,0.1-0.3,0.2-0.4c0,0,0,0,0-0.1v-2.3
		c0-0.2-0.1-0.4-0.2-0.6c-0.1-0.1-0.3-0.2-0.6-0.2c-0.4,0-0.8,0.3-0.8,0.8v0.5l-2-2l0,0L18.2,18.2z"/>
	<path class="st0" d="M15.7,8.7c0.6-0.7,1-1.6,1-2.6c0-2.2-1.7-3.9-3.9-3.9S8.9,4,8.9,6.2c0,1,0.4,1.9,1,2.6c-1.6,1.3-2.3,3-2.5,6
		c0,1.3,0,2.8,1.7,3.1l0.7,3.4c0.4,1.8,1.7,2.9,3.1,2.9h0c1.4,0,2.6-1.1,3.1-3l0.7-3.3c1.7-0.3,1.7-1.8,1.7-3.1
		C18,11.7,17.2,10,15.7,8.7z M12.8,3.8c1.3,0,2.3,1,2.3,2.3c0,1.3-1,2.3-2.3,2.3c-1.3,0-2.3-1-2.3-2.3C10.4,4.9,11.5,3.8,12.8,3.8z
		 M15.1,16.9l-0.8,3.9c-0.3,1.1-0.9,1.7-1.6,1.7c-0.7,0-1.3-0.7-1.6-1.7l-0.8-3.9c-0.1-0.4-0.4-0.6-0.8-0.6c-0.8,0-0.8,0-0.8-1.5
		c0.2-2.9,0.9-4,2-4.9C11,9.9,11,9.8,11,9.8c0,0,0,0,0.1-0.1c0.2,0.1,0.3,0.1,0.5,0.2l0.7,1l-1,2.6l1.6,2.1l1.6-2.1l-1-2.6l0.7-1
		c0.2-0.1,0.3-0.1,0.5-0.2c0,0,0,0,0.1,0.1c0,0.1,0.1,0.1,0.1,0.1c1.1,0.9,1.8,2,2,4.8c0,1.6,0,1.6-0.8,1.6
		C15.5,16.3,15.2,16.6,15.1,16.9z"/>
</g>
</svg>
