<?xml version="1.0" encoding="utf-8"?>
<!-- Generator: Adobe Illustrator 21.0.0, SVG Export Plug-In . SVG Version: 6.00 Build 0)  -->
<svg version="1.1" id="layer_1" xmlns="http://www.w3.org/2000/svg" xmlns:xlink="http://www.w3.org/1999/xlink" x="0px" y="0px"
	 viewBox="0 0 25.5 25.5" style="enable-background:new 0 0 25.5 25.5;" xml:space="preserve">
<style type="text/css">
	.st0{fill:#C9B37D;}
</style>
<path class="st0" d="M11.9,15.1l-3.4-1.4v-1h5.5c1.3,0,1.9-1,1.9-1.9c0-0.9-0.6-1.9-1.9-1.9L8.9,7.7C9.6,7,10,6,10,5
	c0-2.2-1.7-3.9-3.9-3.9C4,1.1,2.2,2.8,2.2,5c0,0.8,0.3,1.6,0.7,2.3C2.9,7.3,2.8,7.5,2.8,7.6c-0.8,1.6-2.1,4-2.1,6.7
	c0,2.8,1.9,4.7,4.7,4.7h0.9l0.7,3.3c0.3,1.3,1.5,2.2,2.7,2.2c0.1,0,0.2,0,0.3,0c1.1-0.1,2.4-1,2.4-3.2v-5.5
	C12.4,15.6,12.2,15.3,11.9,15.1z M6.1,2.6c1.3,0,2.3,1,2.3,2.3s-1,2.3-2.3,2.3c-1.3,0-2.3-1-2.3-2.3S4.8,2.6,6.1,2.6z M10.8,21.3
	c0,0.9-0.4,1.5-1,1.6c-0.5,0.1-1.2-0.3-1.4-1l-0.8-3.9c-0.1-0.4-0.4-0.6-0.8-0.6H5.4c-1.9,0-3.1-1.2-3.1-3.1c0-2.3,1.1-4.4,1.9-6
	c0,0,0,0,0,0c0.6,0.3,1.3,0.6,2,0.6c0.2,0,0.4,0,0.5-0.1c0,0,0,0,0.1,0l7,1.6c0.1,0,0.1,0,0.2,0c0.3,0,0.4,0.2,0.4,0.4
	c0,0.2-0.1,0.4-0.4,0.4H4.6c-0.4,0-0.8,0.3-0.8,0.8s0.3,0.8,0.8,0.8h2.3v1.6c0,0.3,0.2,0.6,0.5,0.7l3.4,1.4V21.3z M24.8,14.3
	c0,0.4-0.3,0.8-0.8,0.8h-0.8v9.3h-1.6v-9.3h-5.5v9.3h-1.6v-9.3h-0.8c-0.4,0-0.8-0.3-0.8-0.8c0-0.4,0.3-0.8,0.8-0.8H17
	c-0.4,0-0.8-0.3-0.8-0.8c0-0.4,0.3-0.8,0.8-0.8h4.8l0.7-6.3c0-0.4,0.4-0.7,0.9-0.7c0.4,0,0.7,0.4,0.7,0.9l-0.8,7c0,0,0,0.1,0,0.1
	c0,0,0,0.1,0,0.1c0,0.1-0.1,0.1-0.1,0.1c0,0,0,0.1-0.1,0.1c0,0-0.1,0.1-0.2,0.1c0,0-0.1,0-0.1,0.1c-0.1,0-0.2,0.1-0.3,0.1h0h0h0h1.6
	C24.5,13.5,24.8,13.9,24.8,14.3z M20.2,15.9h0.8v0.8v7.8h-0.8v-7.8H17v-0.8H20.2z"/>
</svg>
