<?xml version="1.0" encoding="utf-8"?>
<!-- Generator: Adobe Illustrator 21.0.0, SVG Export Plug-In . SVG Version: 6.00 Build 0)  -->
<svg version="1.1" id="圖層_1" xmlns="http://www.w3.org/2000/svg" xmlns:xlink="http://www.w3.org/1999/xlink" x="0px" y="0px"
	 viewBox="0 0 462.6 82.8" style="enable-background:new 0 0 462.6 82.8;" xml:space="preserve">
<style type="text/css">
	.st0{fill:#c9233d;}
	.st1{fill:#FFFFFF;}
</style>
<g>
	<path class="st0" d="M51.4,30.6c-1.7-3.8-2.4-8.2-2.3-12.3C49.5,8.9,57.9-0.2,67.5,0c5.7,0.1,11.4,2,15.8,5.7
		c10,8.6,11,23.6,10.2,35.8c0,0-2,24.4,20.7,41.3c0,0-21.9-15.9-67.4-9.3c-10.9,1.6-26.1-1.5-34.4-8.5C9,62.3,6.5,58.7,5.1,54.7
		c-3.5-9.9-1.4-18.8,6.7-25.4c9.4-7.7,21.9-6.6,32.6-2.1C45.7,27.7,50.8,29.2,51.4,30.6z"/>
</g>
<g>
	<path class="st1" d="M16.9,60.9c0.5-0.2,1-0.3,1.7-0.4c0.9-0.1,1.6-0.3,2.1-0.6c0.4-0.7,0.5-2.4,0.5-5.1v-2.9l0-1.7l0-1.3l0-2.4
		l-0.1-5.9c0-0.7-0.1-1.1-0.3-1.3c-0.3-0.3-1.1-0.6-2.4-0.8c-0.5-0.1-0.9-0.2-1-0.3c-0.1-0.1-0.2-0.3-0.2-0.5
		c0.3-0.1,0.5-0.1,0.6-0.1h1.4l0.7,0c0.5,0,1,0,1.6,0.1c1.2,0.1,2.4,0.1,3.7,0.1c0.4,0,0.9,0,1.6-0.1c1.8-0.1,3.1-0.1,3.9-0.1
		c1.6,0,3.1,0.1,4.5,0.4c1.4,0.3,2.8,0.8,4.3,1.6c0.9,0.5,1.9,1.3,2.8,2.4c1,1.1,1.7,2.3,2.2,3.5c0.5,1.3,0.8,2.7,0.8,4.3
		c0,1.4-0.3,2.8-0.8,4.2c-0.6,1.4-1.3,2.6-2.3,3.6c-1,1-2,1.8-3,2.3c-1,0.5-2.6,1-4.6,1.3c-0.9,0.1-2.4,0.2-4.6,0.2
		c-1.5,0-2.7,0-3.6-0.1c-0.4,0-0.8-0.1-1.2-0.1c-0.1,0-0.1,0-0.2,0l-8,0.1l0-0.1c0-0.1,0-0.1,0-0.2L16.9,60.9z M26.8,60.1
		c1,0.3,2,0.5,3,0.5c1.3,0,2.6-0.2,3.9-0.6c1.3-0.4,2.4-0.9,3.3-1.6c1-0.7,1.8-1.5,2.4-2.4c0.6-0.9,1.1-1.7,1.3-2.4
		c0.4-1,0.5-2.4,0.5-4c0-1.6-0.4-3.2-1.1-4.8c-0.5-1.1-1.4-2.2-2.6-3.2c-1.2-1-2.7-1.8-4.4-2.3c-1.7-0.5-3.5-0.7-5.5-0.7
		c-1.4,0-2.4,0.1-3,0.4c-0.1,0.1-0.2,0.2-0.2,0.3c-0.1,0.3-0.1,0.6-0.1,0.8c0,0.2,0,0.3,0,0.6c0,1.4,0.1,2.5,0.1,3.4l0,4.1
		c0,6.1,0.1,9.5,0.4,10.2C25,59,25.7,59.6,26.8,60.1z"/>
	<path class="st1" d="M62.6,58.7c0.1,0.2,0.1,0.3,0.1,0.3c0,0.2-0.2,0.5-0.5,1c-0.4,0.6-0.9,1.1-1.3,1.3c-0.3,0.2-0.7,0.3-1.3,0.3
		c-0.9,0-1.6-0.3-2.1-0.8c-0.3-0.3-0.5-0.9-0.6-1.7l-2.2,1.4C54,61,53.4,61.2,53,61.4c-0.7,0.2-1.4,0.2-2.3,0.2
		c-0.7,0-1.2-0.2-1.6-0.6c-0.4-0.4-0.6-0.8-0.6-1.4c0-0.8,0.5-1.8,1.7-3c1.1-1.2,2.6-2.1,4.5-2.9c1.3-0.5,2.1-0.9,2.4-1
		c0-0.4,0-0.8,0-1.3c0-1.5-0.2-2.6-0.7-3.1c-0.5-0.5-1.1-0.8-2-0.8c-0.9,0-1.7,0.3-2.5,1c-0.5,0.4-0.8,1.2-1.1,2.3
		c-0.1,0.3-0.2,0.7-0.4,1c-0.6,0.3-1,0.5-1.3,0.5c-0.3,0-0.5-0.1-0.8-0.2c-0.1-0.1-0.2-0.2-0.2-0.3c0-0.3,0.4-1,1.1-2.1
		c0.7-1.1,1.6-1.9,2.7-2.5c1.1-0.6,2.1-0.8,2.9-0.8c1.1,0,1.9,0.1,2.5,0.3c0.5,0.2,1,0.5,1.4,1c0.4,0.5,0.7,1,0.8,1.6
		c0.1,0.3,0.1,1.2,0.1,2.9l-0.1,2.9l0,2.1c0,0.3,0,0.5,0,0.7c0,0.4,0,0.6,0,0.8c0,0.4,0.1,0.7,0.4,1c0.2,0.2,0.5,0.4,0.9,0.4
		c0.5,0,0.9-0.2,1.3-0.7l0.2-0.3C62.3,58.8,62.4,58.8,62.6,58.7z M56.9,58.2c0.1-1.5,0.1-2.6,0.1-3.3c0-0.3,0-0.8-0.1-1.3
		c-0.9,0.3-1.8,0.7-2.8,1.3c-1,0.6-1.8,1.3-2.3,2.1c-0.4,0.6-0.6,1.1-0.6,1.6c0,0.5,0.2,0.9,0.5,1.2c0.3,0.3,0.8,0.5,1.3,0.5
		c0.4,0,0.9-0.1,1.5-0.4C55.3,59.5,56.1,58.9,56.9,58.2z"/>
	<path class="st1" d="M68.6,43.2l0.6,0l0.1,1.7l0,2.2c0.2,0,0.4,0,0.5,0c0.3,0,1,0,1.9-0.1c0.6,0,1.2-0.1,1.8-0.1c0.3,0,0.6,0,1.2,0
		c0,0.2,0,0.4,0,0.6c0,0.2,0,0.4-0.1,0.7h-0.3l-3,0.1l-1.5,0l-0.4,0c-0.1,0.3-0.2,0.7-0.2,1.1l0.1,2.7l0,4.8c0,1.3,0.2,2.1,0.5,2.5
		c0.3,0.4,0.8,0.6,1.5,0.6c0.3,0,1-0.1,1.9-0.3c0.3-0.1,0.7-0.3,1.1-0.6h0.2c0.1,0,0.2,0,0.3,0.1c0.1,0.1,0.1,0.2,0.1,0.3l0,0.1
		c-0.6,0.6-1.2,1-1.9,1.3c-0.7,0.3-1.7,0.4-2.9,0.4c-0.8,0-1.5-0.2-2.1-0.5c-0.6-0.4-0.9-0.8-1.1-1.3c-0.2-0.5-0.2-1.6-0.2-3.3
		l0.1-4.1l0-2v-0.7c0-0.3,0-0.7,0-1l-0.3,0l-1.6,0.1l-0.2,0c-0.1,0-0.3,0-0.3-0.1c-0.1-0.1-0.1-0.1-0.1-0.2c0-0.1,0-0.3,0.1-0.4
		c0.1-0.1,0.4-0.2,0.9-0.4c0.3-0.1,0.7-0.4,1.2-0.8c0.4-0.4,0.8-0.8,1.1-1.2c0.2-0.2,0.4-0.7,0.7-1.4C68.3,43.7,68.5,43.4,68.6,43.2
		z"/>
	<path class="st1" d="M90.1,51.6l-7.8,0.1l-1.5,0c-0.6,0-1.2,0-1.8,0.1c-0.1,0.4-0.2,0.6-0.2,0.7l0,0.2v0.2l0,0.9
		c0,0.7,0.2,1.7,0.8,2.7c0.5,1.1,1.2,1.9,2.1,2.5c0.9,0.6,2.1,0.9,3.5,0.9c0.7,0,1.3-0.1,1.8-0.3c0.4-0.1,1.1-0.4,1.9-0.9l1.4-1.1
		l0.1,0.7c0,0.1,0,0.2,0,0.3c-0.6,0.7-1.3,1.3-2.2,1.8c-0.9,0.5-1.8,0.9-2.7,1.2c-0.4,0.1-1.2,0.2-2.2,0.2c-0.9,0-1.8-0.2-2.7-0.5
		c-1.3-0.5-2.4-1.4-3.1-2.6c-0.8-1.2-1.1-2.6-1.1-4.3c0-0.5,0.1-1.2,0.3-2.1c0.2-0.8,0.6-1.7,1.2-2.7c0.4-0.6,0.8-1.2,1.4-1.6
		c0.8-0.6,1.5-1,2-1.2c0.8-0.3,1.8-0.5,2.9-0.5c1.2,0,2.2,0.2,3,0.6c1,0.5,1.8,1.3,2.3,2.1c0.5,0.9,0.8,1.7,0.8,2.4V51.6z
		 M79.2,50.9h0.9c0.7,0,2.6-0.1,5.9-0.3c0.5,0,0.8-0.1,1-0.1c0.2-0.2,0.4-0.4,0.4-0.6c0-0.4-0.1-0.8-0.4-1.3
		c-0.3-0.5-0.7-0.9-1.2-1.1c-0.5-0.3-1.2-0.4-1.9-0.4c-1.5,0-2.7,0.5-3.6,1.6C79.5,49.4,79.2,50.2,79.2,50.9z"/>
</g>
<g>
	<path class="st0" d="M131.9,58.5c-0.5,0.2-1,0.4-1.5,0.5c-0.4,0.2-0.9,0.3-1.2,0.4c-0.4,0.1-0.7,0.2-1.1,0.2c-0.3,0-0.7,0.1-1,0.1
		c-0.4,0-0.8-0.1-1.1-0.2c-0.3-0.1-0.6-0.4-0.8-0.7c-0.2-0.3-0.4-0.8-0.5-1.3c-0.1-0.5-0.2-1.2-0.2-2v-0.9c0-0.4,0-0.9,0-1.5
		c0-0.6,0-1.1,0-1.8c0-0.6,0-1.3,0-1.9c0-0.6,0-1.3,0-1.9c0-0.6,0-1.2,0-1.7c0-0.5,0-1,0-1.3c0-0.8,0.1-1.6,0.1-2.4
		c0-0.8,0.1-1.6,0.2-2.3l-0.1,0c-0.1,0.3-0.3,0.7-0.5,1.1c-0.2,0.4-0.4,0.9-0.7,1.4c-0.6,1.3-1.3,2.7-2,4.1c-0.7,1.4-1.4,2.9-2,4.4
		c-0.7,1.5-1.4,3-2.1,4.5c-0.7,1.5-1.4,3-2.1,4.6l-0.5,0c-0.2-0.5-0.3-1-0.6-1.6c-0.2-0.6-0.5-1.3-0.7-2.1c-0.3-0.7-0.5-1.5-0.8-2.3
		c-0.3-0.8-0.6-1.6-0.9-2.5c-0.3-0.8-0.6-1.7-0.9-2.5c-0.3-0.8-0.6-1.6-0.9-2.4c-0.3-0.8-0.6-1.5-0.8-2.2c-0.3-0.7-0.5-1.3-0.7-1.8
		c-0.2-0.6-0.4-1.2-0.6-1.7c-0.2-0.5-0.3-0.9-0.4-1.3l-0.1,0c0,0.2,0,0.4,0,0.6c0,0.2,0,0.4,0,0.7v1.7c0,1.1,0,2.2-0.1,3.3
		c0,1.1-0.1,2.2-0.1,3.3c-0.1,1.1-0.1,2.2-0.2,3.2c-0.1,1-0.2,2-0.3,2.8c-0.1,0.7-0.1,1.3-0.2,1.8s-0.1,0.9-0.2,1.3
		c-0.1,0.3-0.2,0.6-0.3,0.8c-0.1,0.2-0.2,0.3-0.4,0.4c-0.2,0.1-0.4,0.2-0.6,0.2c-0.2,0-0.5,0-0.9,0h-0.3c-0.1,0-0.1,0-0.2,0
		c-0.1,0-0.2,0-0.4,0l-0.2-0.1c0.3-0.7,0.7-1.4,0.9-2.2c0.3-0.8,0.5-1.7,0.7-2.6c0.2-0.9,0.4-1.9,0.5-2.8c0.1-1,0.3-2,0.4-2.9
		c0.1-1,0.2-1.9,0.2-2.9c0.1-1,0.1-1.9,0.1-2.7c0-0.9,0-1.6,0.1-2.4c0-0.7,0-1.4,0-1.9c0-0.3,0-0.6-0.1-0.9
		c-0.1-0.2-0.1-0.4-0.3-0.5c-0.1-0.1-0.3-0.2-0.5-0.3c-0.2-0.1-0.5-0.1-0.9-0.1c-0.2,0-0.5,0-0.8,0c-0.3,0-0.7,0.1-1,0.1l-0.1-0.9
		c1.3-0.3,2.5-0.5,3.3-0.6c0.9-0.1,1.6-0.2,2.1-0.2c0.3,0,0.5,0,0.7,0.1c0.2,0,0.4,0.1,0.5,0.2c0.1,0.1,0.3,0.2,0.4,0.4
		c0.1,0.2,0.2,0.4,0.3,0.7c0.4,1,0.8,2.1,1.2,3.2c0.4,1.1,0.9,2.3,1.3,3.5c0.5,1.2,0.9,2.4,1.4,3.6c0.5,1.2,0.9,2.4,1.3,3.5
		c0.2,0.4,0.3,0.9,0.4,1.2c0.1,0.4,0.3,0.7,0.4,1c0.1,0.3,0.2,0.6,0.3,0.9c0.1,0.3,0.2,0.6,0.3,0.8h0.1c0.1-0.3,0.2-0.6,0.4-0.9
		c0.1-0.3,0.3-0.6,0.4-0.9c0.1-0.3,0.3-0.6,0.5-1c0.2-0.3,0.4-0.7,0.6-1.2c0.5-1.1,1-2.2,1.6-3.4c0.6-1.2,1.1-2.4,1.7-3.6
		c0.6-1.2,1.2-2.5,1.8-3.7c0.6-1.3,1.2-2.5,1.8-3.8c0.1-0.1,0.2-0.3,0.3-0.3c0.1-0.1,0.2-0.2,0.4-0.2c0.1-0.1,0.3-0.1,0.4-0.1
		c0.1,0,0.3,0,0.4,0c0.2,0,0.4,0,0.7,0.1s0.5,0.1,0.7,0.2c-0.1,1.1-0.2,2.2-0.3,3.2c-0.1,1-0.2,2-0.2,3c-0.1,1-0.1,1.9-0.2,2.9
		c0,0.9-0.1,1.9-0.1,2.9c0,1,0,2,0,3c0,1,0,2.1,0,3.2c0,0.7,0,1.3,0.1,1.9c0.1,0.5,0.2,0.9,0.3,1.3c0.2,0.3,0.4,0.6,0.7,0.7
		c0.3,0.2,0.6,0.2,1,0.2c0.2,0,0.3,0,0.4,0c0.1,0,0.3,0,0.4,0c0.2,0,0.3-0.1,0.5-0.1c0.2,0,0.4-0.1,0.6-0.2L131.9,58.5z"/>
	<path class="st0" d="M145.5,55.2c0,0,0.1,0.1,0.2,0.1c0.1,0,0.1,0.1,0.2,0.1c0.1,0,0.1,0.1,0.2,0.2c0,0.1,0.1,0.1,0.1,0.2
		c0,0,0,0.1,0,0.1c-0.4,0.6-0.9,1.1-1.4,1.5c-0.5,0.4-1,0.8-1.6,1.1c-0.5,0.3-1.1,0.5-1.7,0.6c-0.6,0.1-1.1,0.2-1.7,0.2
		c-0.9,0-1.8-0.2-2.6-0.6c-0.8-0.4-1.5-0.9-2-1.5c-0.6-0.6-1-1.4-1.3-2.2c-0.3-0.9-0.5-1.8-0.5-2.8c0-0.8,0.1-1.6,0.3-2.4
		c0.2-0.8,0.4-1.6,0.8-2.3c0.3-0.7,0.8-1.4,1.3-2c0.5-0.6,1.1-1.2,1.7-1.6c0.6-0.5,1.3-0.8,2.1-1.1c0.8-0.3,1.6-0.4,2.5-0.4
		c0.6,0,1.1,0.1,1.7,0.2c0.5,0.1,1,0.4,1.4,0.6c0.4,0.3,0.7,0.6,0.9,1c0.2,0.4,0.4,0.9,0.4,1.4c0,0.8-0.3,1.4-0.8,2
		c-0.5,0.6-1.2,1.1-2.2,1.5c-0.9,0.4-2,0.7-3.2,1c-1.2,0.2-2.6,0.4-4,0.5v0.2c0,1,0.1,1.8,0.4,2.6c0.3,0.8,0.6,1.5,1,2
		c0.4,0.6,1,1,1.6,1.3c0.6,0.3,1.3,0.5,1.9,0.5c0.7,0,1.4-0.2,2.2-0.5S144.7,55.9,145.5,55.2z M143.3,46.1c0-0.3-0.1-0.7-0.2-1
		c-0.1-0.3-0.3-0.6-0.5-0.8c-0.2-0.2-0.5-0.4-0.8-0.5c-0.3-0.1-0.6-0.2-1-0.2c-0.5,0-1,0.1-1.4,0.3c-0.4,0.2-0.8,0.4-1.1,0.7
		c-0.3,0.3-0.6,0.6-0.9,1c-0.3,0.4-0.5,0.8-0.6,1.3c-0.2,0.4-0.3,0.9-0.4,1.4c-0.1,0.5-0.2,0.9-0.2,1.4c1.1-0.1,2.1-0.2,3-0.4
		c0.9-0.2,1.6-0.4,2.2-0.7c0.6-0.3,1.1-0.6,1.4-1S143.3,46.6,143.3,46.1z"/>
	<path d="M156.6,37.4c0.3,0.6,0.7,1.2,1.2,1.9c0.4,0.7,0.9,1.4,1.4,2.2c0.5,0.8,1,1.6,1.5,2.4c0.5,0.8,1.1,1.7,1.6,2.5
		c0.5,0.8,1.1,1.7,1.6,2.5c0.5,0.8,1,1.6,1.5,2.4c0.5,0.8,1,1.5,1.4,2.1c0.4,0.7,0.9,1.2,1.2,1.8c0-1.9,0-3.6,0-5.1
		c0-1.5,0-2.9,0-4.2c0-1.2,0-2.3,0.1-3.3c0-1,0.1-1.8,0.1-2.5c0-0.7,0.1-1.3,0.2-1.8c0.1-0.5,0.1-0.9,0.2-1.3
		c0.1-0.3,0.2-0.5,0.3-0.7c0.1-0.2,0.3-0.3,0.4-0.4c0.2-0.1,0.3-0.2,0.5-0.2c0.2,0,0.4-0.1,0.6-0.1c0.5,0,1,0.1,1.5,0.3V36
		c-0.4,0.5-0.7,1.1-0.9,1.9c-0.3,0.8-0.5,1.6-0.7,2.6c-0.2,0.9-0.3,1.9-0.5,3c-0.1,1-0.2,2.1-0.3,3.1c-0.1,1-0.1,2-0.2,3
		c0,0.9-0.1,1.8-0.1,2.5c0,0.7,0,1.3,0,1.9c0,0.6,0,1.3,0,1.9c0,0.6,0,1.3,0,1.9c0,0.6,0,1.3,0,2l-1.4,0.2l-0.2,0
		c-0.2-0.3-0.5-0.7-0.9-1.2c-0.3-0.5-0.7-1.1-1.2-1.7c-0.4-0.6-0.9-1.3-1.4-2.1c-0.5-0.8-1-1.5-1.6-2.4c-0.5-0.8-1.1-1.7-1.6-2.5
		c-0.6-0.9-1.1-1.7-1.6-2.5c-0.5-0.8-1.1-1.7-1.6-2.5c-0.5-0.8-1-1.5-1.4-2.2c-0.5-0.7-0.9-1.3-1.2-1.9c-0.4-0.6-0.7-1.1-0.9-1.5
		c0,1.5,0,3-0.1,4.5c0,1.5-0.1,2.9-0.1,4.2c-0.1,1.3-0.1,2.6-0.2,3.8c-0.1,1.2-0.1,2.3-0.2,3.4c-0.1,0.7-0.1,1.4-0.2,1.9
		c-0.1,0.5-0.1,0.9-0.2,1.3c-0.1,0.3-0.2,0.6-0.3,0.8c-0.1,0.2-0.3,0.4-0.4,0.5c-0.2,0.1-0.4,0.2-0.6,0.2c-0.2,0-0.5,0-0.8,0H151
		c-0.1,0-0.1,0-0.2,0c-0.1,0-0.2,0-0.3,0l-0.2-0.1c0.3-0.7,0.6-1.4,0.8-2.3c0.2-0.8,0.5-1.7,0.6-2.7c0.2-0.9,0.3-1.9,0.5-2.9
		c0.1-1,0.3-2,0.3-3c0.1-1,0.2-2,0.2-3c0.1-1,0.1-1.9,0.1-2.8c0-0.9,0-1.7,0.1-2.5c0-0.8,0-1.4,0-2c0-0.3,0-0.6-0.1-0.8
		c0-0.2-0.1-0.4-0.3-0.5c-0.1-0.1-0.3-0.2-0.5-0.3c-0.2-0.1-0.5-0.1-0.9-0.1c-0.3,0-0.5,0-0.9,0c-0.3,0-0.7,0.1-1.1,0.1l-0.1-0.9
		c0.6-0.1,1.2-0.3,1.7-0.4c0.5-0.1,1-0.2,1.4-0.3c0.4-0.1,0.8-0.1,1.1-0.2c0.3,0,0.6-0.1,0.9-0.1c0.3,0,0.5,0,0.7,0.1
		c0.2,0.1,0.4,0.2,0.6,0.3c0.2,0.1,0.3,0.3,0.5,0.6C156.3,36.8,156.4,37.1,156.6,37.4z"/>
	<path d="M174,52.8c0-0.7,0.1-1.4,0.2-2.2c0.2-0.7,0.4-1.5,0.7-2.1c0.3-0.7,0.7-1.3,1.1-1.9c0.4-0.6,1-1.1,1.5-1.6
		c0.6-0.5,1.2-0.8,2-1.1c0.7-0.3,1.5-0.4,2.3-0.4c0.9,0,1.8,0.2,2.5,0.6c0.7,0.4,1.3,0.9,1.8,1.5c0.5,0.6,0.9,1.3,1.1,2.1
		c0.3,0.8,0.4,1.6,0.4,2.5c0,0.7-0.1,1.4-0.2,2.2c-0.2,0.7-0.4,1.5-0.7,2.1c-0.3,0.7-0.7,1.3-1.1,1.9c-0.4,0.6-1,1.1-1.5,1.6
		c-0.6,0.5-1.2,0.8-2,1.1c-0.7,0.3-1.5,0.4-2.3,0.4c-0.9,0-1.8-0.2-2.5-0.6c-0.7-0.4-1.3-0.9-1.8-1.5c-0.5-0.6-0.9-1.3-1.1-2.1
		C174.1,54.5,174,53.7,174,52.8z M176.7,51.8c0,0.5,0,1,0.1,1.5c0.1,0.5,0.2,1,0.4,1.4c0.2,0.5,0.4,0.9,0.6,1.3
		c0.2,0.4,0.5,0.8,0.9,1c0.3,0.3,0.7,0.5,1.1,0.7c0.4,0.2,0.9,0.3,1.4,0.3c0.5,0,1-0.1,1.4-0.3c0.4-0.2,0.8-0.5,1.1-0.9
		c0.3-0.4,0.5-0.8,0.7-1.3c0.2-0.5,0.4-1,0.5-1.5c0.1-0.5,0.2-1,0.2-1.5c0-0.5,0.1-1,0.1-1.4c0-0.5,0-1-0.1-1.5
		c-0.1-0.5-0.2-1-0.4-1.4c-0.2-0.5-0.4-0.9-0.6-1.3c-0.2-0.4-0.5-0.7-0.9-1s-0.7-0.5-1.1-0.7c-0.4-0.2-0.9-0.3-1.4-0.3
		c-0.5,0-1,0.1-1.4,0.3c-0.4,0.2-0.8,0.5-1.1,0.9c-0.3,0.4-0.5,0.8-0.7,1.3c-0.2,0.5-0.4,1-0.5,1.5c-0.1,0.5-0.2,1-0.2,1.5
		C176.7,50.9,176.7,51.4,176.7,51.8z"/>
	<path d="M203,58.5c-0.2-1.3-0.5-2.7-0.8-4.2c-0.3-1.4-0.6-2.9-1-4.3c-0.2,0.4-0.4,0.9-0.7,1.4c-0.3,0.5-0.5,1-0.8,1.5
		s-0.6,1-0.9,1.6c-0.3,0.5-0.6,1-0.9,1.5c-0.3,0.5-0.6,1-0.9,1.4c-0.3,0.5-0.6,0.9-0.9,1.2l-1.2-0.1c-0.1-0.7-0.2-1.4-0.3-2.1
		c-0.1-0.7-0.3-1.5-0.4-2.3c-0.1-0.8-0.3-1.5-0.5-2.2c-0.2-0.7-0.3-1.4-0.5-2.1c-0.2-0.7-0.3-1.3-0.5-1.8c-0.1-0.6-0.3-1-0.4-1.4
		c-0.1-0.5-0.3-0.8-0.4-1.1c-0.1-0.3-0.3-0.5-0.4-0.7c-0.1-0.2-0.3-0.3-0.4-0.3c-0.2-0.1-0.3-0.1-0.5-0.1c-0.2,0-0.5,0-0.8,0.1
		c-0.3,0-0.6,0.1-1,0.2l-0.2-0.8c1-0.3,1.8-0.6,2.6-0.8c0.7-0.2,1.2-0.3,1.5-0.3c0.2,0,0.4,0,0.5,0.1c0.2,0.1,0.3,0.2,0.5,0.3
		c0.1,0.2,0.3,0.4,0.4,0.6c0.1,0.3,0.3,0.6,0.4,1c0.1,0.3,0.2,0.7,0.3,1.1c0.1,0.4,0.3,0.9,0.4,1.5c0.1,0.6,0.3,1.2,0.4,1.8
		c0.1,0.6,0.3,1.3,0.4,2c0.1,0.7,0.3,1.4,0.4,2.1c0.1,0.7,0.2,1.4,0.3,2.1c0.2-0.2,0.3-0.5,0.6-0.9c0.2-0.4,0.4-0.7,0.7-1.1
		c0.2-0.4,0.5-0.8,0.7-1.3c0.2-0.4,0.4-0.9,0.6-1.3c0.2-0.4,0.4-0.8,0.5-1.1c0.1-0.4,0.3-0.7,0.3-0.9c0-0.2,0.1-0.3,0.1-0.5
		c0-0.2,0-0.3,0-0.5c0-0.2,0-0.5,0-0.7c0-0.3-0.1-0.5-0.1-0.8c0-0.3-0.1-0.5-0.2-0.8c-0.1-0.3-0.1-0.5-0.2-0.7
		c-0.1-0.2-0.1-0.3-0.1-0.5c0-0.2,0.1-0.4,0.2-0.5c0.2-0.1,0.4-0.2,0.8-0.2c0.2,0,0.5,0,0.7,0.1c0.2,0.1,0.5,0.1,0.7,0.3
		c0.2,0.9,0.5,1.8,0.7,2.8c0.2,1,0.5,1.9,0.7,2.9c0.2,1,0.5,2,0.7,2.9c0.2,1,0.4,1.9,0.6,2.8c0.5-0.8,1-1.6,1.5-2.4
		c0.5-0.8,0.9-1.6,1.3-2.5c0.4-0.8,0.7-1.6,0.9-2.4c0.2-0.8,0.4-1.6,0.4-2.4c0-0.3,0-0.6-0.1-0.9c0-0.3-0.1-0.6-0.2-0.9
		c-0.1-0.3-0.3-0.5-0.4-0.8c-0.2-0.2-0.4-0.5-0.7-0.7l0.1-0.3c0.1,0,0.3,0,0.4,0c0.1,0,0.2,0,0.4,0c1,0,1.7,0.2,2.2,0.7
		c0.5,0.4,0.7,1.1,0.7,1.9c0,0.6-0.1,1.3-0.4,2c-0.2,0.8-0.6,1.6-1,2.4c-0.4,0.8-0.9,1.7-1.4,2.6c-0.5,0.9-1,1.7-1.6,2.5
		c-0.5,0.8-1.1,1.6-1.6,2.3c-0.5,0.7-1,1.3-1.4,1.9L203,58.5z"/>
</g>
<g>
	<path d="M426.7,52.7c-1.6,1.2-3.3,2.3-5,3.3c-0.4,0.2-0.8,0.5-1.3,0.8c2.4-2.1,5-4.8,2.3-6.6c-1.9-1.3-7.3-0.6-6.9,2.4
		c-0.8-1.5-1.5-3-1.4-4.7c0.1-1.3-1.9-1.3-2,0c-0.3,3.1,1.9,6.1,3.2,8.8c0.2,0.4,0.5,0.8,0.7,1.1c-0.1,0.1-0.2,0.3-0.4,0.5
		c-0.3,0.5,0,1.4,0.6,1.5c1.6,0.3,3.2-0.4,4.6-1.2c2.4-1.3,4.7-2.9,6.8-4.5C429.1,53.3,427.7,51.9,426.7,52.7z M417.9,52.8
		c-0.4-1.1,5-2.2,3.5,0.3c-0.9,1.4-2.3,2.3-3.5,3.4c-0.1-0.1-0.2-0.3-0.3-0.4c-0.2-0.4-0.3-0.8-0.5-1.2c-0.2-0.3-0.4-0.7-0.5-1
		C417.2,54.2,418.2,53.7,417.9,52.8z"/>
	<path d="M449.2,35.7c-3.5,0.1-7.3,1.4-10.6,2.4c-2.2,0.7-6.1,2-6.1,4.9c0,1.3,2,1.3,2,0c0-3,9.9-4.4,12.1-4.9
		c0.6-0.1,1.2-0.2,1.8-0.3c3.5-0.6-0.8,4.4-1.3,4.9c-1.6,1.7-3.6,2.9-5.7,4c0.5-1.7,0.7-3.5,1.5-5.1c0.5-1.2-1.2-2.2-1.7-1
		c-1.1,2.3-1.1,5.1-2.4,7.3c-0.7,0.3-1.4,0.5-2,0.8c-1.2,0.5-0.7,2.4,0.5,1.9c0.7-0.3,1.3-0.5,2-0.8c0.3,0,0.6-0.1,0.9-0.4
		c4.1-1.8,7.8-4,10.5-7.8C452.4,39.1,453.2,35.6,449.2,35.7z"/>
	<path d="M448,47.5c-1.1-0.6-2.1,1.1-1,1.7c3.3,1.9,6.7,3.4,10,5.3c2.5,1.3,1.8,3.6-0.7,4.2c-2.7,0.6-5.4,1-8.1,1.2
		c-3.6,0.3-7.5,0.6-10.8-0.9c-4.5-1.9-1.1-10-0.5-13.5c0.2-1.3-1.7-1.8-1.9-0.5c-0.7,4.7-3.7,10.3-0.4,14.5
		c3.1,3.9,11.3,2.7,15.3,2.3c3.1-0.3,12.4-0.4,12.8-4.6C463,53.1,450.7,49.1,448,47.5z"/>
	<path d="M231.7,40.6c-4.7-3.4-7-8.3-8.4-13.7c-0.3-1.2-2.3-0.7-1.9,0.5c1.6,6,4.3,11.2,9.4,14.9C231.7,43.1,232.7,41.3,231.7,40.6z
		"/>
	<path d="M238.6,27.4c-2-0.9-4.4,0.7-6.2,1.6c-2.2,1-4.6,2.5-4.9,5.1c-0.1,1.3,1.9,1.3,2,0c0.3-2.3,5.8-4.8,7.9-5
		c0.7-0.1-0.4,4.7-0.5,5.1c-0.6,2.2-0.8,4.5-3.1,5.6c-1.2,0.6-0.1,2.3,1,1.7c2.8-1.4,3.2-4.1,4-6.8
		C239.2,33.3,240.7,28.4,238.6,27.4z"/>
	<path d="M247.1,50.8c-3.1,3.1-5.9,6.5-9.2,9.5c0,0,0,0-0.1,0.1c-0.6-1.4-1.2-3-1.7-4.7c0.2,0,0.5-0.1,0.7-0.3
		c1.2-1.6,2.8-2.9,4.4-4.1c1-0.8,0-2.5-1-1.7c-1.7,1.2-3.3,2.6-4.6,4.2c-0.6-2.7-0.8-5.4-0.1-7.7c0.4-1.2-1.5-1.8-1.9-0.5
		c-1.5,4.8,0.5,11.1,2.3,15.6c0.1,0.2,0.2,0.4,0.4,0.5c-0.4,0.3-0.8,0.5-1.2,0.8c-2.6,1.5-3.2-1.5-3.6-2.9c-0.8-2.6-1.3-5.2-1.3-7.9
		c0-1.3-2-1.3-2,0c0.1,3.7,0.5,13.3,5.9,13.2c2.2,0,4.4-2.2,5.9-3.6c3-2.8,5.6-6,8.5-8.9C249.4,51.3,248,49.9,247.1,50.8z"/>
	<path d="M264.1,25.3c-0.2-1.8-0.8-4.6-3.1-4.6c-3.8-0.1-9.1,3.8-10.6,7.2c-0.5,1.2,1.2,2.2,1.7,1c1.2-2.8,4.9-5.2,7.7-6.1
		c2.8-0.9,2.5,4.4,2.5,6c0,2.1,0,4.1,0,6.2c-0.8,0.6-1.5,1.1-2.3,1.7c-0.9,0.6-2.1,1.1-2.9,1.9c-0.7,0.7-1.5,1.3-2.2,1.9
		c-0.5,0.5-1.4,1.1-1.7,1.7c-0.2,0.5-0.1,1.3,0.6,1.5c0.1,0,0.2,0,0.3,0.1c0.8,0.2,1.2-0.5,1.2-1c0.3-0.3,0.8-0.6,1-0.8
		c0.6-0.6,1.3-1.1,1.9-1.6c1.2-1.1,2.7-1.9,4-2.8c0,0.2,0,0.5,0,0.7c0,1.3,2,1.3,2,0C264.3,33.8,264.5,29.5,264.1,25.3z"/>
	<path d="M275,61.9c-1.3-0.8-2.7-1.4-4.1-2.1c-2-1-3.6-3.2-5.2-4.7c-0.8-0.7-1.5-1.5-2.2-2.2c0.1-0.7-0.5-1.3-1.1-1.2
		c1-1.4,2.1-2.7,3.2-4.1c1.2-1.5,2.1-3.3,3.3-4.8c0.8-1-1-2-1.7-1c-1.3,1.8-2.3,3.7-3.7,5.4c-0.9,1.1-1.8,2.1-2.6,3.2
		c-1.4-1.4-2.8-2.8-4.2-4.2c-0.9-0.9-2.3,0.5-1.4,1.4c1.9,1.9,3.8,3.8,5.8,5.7c-1,1.6-2.1,3.1-3.4,4.5c-1.3,1.3-1.8,3.1-3.2,4.3
		c-2-3.8-1.9-9.7-2-13.7c-0.1-4.2-0.3-8.3-0.3-12.5c0.2,0.4,0.6,0.8,1.2,0.7c3.2-0.6,5.1-3.7,7.4-5.7c1-0.8-0.4-2.2-1.4-1.4
		c-2.1,1.7-3.7,4.6-6.5,5.2c-0.3,0.1-0.5,0.2-0.6,0.5c0-0.9,0-1.7,0-2.6c0-1.3-2-1.3-2,0c0,5.8,0.3,11.6,0.4,17.4
		c0.1,4.3,0.3,10.4,2.8,14c0.3,0.5,0.9,0.6,1.4,0.4c1.5-0.8,2.4-2.1,3.3-3.5c1.5-2.2,3.2-4,4.6-6.2c0.9,0.9,1.8,1.8,2.7,2.6
		c1.2,1.2,2.4,2.6,3.8,3.5c1.6,1,3.4,1.7,5,2.7C275.1,64.3,276.1,62.6,275,61.9z"/>
	<path d="M292.8,24.4c-1.6-1-3.5-1.3-5.4-1.6c-1.9-0.3-4.8-0.5-5.9-2.3c-0.7-1.1-2.4-0.1-1.7,1c2.4,4.1,8.4,2.4,12,4.6
		C292.9,26.8,293.9,25,292.8,24.4z"/>
	<path d="M320.7,32.9c-0.4-0.3-0.9-0.6-1.3-0.9c1.1-0.4,0.6-2.2-0.6-1.9c-0.5,0.1-0.9,0.2-1.4,0.3c-1.2-0.9-2.4-1.9-3.7-2.7
		c-2.7-1.7-5.3-3.5-7.5-5.9c-0.9-1-2.3,0.5-1.4,1.4c2.1,2.3,4.5,4,7,5.7c1,0.7,2,1.4,3,2.1c-4.3,1-8.6,1.9-12.9,3.2c0,0,0,0-0.1,0
		c-0.6-2.6-1.1-5.3-1.2-7.9c-0.1-1.3-2.1-1.3-2,0c0.2,2.8,0.6,5.6,1.3,8.4c-2.8,0.8-5.6,1.6-8.5,2c-0.8,0.1-1.8,0.2-2.9,0.3
		c0-2,0.1-4.1,0.1-6.1c0-1.3-2-1.3-2,0c0,2.1,0,4.2,0,6.2c-2.4,0.2-4.9,0.2-6.4-0.2c-1.2-0.3-1.8,1.6-0.5,1.9c2.4,0.7,4.6,0.2,7,0.1
		c0,2.7,0.1,5.4,0.4,8.2c0.1,1.5,0.3,2.9,0.5,4.4c-2.5,2.4-6,5.1-6.3,8.5c-0.1,0.7,0.7,1.1,1.3,1c3.6-1,4.4,1.2,7.2,1.9
		c0.7,0.2,1.2-0.3,1.3-1c0.3-3.1-0.5-6.9-1.3-10.2c1-0.9,1.9-1.7,2.5-2.4c2.9-3.3,5.6-7.2,8.9-10.3c0.9,2.9,1.9,5.7,3,8.5
		c0.3,0.8,0.6,1.6,1,2.4c-1.3,3-2.9,5.8-3.7,9c-0.3,1.3,1.6,1.8,1.9,0.5c0.6-2.5,1.5-4.9,2.7-7.2c1.8,4.2,4,8.4,7.4,10.9
		c0.6,0.4,1.3-0.1,1.5-0.6c0.6-1.5,0.5-3,0.5-4.6c-0.1-2.7,0.7-5.6,0.7-8.4c0-1.3-2-1.3-2,0c-0.1,2.4-0.4,4.7-0.7,7.1
		c-0.2,1.4,0.1,2.6,0,3.9c-2.7-2.5-4.6-6.5-6.2-10.3c0.1-0.2,0.2-0.4,0.3-0.5c0.9-1.4,0.9-5.2,2.9-5.7c1.3-0.3,0.7-2.2-0.5-1.9
		c-2.2,0.5-3,3.4-3.7,5.3c0,0,0,0.1,0,0.1c-0.5-1.4-1-2.7-1.4-3.8c-0.9-2.3-1.6-4.7-2.3-7.2c4.8-1.2,9.7-2.5,14.5-3.8
		c0.9,0.7,1.8,1.4,2.7,2C320.7,35.3,321.7,33.6,320.7,32.9z M287.2,58.7c-1.4-0.3-2.4-0.3-3.5,0c0.8-1.7,2.4-3.5,4.2-5.1
		c0.1,0.7,0.2,1.5,0.3,2.2c0.2,1.4,0.6,2.9,0.8,4.3C288.4,59.5,287.9,58.9,287.2,58.7z M300.1,37.3c-4,3.6-7.3,8.3-10.8,12.4
		c-0.7-3.5-0.8-7.1-0.8-10.7c2.9-0.1,5.7-0.5,8.5-1.2c1.2-0.3,2.3-0.6,3.5-0.9c0,0.1,0,0.1,0,0.2C300.4,37.1,300.2,37.2,300.1,37.3z
		"/>
	<path d="M404.2,29.6c-7.1-0.3-12.7-4.9-18.4-8.8c-0.1-1.1-1.9-1.1-2,0.1c-0.2,2.5-2.1,4.7-3.4,6.7c-1.5,2.3-2.1,5.2-4.6,6.7
		c-1.1,0.7-0.1,2.4,1,1.7c2.6-1.6,3.7-4.3,5-6.9c1.1-2.2,2.7-4,3.6-6.3c2.4,1.6,4.7,3.3,7.2,4.8c-1.2,1.3-3.2,2.1-4.7,2.8
		c-1,0.5-2.1,1-3.2,1.3c-0.5,0.2-1,0.3-1.5,0.4c-0.7,0.2-0.7-0.2-0.5,0.4c-0.4-1.2-2.4-0.7-1.9,0.5c0.8,2.2,4.2,0.7,5.7,0.1
		c2.5-1,5.8-2.3,7.6-4.3c0.1-0.1,0.1-0.2,0.2-0.3c3.1,1.6,6.3,2.8,9.9,2.9C405.4,31.7,405.4,29.7,404.2,29.6z"/>
	<path d="M388.8,48c-1.9-1.3-4-2.4-5.8-3.9c-1.2-1-3.7-3.7-3.1-5.5c0.4-1.2-1.5-1.7-1.9-0.5c-0.7,2.1,0.8,4.5,2.2,6
		c2.1,2.4,4.9,3.9,7.6,5.6C388.9,50.4,389.9,48.7,388.8,48z"/>
	<path d="M403.7,35.7c-0.9-2.2-3.1-2.1-5.2-1.9c-4,0.5-8.3,2.7-12,4.5c-1.2,0.6-0.1,2.3,1,1.7c0.9-0.4,1.7-0.8,2.6-1.2
		c0.2,1.5,0.1,3,0.1,4.6c-1.3-1-2.7-2-4-3c-1-0.8-2.4,0.6-1.4,1.4c1.8,1.4,3.7,2.6,5.3,4.2c-0.5,0.8,0.4,2,1.3,1.4
		c2.8-1.9,6.1-3,8.8-5C402,41.1,404.8,38.1,403.7,35.7z M392.1,38c1.3-0.5,2.7-1,4-1.5c0.3-0.1,0.7-0.2,1.1-0.3
		c0,0.1-0.1,0.1-0.1,0.1c-1.5,2.6-2.8,5.2-4.3,7.7c-0.1,0.1-0.1,0.2-0.1,0.3c-0.1,0.1-0.3,0.1-0.4,0.2
		C392.2,42.4,392.5,40.2,392.1,38z M401.4,38.2c-1.1,2.2-3.3,3.6-5.7,4.8c1-1.9,2-3.8,3.1-5.6c0.4-0.6,0-1.2-0.6-1.4
		C400.3,35.4,402.7,35.4,401.4,38.2z"/>
	<path d="M400,57.4c0.2-0.3,0.1-0.7-0.1-1c-0.1-1.1-0.4-2-0.8-2.9c-0.9-1.7-3.1-0.9-4.5-0.4c-1.9,0.7-3.3,1.8-3.5,3.8
		c-0.1,1.3,1.9,1.3,2,0c0.1-1.3,1.7-1.8,2.7-2.1c0.7-0.2,1.4-0.7,1.7,0.3c0.2,0.4,0.2,0.9,0.2,1.4c-1.9,1.1-3.9,2.1-5.8,3
		c-1.2,0.6-0.1,2.3,1,1.7c1.6-0.8,3.2-1.6,4.8-2.5c-0.1,1.9-0.6,3.8-1.8,5.2c0,0,0,0.1,0,0.1c-1,0.6-1.9,1.3-2.8,2
		c-0.3,0.1-0.5,0.2-0.6,0.4c0.1-0.3,0.1-0.7-0.2-1c-2.8-3.5-3.5-8.5-3.2-12.8c0.1-1.3-1.9-1.3-2,0c-0.3,4.9,0.6,10.4,3.8,14.3
		c0.4,0.5,1,0.4,1.4,0c0,0.1-0.1,0.1-0.1,0.2c-0.2,1,0.9,1.7,1.7,1c1.4-1.4,3.1-2.4,4.8-3.3c0.8-0.4,0.6-1.2,0-1.6
		C399.6,61.4,400,59.4,400,57.4z"/>
	<path d="M341.6,51.8c-0.8-2.2-1.8-4.3-1.9-6.7c0-1.3-2-1.3-2,0c0,0.3,0,0.5,0.1,0.7c-0.1,0-0.1,0.1-0.1,0.1c-2,1.6-3.2,4-5.1,5.8
		c-1.4,1.4-6,5.7-3.7,0.5c1.4-3.3,2.9-6.5,4.5-9.7c0.4-0.7,0.7-1.4,1-2.2c0.2,0,0.3,0,0.5,0c1.1,0,1.3-1.6,0.4-1.9
		c0.6-1.2,1.3-2.2,2.2-3c1-0.8-0.4-2.2-1.4-1.4c-1.4,1.1-2.4,2.7-3.3,4.6c-2,0.3-4.3,0.6-6-0.1c1.2-3.2,4.2-5.3,5.8-8.3
		c0.6-1.1-1.1-2.1-1.7-1c-1.8,3.4-5.3,5.7-6.3,9.5c-0.1,0.5,0.1,0.9,0.5,1.1c1.9,1.3,4.4,1.1,6.7,0.8c-0.7,1.6-1.4,3.3-2,4.6
		c-1.1,2.3-2,4.7-3.1,7.1c-0.4,1-0.9,2.7-0.4,3.7c2.4,4.4,9.3-4.8,11.9-7.8c0.4,1.4,1,2.7,1.4,4.1C340.1,53.6,342.1,53,341.6,51.8z"
		/>
	<path d="M329.5,58.5c-0.5-1.2-2.3-0.2-1.7,1c0.6,1.4,0.3,3.1,0.3,4.5c0,1.3,2,1.3,2,0C330.1,62.2,330.4,60.4,329.5,58.5z"/>
	<path d="M333.9,56.3c0-1.3-2-1.3-2,0c0,1.9,0.4,3.9,0.4,5.8c0,1.3,2,1.3,2,0C334.3,60.2,334,58.3,333.9,56.3z"/>
	<path d="M340,59.3c-1.3-0.7-2.2-1.9-2.2-3.4c0-1.3-2-1.3-2,0c0.1,2.2,1.3,4.1,3.2,5.1C340.2,61.7,341.2,59.9,340,59.3z"/>
	<path d="M370.8,38.8c-0.8,0.6-3.4,1.7-6.3,3.2c0.8-4.3,1.4-9.2-1-9.9c-2.2-0.6-5.2,2.7-6.7,3.8c-2,1.5-8,6.5-9.7,1.5
		c-0.4-1.1-2.6-6.3-1.1-7c1.2-0.6,0.1-2.3-1-1.7c-3.4,1.6-0.4,9.4,1.5,11.3c4.6,4.6,11.3-2.5,15-5c2.7-1.9,1,6.7,0.8,8
		c0,0.1,0,0.1,0,0.2c-6.7,3.4-14.1,7.9-10.5,11.2c1.5,1.3,6.5,7.4,9,6c0.9-0.5,1.6-1,1.7-2.1c0.1-3.4,0.3-6.7,0.9-10
		c0.1-0.6,0.4-1.8,0.7-3.2c2.7-1.3,5.5-2.6,8-4.4C372.8,39.8,371.8,38.1,370.8,38.8z M360.2,54.7c-0.1,0.9-0.1,1.7,0,2.6
		c0.1,2.9-3.6-1.4-3.6-1.4c-2.5-0.9-3.4-2.7-2.8-5.3c1.2-0.9,2.6-1.7,3.8-2.5c1.2-0.8,2.5-1.4,3.8-2.1
		C361,48.9,360.5,51.7,360.2,54.7z"/>
</g>
</svg>
