<?xml version="1.0" encoding="utf-8"?>
<!-- Generator: Adobe Illustrator 26.2.1, SVG Export Plug-In . SVG Version: 6.00 Build 0)  -->
<svg version="1.1" id="圖層_1" xmlns="http://www.w3.org/2000/svg" xmlns:xlink="http://www.w3.org/1999/xlink" x="0px" y="0px"
	 viewBox="0 0 99 94.2" style="enable-background:new 0 0 99 94.2;" xml:space="preserve">
<style type="text/css">
	.st0{fill:none;stroke:#FABF35;stroke-width:4.5;stroke-linecap:round;stroke-miterlimit:10;}
	.st1{fill:none;stroke:#FABF35;stroke-width:4.5;stroke-linecap:round;stroke-linejoin:round;stroke-miterlimit:10;}
</style>
<path class="st0" d="M93.6,70.1c-4.1,0-6.2-1.1-8.1-2c-1.8-0.9-3.3-1.6-6.5-1.6c-3.2,0-4.7,0.8-6.5,1.6c-1.9,0.9-4,2-8.1,2
	c-4.1,0-6.2-1.1-8.1-2c-1.8-0.9-3.3-1.6-6.5-1.6c-3.2,0-4.7,0.8-6.5,1.6c-1.9,0.9-4.1,2-8.1,2c-4.1,0-6.3-1.1-8.2-2
	c-1.8-0.9-3.3-1.6-6.5-1.6c-3.2,0-4.8,0.8-6.5,1.6c-1.9,0.9-4.1,2-8.2,2"/>
<path class="st0" d="M93.6,83.6c-4.1,0-6.2-1.1-8.1-2c-1.8-0.9-3.3-1.6-6.5-1.6c-3.2,0-4.7,0.8-6.5,1.6c-1.9,0.9-4,2-8.1,2
	c-4.1,0-6.2-1.1-8.1-2c-1.8-0.9-3.3-1.6-6.5-1.6c-3.2,0-4.7,0.8-6.5,1.6c-1.9,0.9-4.1,2-8.1,2c-4.1,0-6.3-1.1-8.2-2
	c-1.8-0.9-3.3-1.6-6.5-1.6c-3.2,0-4.8,0.8-6.5,1.6c-1.9,0.9-4.1,2-8.2,2"/>
<g>
	<polygon class="st1" points="93.8,38.9 5.5,38.9 25.6,12.3 73.7,12.3 	"/>
	<g>
		<line class="st1" x1="41.9" y1="12.3" x2="33.3" y2="38.9"/>
		<line class="st1" x1="57.5" y1="12.3" x2="66.1" y2="38.9"/>
	</g>
	<line class="st1" x1="21.3" y1="18.4" x2="78" y2="18.4"/>
	<line class="st1" x1="15.6" y1="27.2" x2="83.8" y2="27.2"/>
	<rect x="41.6" y="38.9" class="st1" width="16.1" height="10.9"/>
	<line class="st1" x1="34.7" y1="49.8" x2="64.6" y2="49.8"/>
</g>
</svg>
