<?xml version="1.0" encoding="utf-8"?>
<!-- Generator: Adobe Illustrator 26.2.1, SVG Export Plug-In . SVG Version: 6.00 Build 0)  -->
<svg version="1.1" id="圖層_1" xmlns="http://www.w3.org/2000/svg" xmlns:xlink="http://www.w3.org/1999/xlink" x="0px" y="0px"
	 viewBox="0 0 99 94.25" style="enable-background:new 0 0 99 94.25;" xml:space="preserve">
<style type="text/css">
	.st0{fill:#FFFFFF;}
</style>
<g>
	<g>
		<path class="st0" d="M34.66,46.61H20.23c-1.3,0-2.35-1.05-2.35-2.35V9.01c0-1.3,1.05-2.35,2.35-2.35h7.21
			c1.12,0,2.08,0.79,2.3,1.88l7.21,35.25c0.14,0.69-0.03,1.41-0.48,1.96C36.04,46.29,35.37,46.61,34.66,46.61z M22.59,41.9h9.19
			l-6.25-30.54h-2.94V41.9z"/>
	</g>
	<g>
		<path class="st0" d="M56.69,46.61H42.26c-1.3,0-2.35-1.05-2.35-2.35V9.01c0-1.3,1.05-2.35,2.35-2.35h7.22
			c1.12,0,2.08,0.79,2.3,1.88L59,43.78c0.14,0.69-0.04,1.41-0.48,1.96C58.07,46.29,57.4,46.61,56.69,46.61z M44.61,41.9h9.19
			l-6.25-30.54h-2.94V41.9z"/>
	</g>
	<g>
		<path class="st0" d="M89.94,85.77H11.69c-1.3,0-2.35-1.05-2.35-2.35V71.7c0-1.3,1.05-2.35,2.35-2.35h6.2V44.25
			c0-1.3,1.05-2.35,2.35-2.35h47.68c0.62,0,1.22,0.25,1.66,0.69l13.49,13.49c0.44,0.44,0.69,1.04,0.69,1.66v11.61h6.19
			c1.3,0,2.35,1.05,2.35,2.35v11.72C92.3,84.72,91.24,85.77,89.94,85.77z M14.04,81.07h73.55v-7.02H81.4c-1.3,0-2.35-1.05-2.35-2.35
			V58.71L66.94,46.61H22.59V71.7c0,1.3-1.05,2.35-2.35,2.35h-6.2V81.07z"/>
	</g>
	<g>
		<path class="st0" d="M34.66,60.33h-5.02c-1.3,0-2.35-1.05-2.35-2.35s1.05-2.35,2.35-2.35h5.02c1.3,0,2.35,1.05,2.35,2.35
			S35.96,60.33,34.66,60.33z"/>
	</g>
	<g>
		<path class="st0" d="M50.35,60.33h-5.02c-1.3,0-2.35-1.05-2.35-2.35s1.05-2.35,2.35-2.35h5.02c1.3,0,2.35,1.05,2.35,2.35
			S51.64,60.33,50.35,60.33z"/>
	</g>
	<g>
		<path class="st0" d="M70.65,74.05H20.23c-1.3,0-2.35-1.05-2.35-2.35s1.05-2.35,2.35-2.35h50.42c1.3,0,2.35,1.05,2.35,2.35
			S71.95,74.05,70.65,74.05z"/>
	</g>
</g>
</svg>
