<?xml version="1.0" encoding="utf-8"?>
<!-- Generator: Adobe Illustrator 26.2.1, SVG Export Plug-In . SVG Version: 6.00 Build 0)  -->
<svg version="1.1" id="圖層_1" xmlns="http://www.w3.org/2000/svg" xmlns:xlink="http://www.w3.org/1999/xlink" x="0px" y="0px"
	 viewBox="0 0 99 94.25" style="enable-background:new 0 0 99 94.25;" xml:space="preserve">
<style type="text/css">
	.st0{fill:#FFFFFF;}
</style>
<g>
	<g>
		<g>
			<path class="st0" d="M60.62,73.97c-0.34,0-0.69-0.07-1.03-0.23l-20.95-9.99c-1.19-0.57-1.69-1.99-1.13-3.18
				c0.57-1.19,1.99-1.69,3.18-1.13l20.95,9.99c1.19,0.57,1.69,1.99,1.13,3.18C62.37,73.47,61.51,73.97,60.62,73.97z"/>
		</g>
	</g>
	<g>
		<g>
			<path class="st0" d="M66.03,53.89c-10.65,0-19.31-8.66-19.31-19.31c0-10.02,15.79-26.83,17.59-28.71
				c0.45-0.47,1.07-0.74,1.72-0.74l0,0c0.65,0,1.27,0.27,1.72,0.74c1.8,1.88,17.59,18.7,17.59,28.71
				C85.34,45.23,76.67,53.89,66.03,53.89z M66.03,11.03c-5.24,5.82-14.54,17.43-14.54,23.55c0,8.02,6.52,14.54,14.54,14.54
				c8.02,0,14.54-6.52,14.54-14.54C80.57,28.45,71.26,16.84,66.03,11.03z"/>
		</g>
		<g>
			<path class="st0" d="M66.03,53.89c-1.32,0-2.39-1.07-2.39-2.39V23.45c0-1.32,1.07-2.39,2.39-2.39c1.32,0,2.39,1.07,2.39,2.39
				v28.05C68.41,52.82,67.34,53.89,66.03,53.89z"/>
		</g>
		<g>
			<path class="st0" d="M65.93,43.3c-0.61,0-1.22-0.23-1.69-0.7l-7.08-7.08c-0.93-0.93-0.93-2.44,0-3.37c0.93-0.93,2.44-0.93,3.37,0
				l7.08,7.08c0.93,0.93,0.93,2.44,0,3.37C67.16,43.06,66.55,43.3,65.93,43.3z"/>
		</g>
	</g>
	<g>
		<path class="st0" d="M57.76,84.98c-1.76,0-3.51-0.39-5.15-1.16l-30.5-14.46L8.94,72.76c-0.72,0.19-1.47,0.03-2.06-0.42
			c-0.58-0.45-0.92-1.15-0.92-1.89V47.07c0-1.32,1.07-2.39,2.39-2.39h18.37c0.36,0,0.71,0.08,1.03,0.23l29.95,14.3
			c3.39,1.61,5.51,4.84,5.86,8.34l13.85-6.56c6-2.84,13.19-0.28,16.04,5.72c0.56,1.19,0.06,2.61-1.13,3.18L62.92,83.82
			C61.28,84.6,59.52,84.98,57.76,84.98z M22.35,64.45c0.35,0,0.7,0.08,1.02,0.23l31.28,14.83c1.98,0.94,4.24,0.94,6.22,0
			l26.87-12.73c-2.11-2.14-5.43-2.83-8.3-1.47l-17.8,8.44c-0.89,0.42-1.95,0.25-2.66-0.42s-0.94-1.72-0.57-2.63
			c1.12-2.75-0.1-5.89-2.77-7.16L26.18,49.45H10.73v17.92l11.02-2.84C21.95,64.48,22.15,64.45,22.35,64.45z"/>
	</g>
</g>
</svg>
