<?xml version="1.0" encoding="utf-8"?>
<!-- Generator: Adobe Illustrator 26.2.1, SVG Export Plug-In . SVG Version: 6.00 Build 0)  -->
<svg version="1.1" id="圖層_1" xmlns="http://www.w3.org/2000/svg" xmlns:xlink="http://www.w3.org/1999/xlink" x="0px" y="0px"
	 viewBox="0 0 99 94.25" style="enable-background:new 0 0 99 94.25;" xml:space="preserve">
<style type="text/css">
	.st0{fill:#FFFFFF;}
</style>
<g>
	<g>
		<g>
			<path class="st0" d="M49.62,70.75c-11.65,0-21.13-9.48-21.13-21.13c0-11,17.45-29.58,19.44-31.66c0.88-0.93,2.5-0.93,3.39,0
				c1.99,2.08,19.44,20.66,19.44,31.66C70.75,61.27,61.27,70.75,49.62,70.75z M49.62,23.01c-5.79,6.4-16.45,19.62-16.45,26.6
				c0,9.07,7.38,16.45,16.45,16.45c9.07,0,16.45-7.38,16.45-16.45C66.07,42.63,55.41,29.41,49.62,23.01z"/>
		</g>
		<g>
			<path class="st0" d="M49.62,70.75c-1.29,0-2.34-1.05-2.34-2.34V37.26c0-1.29,1.05-2.34,2.34-2.34c1.29,0,2.34,1.05,2.34,2.34
				v31.15C51.96,69.7,50.91,70.75,49.62,70.75z"/>
		</g>
		<g>
			<path class="st0" d="M49.52,58.98c-0.6,0-1.2-0.23-1.66-0.69L40,50.43c-0.91-0.91-0.91-2.4,0-3.31s2.4-0.91,3.31,0l7.86,7.86
				c0.91,0.91,0.91,2.4,0,3.31C50.71,58.76,50.12,58.98,49.52,58.98z"/>
		</g>
	</g>
	<g>
		<g>
			<g>
				<path class="st0" d="M51.19,85.63c-1.29,0-2.34-1.05-2.34-2.34c0-1.29,1.05-2.34,2.34-2.34c19.82,0,35.94-16.12,35.94-35.94
					c0-1.29,1.05-2.34,2.34-2.34s2.34,1.05,2.34,2.34C91.81,67.41,73.58,85.63,51.19,85.63z"/>
			</g>
			<g>
				<path class="st0" d="M84.34,28.21c-0.81,0-1.6-0.42-2.03-1.17C72.4,9.88,50.38,3.98,33.21,13.89c-1.12,0.64-2.55,0.26-3.2-0.86
					c-0.65-1.12-0.26-2.55,0.86-3.2C50.27-1.37,75.16,5.3,86.36,24.7c0.65,1.12,0.26,2.55-0.86,3.2
					C85.14,28.11,84.73,28.21,84.34,28.21z"/>
			</g>
			<g>
				<path class="st0" d="M32.04,80.5c-0.4,0-0.8-0.1-1.17-0.31C11.48,68.99,4.81,44.1,16.01,24.7c0.65-1.12,2.08-1.5,3.2-0.86
					c1.12,0.65,1.5,2.08,0.86,3.2c-9.91,17.16-4.01,39.18,13.15,49.09c1.12,0.65,1.5,2.08,0.86,3.2
					C33.64,80.08,32.85,80.5,32.04,80.5z"/>
			</g>
			<g>
				<path class="st0" d="M58.02,91.22c-0.52,0-1.05-0.17-1.48-0.53L49.7,85.1c-1-0.82-1.15-2.3-0.33-3.3l5.59-6.83
					c0.82-1,2.3-1.14,3.29-0.33c1,0.82,1.15,2.3,0.33,3.3l-4.11,5.02l5.02,4.11c1,0.82,1.15,2.3,0.33,3.3
					C59.37,90.93,58.69,91.22,58.02,91.22z"/>
			</g>
			<g>
				<path class="st0" d="M84.34,28.21c-0.13,0-0.25-0.01-0.38-0.03l-8.71-1.43c-1.28-0.21-2.14-1.41-1.93-2.69
					c0.21-1.27,1.41-2.15,2.69-1.93l6.4,1.05l1.05-6.4c0.21-1.27,1.4-2.15,2.69-1.93c1.28,0.21,2.14,1.41,1.93,2.69l-1.43,8.71
					C86.46,27.39,85.46,28.21,84.34,28.21z"/>
			</g>
			<g>
				<path class="st0" d="M21.15,36.47c-0.95,0-1.84-0.58-2.19-1.51l-2.29-6.07l-6.07,2.29c-1.21,0.46-2.56-0.15-3.02-1.36
					c-0.46-1.21,0.15-2.56,1.36-3.02l8.26-3.12c1.21-0.46,2.56,0.15,3.02,1.36l3.12,8.26c0.46,1.21-0.15,2.56-1.36,3.02
					C21.71,36.42,21.43,36.47,21.15,36.47z"/>
			</g>
		</g>
	</g>
</g>
</svg>
