<?xml version="1.0" encoding="utf-8"?>
<!-- Generator: Adobe Illustrator 26.2.1, SVG Export Plug-In . SVG Version: 6.00 Build 0)  -->
<svg version="1.1" id="圖層_1" xmlns="http://www.w3.org/2000/svg" xmlns:xlink="http://www.w3.org/1999/xlink" x="0px" y="0px"
	 viewBox="0 0 99 94.25" style="enable-background:new 0 0 99 94.25;" xml:space="preserve">
<style type="text/css">
	.st0{fill:#FFFFFF;}
</style>
<g>
	<g>
		<path class="st0" d="M58.39,71.23H19.7c-1.21,0-2.2-0.98-2.2-2.2V19.25c0-5.27,4.29-9.56,9.56-9.56h23.96
			c5.27,0,9.56,4.29,9.56,9.56v49.78C60.58,70.25,59.6,71.23,58.39,71.23z M21.89,66.84h34.29V19.25c0-2.85-2.32-5.17-5.17-5.17
			H27.06c-2.85,0-5.17,2.32-5.17,5.17V66.84z"/>
	</g>
	<g>
		<path class="st0" d="M50.58,38.37H27.5c-1.21,0-2.2-0.98-2.2-2.2V19.69c0-1.21,0.98-2.2,2.2-2.2h23.08c1.21,0,2.2,0.98,2.2,2.2
			v16.49C52.78,37.39,51.8,38.37,50.58,38.37z M29.7,33.98h18.69V21.89H29.7V33.98z"/>
	</g>
	<g>
		<path class="st0" d="M66.96,84.75H11.12c-1.21,0-2.2-0.98-2.2-2.2v-9.34c0-0.58,0.23-1.14,0.64-1.55l4.19-4.18
			c0.41-0.41,0.97-0.64,1.55-0.64h47.46c0.58,0,1.14,0.23,1.56,0.64l4.18,4.18c0.41,0.41,0.64,0.97,0.64,1.55v9.34
			C69.16,83.77,68.17,84.75,66.96,84.75z M13.32,80.36h51.44v-6.23l-2.9-2.9H16.22l-2.9,2.9V80.36z"/>
	</g>
	<g>
		<g>
			<path class="st0" d="M71.89,60.9h-13.5c-1.21,0-2.2-0.98-2.2-2.2c0-1.21,0.98-2.2,2.2-2.2h13.5c3.23,0,5.87-2.63,5.87-5.86V33.92
				c0-1.21,0.98-2.2,2.2-2.2c1.21,0,2.2,0.98,2.2,2.2v16.73C82.15,56.3,77.55,60.9,71.89,60.9z"/>
		</g>
		<g>
			<path class="st0" d="M79.95,36.11c-4.62,0-8.38-3.76-8.38-8.38v-5.82c0-1.21,0.98-2.2,2.2-2.2c1.21,0,2.2,0.98,2.2,2.2v5.82
				c0,2.2,1.79,3.98,3.98,3.98c2.2,0,3.98-1.79,3.98-3.98v-5.82c0-1.21,0.98-2.2,2.2-2.2c1.21,0,2.2,0.98,2.2,2.2v5.82
				C88.33,32.35,84.57,36.11,79.95,36.11z"/>
		</g>
		<g>
			<path class="st0" d="M90.88,24.11H69.03c-1.21,0-2.2-0.98-2.2-2.2s0.98-2.2,2.2-2.2h21.84c1.21,0,2.2,0.98,2.2,2.2
				S92.09,24.11,90.88,24.11z"/>
		</g>
		<g>
			<path class="st0" d="M83.9,24.11c-1.21,0-2.2-0.98-2.2-2.2V12.5c0-1.21,0.98-2.2,2.2-2.2c1.21,0,2.2,0.98,2.2,2.2v9.41
				C86.09,23.13,85.11,24.11,83.9,24.11z"/>
		</g>
		<g>
			<path class="st0" d="M76.01,24.11c-1.21,0-2.2-0.98-2.2-2.2V12.5c0-1.21,0.98-2.2,2.2-2.2c1.21,0,2.2,0.98,2.2,2.2v9.41
				C78.21,23.13,77.23,24.11,76.01,24.11z"/>
		</g>
	</g>
	<g>
		<path class="st0" d="M39.71,63.32c-0.27,0-0.55-0.05-0.81-0.16c-1.13-0.45-1.68-1.73-1.23-2.86l1.92-4.8h-4.34
			c-0.73,0-1.41-0.36-1.82-0.97c-0.41-0.6-0.49-1.37-0.22-2.05l3.12-7.82c0.45-1.13,1.72-1.68,2.86-1.23
			c1.13,0.45,1.68,1.73,1.23,2.86l-1.92,4.8h4.34c0.73,0,1.41,0.36,1.82,0.97c0.41,0.6,0.49,1.37,0.22,2.05l-3.12,7.82
			C41.41,62.8,40.59,63.32,39.71,63.32z"/>
	</g>
</g>
</svg>
