<?xml version="1.0" encoding="utf-8"?>
<!-- Generator: Adobe Illustrator 26.2.1, SVG Export Plug-In . SVG Version: 6.00 Build 0)  -->
<svg version="1.1" id="圖層_1" xmlns="http://www.w3.org/2000/svg" xmlns:xlink="http://www.w3.org/1999/xlink" x="0px" y="0px"
	 viewBox="0 0 99 94.25" style="enable-background:new 0 0 99 94.25;" xml:space="preserve">
<style type="text/css">
	.st0{fill:#FFFFFF;}
</style>
<g>
	<g>
		<path class="st0" d="M85.42,74.88H14.21c-0.69,0-1.34-0.3-1.78-0.83c-0.44-0.53-0.63-1.22-0.5-1.9l11.15-61.88
			c0.2-1.11,1.16-1.91,2.28-1.91h48.92c1.12,0,2.09,0.8,2.28,1.91L87.7,72.14c0.12,0.68-0.06,1.37-0.5,1.9
			C86.76,74.57,86.11,74.88,85.42,74.88z M16.99,70.23h65.65L72.33,13H27.3L16.99,70.23z"/>
	</g>
	<g>
		<path class="st0" d="M49.81,86.45c-1.28,0-2.32-1.04-2.32-2.32V72.55c0-1.28,1.04-2.32,2.32-2.32c1.28,0,2.32,1.04,2.32,2.32
			v11.57C52.14,85.41,51.1,86.45,49.81,86.45z"/>
	</g>
	<g>
		<path class="st0" d="M63.75,86.45H35.88c-1.28,0-2.32-1.04-2.32-2.32s1.04-2.32,2.32-2.32h27.87c1.28,0,2.32,1.04,2.32,2.32
			S65.03,86.45,63.75,86.45z"/>
	</g>
	<g>
		<path class="st0" d="M61.34,63.46c-1.22,0-2.24-0.95-2.32-2.18L56.6,22.23c-0.08-1.28,0.89-2.38,2.17-2.46
			c1.29-0.06,2.38,0.89,2.46,2.17L63.66,61c0.08,1.28-0.89,2.38-2.17,2.46C61.43,63.46,61.38,63.46,61.34,63.46z"/>
	</g>
	<g>
		<path class="st0" d="M38.29,63.46c-0.05,0-0.1,0-0.15,0c-1.28-0.08-2.25-1.18-2.17-2.46l2.42-39.05c0.08-1.28,1.17-2.24,2.46-2.17
			c1.28,0.08,2.25,1.18,2.17,2.46l-2.42,39.05C40.53,62.51,39.51,63.46,38.29,63.46z"/>
	</g>
	<g>
		<path class="st0" d="M71.64,43.94H27.99c-1.28,0-2.32-1.04-2.32-2.32c0-1.28,1.04-2.32,2.32-2.32h43.65
			c1.28,0,2.32,1.04,2.32,2.32C73.96,42.9,72.92,43.94,71.64,43.94z"/>
	</g>
</g>
</svg>
