<?xml version="1.0" encoding="utf-8"?>
<!-- Generator: Adobe Illustrator 26.2.1, SVG Export Plug-In . SVG Version: 6.00 Build 0)  -->
<svg version="1.1" id="圖層_1" xmlns="http://www.w3.org/2000/svg" xmlns:xlink="http://www.w3.org/1999/xlink" x="0px" y="0px"
	 viewBox="0 0 99 94.25" style="enable-background:new 0 0 99 94.25;" xml:space="preserve">
<style type="text/css">
	.st0{fill:none;stroke:#FABF35;stroke-width:4.5;stroke-linecap:round;stroke-linejoin:round;stroke-miterlimit:10;}
</style>
<g>
	<g>
		<path class="st0" d="M58.11,23.88c0,4.76-3.85,8.61-8.61,8.61c-4.75,0-8.61-3.85-8.61-8.61c0-4.75,3.86-8.61,8.61-8.61
			C54.26,15.27,58.11,19.13,58.11,23.88z"/>
		<line class="st0" x1="49.5" y1="4.7" x2="49.5" y2="9.69"/>
		<line class="st0" x1="49.5" y1="38.08" x2="49.5" y2="43.06"/>
		<line class="st0" x1="68.68" y1="23.88" x2="63.7" y2="23.88"/>
		<line class="st0" x1="35.31" y1="23.88" x2="30.32" y2="23.88"/>
		<line class="st0" x1="63.06" y1="10.32" x2="59.54" y2="13.84"/>
		<line class="st0" x1="39.46" y1="33.92" x2="35.94" y2="37.44"/>
		<line class="st0" x1="63.06" y1="37.44" x2="59.54" y2="33.92"/>
		<line class="st0" x1="39.46" y1="13.84" x2="35.94" y2="10.32"/>
	</g>
	<g>
		<polygon class="st0" points="93.64,76.12 5.36,76.12 25.46,49.55 73.54,49.55 		"/>
		<g>
			<line class="st0" x1="41.71" y1="49.55" x2="33.1" y2="76.12"/>
			<line class="st0" x1="57.29" y1="49.55" x2="65.9" y2="76.12"/>
		</g>
		<line class="st0" x1="21.15" y1="55.6" x2="77.85" y2="55.6"/>
		<line class="st0" x1="15.41" y1="64.42" x2="83.59" y2="64.42"/>
		<rect x="41.46" y="76.12" class="st0" width="16.08" height="10.88"/>
		<line class="st0" x1="34.54" y1="87.01" x2="64.46" y2="87.01"/>
	</g>
</g>
</svg>
