<?xml version="1.0" encoding="utf-8"?>
<!-- Generator: Adobe Illustrator 26.2.1, SVG Export Plug-In . SVG Version: 6.00 Build 0)  -->
<svg version="1.1" id="圖層_1" xmlns="http://www.w3.org/2000/svg" xmlns:xlink="http://www.w3.org/1999/xlink" x="0px" y="0px"
	 viewBox="0 0 99 94.25" style="enable-background:new 0 0 99 94.25;" xml:space="preserve">
<style type="text/css">
	.st0{fill:#FFFFFF;}
</style>
<g>
	<g>
		<path class="st0" d="M49.73,87.48c-1.37,0-2.48-1.11-2.48-2.48s1.11-2.48,2.48-2.48c14.77,0,26.79-12.02,26.79-26.79
			c0-11.6-17.92-33.5-26.79-43.17c-8.88,9.67-26.79,31.58-26.79,43.17c0,11.03,6.62,20.8,16.86,24.89c1.27,0.51,1.89,1.95,1.38,3.22
			c-0.51,1.27-1.95,1.89-3.22,1.38c-12.14-4.85-19.98-16.43-19.98-29.5c0-16.97,28.74-47.24,29.96-48.52c0.93-0.98,2.65-0.98,3.59,0
			c1.22,1.28,29.96,31.55,29.96,48.52C81.49,73.24,67.25,87.48,49.73,87.48z"/>
	</g>
	<g>
		<path class="st0" d="M49.73,87.48c-0.31,0-0.62-0.06-0.92-0.18c-1.27-0.51-1.89-1.95-1.39-3.22l11.54-28.93H36.84
			c-0.78,0-1.52-0.37-1.99-1c-0.47-0.63-0.61-1.44-0.39-2.19l12.9-43.74c0.39-1.31,1.76-2.07,3.08-1.68
			c1.31,0.39,2.07,1.77,1.68,3.08L40.16,50.19h22.48c0.82,0,1.59,0.41,2.05,1.09c0.46,0.68,0.55,1.55,0.25,2.31l-12.9,32.33
			C51.65,86.89,50.72,87.48,49.73,87.48z"/>
	</g>
</g>
</svg>
