<?xml version="1.0" encoding="utf-8"?>
<!-- Generator: Adobe Illustrator 26.2.1, SVG Export Plug-In . SVG Version: 6.00 Build 0)  -->
<svg version="1.1" id="圖層_1" xmlns="http://www.w3.org/2000/svg" xmlns:xlink="http://www.w3.org/1999/xlink" x="0px" y="0px"
	 viewBox="0 0 99 94.25" style="enable-background:new 0 0 99 94.25;" xml:space="preserve">
<style type="text/css">
	.st0{fill:none;}
	.st1{fill:none;stroke:#FABF35;stroke-width:4.5;stroke-linecap:round;stroke-linejoin:round;stroke-miterlimit:10;}
</style>
<g>
	<polygon class="st0" points="30.08,15.49 21.97,15.49 21.97,31.27 30.08,26.03 	"/>
	<polygon class="st0" points="49.74,22.66 21.97,40.62 21.97,75.47 77.51,75.47 77.52,40.63 	"/>
</g>
<g>
	<polygon class="st1" points="55.26,32.04 34.08,59.84 44.67,59.84 44.67,79.69 65.18,52.56 53.27,52.56 	"/>
	<g>
		<line class="st1" x1="78.27" y1="75.47" x2="78.27" y2="33.74"/>
		<line class="st1" x1="20.73" y1="31.96" x2="20.73" y2="75.47"/>
		<polyline class="st1" points="6.38,42.46 49.5,14.56 92.62,42.46 		"/>
		<polyline class="st1" points="30.84,26.64 30.84,14.56 20.73,14.56 20.73,31.96 		"/>
		<line class="st1" x1="27.93" y1="75.47" x2="7.83" y2="75.47"/>
		<line class="st1" x1="91.17" y1="75.47" x2="71.69" y2="75.47"/>
	</g>
</g>
</svg>
