<svg width="20" height="20" viewBox="0 0 24 24" fill="none" xmlns="http://www.w3.org/2000/svg">
<g clip-path="url(#clip0_1_1057)">
<path d="M12.0643 0.73584C7.32385 0.73584 3.48096 4.57888 3.48096 9.31952C3.48096 10.9049 3.79126 12.5423 4.68173 13.7225L12.0643 23.507L19.4468 13.7225C20.2556 12.6506 20.6476 10.7555 20.6476 9.31952C20.6476 4.57888 16.8047 0.73584 12.0643 0.73584ZM12.0643 5.7073C14.0589 5.7073 15.6763 7.32484 15.6763 9.3195C15.6763 11.3142 14.0589 12.9317 12.0643 12.9317C10.0697 12.9317 8.45223 11.3142 8.45223 9.31952C8.45223 7.32484 10.0697 5.7073 12.0643 5.7073Z" fill="#004E62"/>
<ellipse cx="12.0654" cy="9.2748" rx="3.55785" ry="3.558" fill="white"/>
</g>
<defs>
<clipPath id="clip0_1_1057">
<rect width="22.7703" height="22.7712" fill="white" transform="translate(0.679688 0.73584)"/>
</clipPath>
</defs>
</svg>
