<svg width="20" height="20" viewBox="0 0 24 24" fill="none" xmlns="http://www.w3.org/2000/svg">
<g clip-path="url(#clip0_108_1338)">
<path d="M11.744 0.63623C7.00354 0.63623 3.16064 4.47927 3.16064 9.21991C3.16064 10.8053 3.47095 12.4427 4.36141 13.6229L11.744 23.4074L19.1265 13.6229C19.9353 12.551 20.3273 10.6559 20.3273 9.21991C20.3273 4.47927 16.4844 0.63623 11.744 0.63623ZM11.744 5.60769C13.7386 5.60769 15.356 7.22523 15.356 9.21989C15.356 11.2146 13.7386 12.8321 11.744 12.8321C9.74937 12.8321 8.13192 11.2146 8.13192 9.21991C8.13192 7.22523 9.74937 5.60769 11.744 5.60769Z" fill="#FABF35"/>
<ellipse cx="11.7451" cy="9.17519" rx="3.55785" ry="3.558" fill="white"/>
</g>
<defs>
<clipPath id="clip0_108_1338">
<rect width="22.7703" height="22.7712" fill="white" transform="translate(0.359375 0.63623)"/>
</clipPath>
</defs>
</svg>
