<svg width="94" height="94" viewBox="0 0 94 94" fill="none" xmlns="http://www.w3.org/2000/svg">
<path d="M52 29H32C31.4696 29 30.9609 29.2107 30.5858 29.5858C30.2107 29.9609 30 30.4696 30 31V67C30 67.5304 30.2107 68.0391 30.5858 68.4142C30.9609 68.7893 31.4696 69 32 69H60C60.5304 69 61.0391 68.7893 61.4142 68.4142C61.7893 68.0391 62 67.5304 62 67V45.005" stroke="#504136" stroke-width="4" stroke-linecap="round" stroke-linejoin="round"/>
<path d="M36 53H48M36 43H44H36Z" stroke="#504136" stroke-width="4" stroke-linecap="round"/>
<path d="M63.9999 31L52.0029 42.997" stroke="#504136" stroke-width="4" stroke-linecap="round" stroke-linejoin="round"/>
<rect x="2" y="2" width="90" height="90" rx="45" stroke="#504136" stroke-width="4"/>
</svg>
