<svg width="92" height="93" viewBox="0 0 92 93" fill="none" xmlns="http://www.w3.org/2000/svg">
<path d="M56.3189 71.2902C53.9375 74.4654 50.3653 76.053 46.3963 76.053C42.4273 76.053 38.8551 74.0685 36.4737 71.2902C36.0768 70.4964 34.8861 70.4964 34.4892 70.8933C33.6953 71.2902 33.6953 72.4809 34.0923 72.8778C37.2675 76.8468 41.6334 78.8314 46.3963 78.8314C51.1592 78.8314 55.922 76.4499 58.7003 72.8778C59.0973 72.084 59.0973 71.2902 58.3034 70.8933C57.5096 70.4964 56.7158 70.4964 56.3189 71.2902Z" fill="#504136" stroke="#504136" stroke-width="3" stroke-miterlimit="10"/>
<path d="M90 55.1734C90 50.3965 86.4324 46.8139 81.6757 46.4158C78.5045 32.8813 67.8018 22.5314 54.3243 19.3468C55.5135 16.5603 55.9099 13.3757 55.5135 10.1911C54.3243 4.61812 48.3784 1.03546 42.8288 2.22968C40.8469 2.62775 38.8649 4.22005 37.6757 5.81234C36.4865 7.8027 36.0901 9.79307 36.4865 12.1815C36.8829 13.7738 38.0721 15.3661 39.2613 16.1622C40.8469 16.9584 42.4324 17.3565 44.018 16.9584C45.2072 16.5603 46.3964 15.7642 47.1892 14.5699C47.982 13.3757 47.982 11.7834 47.982 10.5892C47.5856 8.20078 45.2072 7.00656 42.8288 7.40463C42.036 7.40463 41.6396 8.20078 41.6396 8.99692C41.6396 9.79307 42.4324 10.1911 43.2252 10.1911C44.018 10.1911 44.8108 10.5892 44.8108 10.9873C45.2072 12.1815 44.4144 13.3757 43.2252 13.7738C42.4324 14.1719 41.2432 13.7738 40.4505 13.3757C39.6577 12.9777 39.2613 12.1815 38.8649 10.9873C38.4685 9.395 38.8649 8.20078 39.6577 7.00656C40.4505 5.81234 41.6396 5.01619 42.8288 4.61812C44.8108 4.22005 46.7928 4.61812 48.7748 5.41427C50.3604 6.60848 51.9459 8.20078 52.3423 10.1911C53.1351 12.9777 52.3423 15.7642 51.1532 18.1526C49.5676 17.7545 47.5856 17.7545 46 17.7545C28.955 17.7545 14.2883 29.6967 10.3243 45.6197C5.56757 46.0177 2 49.6004 2 54.3773C2 59.1541 5.56757 62.7368 10.3243 63.1349C14.2883 79.0578 28.5586 91 46 91C63.0451 91 77.7117 79.0578 81.6757 63.1349C86.036 63.5329 90 59.9503 90 55.1734ZM5.17117 55.1734C5.17117 52.3869 7.15315 49.9985 9.92793 49.6004C9.53153 51.5908 9.53153 53.183 9.53153 55.1734C9.53153 57.1638 9.53153 59.1541 9.92793 60.7464C7.15315 60.3484 5.17117 57.9599 5.17117 55.1734ZM46 89.0096C27.3694 89.0096 12.3063 73.8828 12.3063 55.1734C12.3063 36.464 27.3694 21.3372 46 21.3372C47.1892 21.3372 47.982 21.3372 48.7748 21.3372C47.5856 22.5314 46 23.3276 44.018 23.7256C43.2252 23.7256 42.8288 24.5218 42.8288 25.3179C42.8288 26.1141 43.6216 26.5121 44.4144 26.5121H44.8108C47.982 25.716 50.3604 24.1237 52.3423 21.7353C67.8018 24.9199 79.2973 38.4543 79.2973 54.7753C79.6937 73.8829 64.6306 89.0096 46 89.0096ZM82.0721 60.7464C82.4685 58.7561 82.4685 57.1638 82.4685 55.1734C82.4685 53.183 82.4685 51.1927 82.0721 49.6004C84.8468 49.9985 86.8288 52.3869 86.8288 55.1734C86.8288 57.9599 84.8468 60.3484 82.0721 60.7464Z" fill="#504136" stroke="#504136" stroke-width="3" stroke-miterlimit="10"/>
<path d="M67.4314 53.8269C66.6376 53.4299 65.8438 53.8268 65.4469 54.6207C64.653 57.0021 62.2716 58.1928 59.8902 58.1928C57.5088 58.1928 55.5242 56.6052 54.7304 54.6207C54.3335 53.8268 53.5397 53.4299 52.7459 53.8269C51.9521 54.2238 51.5552 55.0176 51.9521 55.8114C53.1428 59.3835 56.318 61.368 59.8902 61.368C63.4623 61.368 66.6376 58.9866 67.8283 55.8114C68.6221 55.0176 68.2252 53.8269 67.4314 53.8269Z" fill="#504136" stroke="#504136" stroke-width="3" stroke-miterlimit="10"/>
<path d="M40.0465 55.4142C40.4434 54.6203 40.0465 53.8265 39.2527 53.4296C38.4589 53.0327 37.6651 53.4296 37.2681 54.2234C36.4743 56.6049 34.4898 57.7956 32.1084 57.7956C29.727 57.7956 27.7424 56.208 26.5517 54.2234C26.1548 53.4296 25.361 53.0327 24.5672 53.4296C23.7734 53.8265 23.3765 54.6203 23.7734 55.4142C24.9641 58.5894 28.1393 60.9708 31.7115 60.9708C35.2836 61.3677 38.4589 58.9863 40.0465 55.4142Z" fill="#504136" stroke="#504136" stroke-width="3" stroke-miterlimit="10"/>
</svg>
