<svg width="86" height="86" viewBox="0 0 86 86" fill="none" xmlns="http://www.w3.org/2000/svg">
<ellipse cx="43" cy="33.5" rx="22" ry="26.5" fill="#F9EF42"/>
<path d="M50.1667 28.6667C50.1667 26.7659 49.4116 24.9431 48.0676 23.5991C46.7236 22.2551 44.9007 21.5 43 21.5" stroke="#504136" stroke-width="5" stroke-linecap="round" stroke-linejoin="round"/>
<path d="M42.9998 60.9166V64.5C42.9998 66.4007 42.2448 68.2235 40.9008 69.5676C39.5568 70.9116 37.7339 71.6666 35.8332 71.6666H25.0832C23.1825 71.6666 21.3596 72.4217 20.0156 73.7657C18.6716 75.1097 17.9165 76.9326 17.9165 78.8333M21.4998 28.6666C21.4998 22.9645 23.765 17.4959 27.797 13.4638C31.8291 9.4318 37.2977 7.16663 42.9998 7.16663C48.702 7.16663 54.1706 9.4318 58.2026 13.4638C62.2347 17.4959 64.4998 22.9645 64.4998 28.6666C64.4998 46.4758 54.875 60.9166 42.9998 60.9166C31.1247 60.9166 21.4998 46.4758 21.4998 28.6666Z" stroke="#504136" stroke-width="5" stroke-linecap="round" stroke-linejoin="round"/>
</svg>
