<svg width="1156" height="724" viewBox="0 0 1156 724" fill="none" xmlns="http://www.w3.org/2000/svg">
<g clip-path="url(#clip0_307_1465)">
<path d="M875.074 -8.3657e-05C706.961 -1.14626 578.221 41.6442 578.221 41.6442C578.221 41.6442 439.307 -8.3657e-05 296.853 -8.3657e-05C128.739 -1.14626 0 41.6442 0 41.6442V687.704C0 687.704 128.739 644.914 296.853 646.06C438.864 646.06 577.779 687.704 577.779 687.704C577.779 687.704 706.518 644.914 874.632 646.06C1016.64 646.06 1155.56 687.704 1155.56 687.704V41.6442C1156 41.6442 1017.09 -8.3657e-05 875.074 -8.3657e-05Z" fill="white"/>
<path d="M875.074 682.356C706.961 681.21 578.221 724 578.221 724C578.221 724 439.307 682.356 297.295 682.356C128.739 681.21 0 724 0 724V687.705C0 687.705 128.739 644.914 296.853 646.06C438.864 646.06 577.779 687.705 577.779 687.705C577.779 687.705 706.518 644.914 874.632 646.06C1016.64 646.06 1155.56 687.705 1155.56 687.705V724C1156 724 1017.09 682.356 875.074 682.356Z" fill="#D4B481"/>
</g>
<defs>
<clipPath id="clip0_307_1465">
<rect width="1156" height="724" fill="white"/>
</clipPath>
</defs>
</svg>
