<svg width="96" height="84" viewBox="0 0 96 84" fill="none" xmlns="http://www.w3.org/2000/svg">
<path d="M21.5318 35.8909H11.2227L11.9863 35.1272C13.1318 33.9818 13.1318 32.0727 11.9863 30.9272C10.8409 29.7818 8.93177 29.7818 7.78631 30.9272L1.67721 37.0363C1.29539 37.4181 0.913574 38.1818 0.913574 38.9454V39.3272C0.913574 39.709 1.29539 40.4727 1.67721 40.8545L7.78631 46.9636C8.54995 47.7272 9.31359 47.7272 10.0772 47.7272C10.8409 47.7272 11.6045 47.3454 12.3681 46.9636C13.5136 45.8181 13.5136 43.909 12.3681 42.7636L11.2227 41.9999H21.9136H24.9682V35.8909H21.5318Z" fill="#504136"/>
<path d="M31.458 21.0002L30.6944 19.8547L27.6398 16.8002L20.0034 9.16379H21.9125C23.4398 9.16379 24.9671 8.01833 24.9671 6.10924C24.9671 4.58196 23.8216 3.05469 21.9125 3.05469H12.7489C11.9852 3.43651 11.2216 3.43651 10.8398 3.81833L10.458 4.20014C10.0762 4.96378 9.69434 5.3456 9.69434 6.10924C9.69434 6.10924 9.69434 6.10924 9.69434 6.49106V15.2729C9.69434 16.0365 10.0762 16.8002 10.458 17.5638C11.2216 17.9456 11.9852 18.3274 12.7489 18.3274C14.2762 18.3274 15.8034 17.182 15.8034 15.2729V13.3638L23.4398 21.0002L27.6398 25.2002L31.458 21.0002Z" fill="#504136"/>
<path d="M24.5872 55.7458L23.0599 57.2731L15.4236 64.9095V63.0004C15.4236 61.4731 14.2781 59.9459 12.369 59.9459C11.6054 59.9459 10.8417 60.3277 10.0781 60.7095C9.69627 61.0913 9.31445 61.855 9.31445 63.0004V71.7822C9.31445 71.7822 9.31445 71.7822 9.31445 72.1641C9.31445 72.9277 9.69627 73.3095 10.0781 73.6913L10.4599 74.0732C10.8417 74.455 11.6054 74.8368 12.369 74.8368H21.1508C22.6781 74.8368 24.2054 73.6913 24.2054 71.7822C24.2054 70.255 23.0599 68.7277 21.1508 68.7277H20.0054L27.6418 61.0913L28.4054 60.3277L24.5872 55.7458Z" fill="#504136"/>
<path d="M95.9872 38.9454C95.9872 38.1818 95.6054 37.4181 95.2236 37.0363L89.1145 30.9272C87.969 29.7818 86.0599 29.7818 84.9145 30.9272C83.769 32.0727 83.769 33.9818 84.9145 35.1272L85.6781 35.8909H74.9872H72.3145V41.9999H75.369H86.0599L85.2963 42.7636C84.1508 43.909 84.1508 45.8181 85.2963 46.9636C86.0599 47.7272 86.8236 47.7272 87.5872 47.7272C88.3508 47.7272 89.1145 47.3454 89.8781 46.9636L95.2236 41.2363C95.6054 40.8545 95.9872 40.0909 95.9872 39.709C95.9872 39.3272 95.9872 38.9454 95.9872 38.9454Z" fill="#504136"/>
<path d="M69.2591 25.2002L73.4591 21.0002L81.0955 13.3638V15.2729C81.0955 16.8002 82.2409 18.3274 84.15 18.3274C84.9137 18.3274 85.6773 17.9456 86.4409 17.5638C86.8228 17.182 87.2046 16.4183 87.2046 15.2729V6.10924C87.2046 6.10924 87.2046 6.10924 87.2046 5.72742C87.2046 4.96378 86.8228 4.58196 86.4409 4.20014L86.0591 3.81833C85.6773 3.43651 84.9137 3.05469 84.15 3.05469H75.3682C73.8409 3.05469 72.3137 4.20014 72.3137 6.10924C72.3137 7.63651 73.4591 9.16379 75.3682 9.16379H77.2773L69.6409 16.8002L65.4409 21.0002V21.382L69.2591 25.2002Z" fill="#504136"/>
<path d="M69.2588 61.0909L76.8952 68.7273H74.9861C73.4588 68.7273 71.9315 69.8727 71.9315 71.7818C71.9315 73.3091 73.077 74.8364 74.9861 74.8364H83.7679C84.5315 74.8364 85.2952 74.4545 85.677 74.0727L86.0588 73.6909C86.4406 73.3091 86.4406 72.5455 86.8224 72.1636C86.8224 72.1636 86.8224 72.1636 86.8224 71.7818V63C86.8224 62.2363 86.4406 61.4727 86.0588 60.7091C85.677 60.3273 84.9134 59.9454 83.7679 59.9454C82.2406 59.9454 80.7134 61.0909 80.7134 63V64.9091L73.077 57.2727L69.2588 61.0909Z" fill="#504136"/>
<path d="M59.7139 24.8182C62.0048 22.1455 63.5321 18.7091 63.5321 14.8909C63.5321 6.49092 57.0412 0 48.6412 0C40.2411 0 33.7502 6.87274 33.7502 15.2727C33.7502 19.0909 35.2775 22.5273 37.5684 25.2C31.4593 30.1637 28.7866 36.6546 28.0229 48.1092C28.0229 53.0728 28.023 58.8001 34.5139 59.9455L37.1866 72.9274C38.7139 79.8001 43.6775 84.0001 49.023 84.0001C54.3684 84.0001 58.9503 79.8001 60.8594 72.5456L63.5321 59.9455C70.023 58.8001 70.023 53.0728 70.023 48.1092C68.4957 36.2728 65.4412 29.7819 59.7139 24.8182ZM48.6412 6.1091C53.6048 6.1091 57.423 9.92729 57.423 14.8909C57.423 19.8546 53.6048 23.6728 48.6412 23.6728C43.6775 23.6728 39.8593 19.8546 39.8593 14.8909C39.4775 10.3091 43.6775 6.1091 48.6412 6.1091ZM57.423 56.1274L54.3684 71.0183C53.223 75.2183 50.9321 77.5092 48.2593 77.5092C45.5866 77.5092 43.2957 74.8365 42.1502 71.0183L39.0957 56.1274C38.7139 54.6001 37.5684 53.8364 36.0411 53.8364C32.9866 53.8364 32.9866 53.8364 32.9866 48.1092C33.7502 37.0364 36.423 32.8364 40.623 29.4C41.7684 29.4 41.7684 29.0182 41.7684 29.0182C41.7684 29.0182 41.7684 29.0182 42.1502 28.6364C42.9139 29.0182 43.2957 29.0182 44.0593 29.4L46.7321 33.2182L42.9139 43.1455L49.023 51.1637L55.1321 43.1455L51.3139 33.2182L53.9866 29.4C54.7503 29.0182 55.1321 29.0182 55.8957 28.6364C55.8957 28.6364 55.8957 28.6364 56.2775 29.0182C56.2775 29.4 56.6594 29.4 56.6594 29.4C60.8594 32.8364 63.5321 37.0364 64.2957 47.7273C64.2957 53.8364 64.2957 53.8364 61.2412 53.8364C58.9503 53.8364 57.8048 54.9819 57.423 56.1274Z" fill="#504136"/>
</svg>
