<svg width="79" height="78" viewBox="0 0 79 78" fill="none" xmlns="http://www.w3.org/2000/svg">
<path d="M74.2735 23.4C76.9744 21.0261 79 17.2957 79 13.2261C79 5.76522 73.2607 0 65.8333 0C58.406 0 52.6667 5.76522 52.6667 13.2261C52.6667 16.6174 54.0171 19.6696 56.0427 22.0435L39.5 31.5391L22.9573 22.0435C24.9829 19.6696 26.3333 16.6174 26.3333 13.2261C26.3333 5.76522 20.594 0 13.1667 0C5.73932 0 0 6.10435 0 13.5652C0 17.6348 1.68803 21.0261 4.7265 23.7391C1.35043 27.4696 1.01282 32.2174 0.337607 40.0174L0 42.7304C0 47.1391 0 51.5478 3.03846 52.9043L5.40171 69.5217C5.73932 80.3739 23.6325 80.3739 23.9701 69.5217L26.3333 52.9043C28.359 51.887 29.0342 49.1739 29.0342 46.1217L38.4872 50.5304C38.8248 50.5304 39.1624 50.8696 39.5 50.8696C39.8376 50.8696 40.1752 50.8696 40.5128 50.5304L49.9658 46.1217C49.9658 49.1739 50.641 51.887 52.6667 52.9043L55.0299 69.5217C55.0299 72.2348 56.0427 74.2696 58.0684 75.9652C59.7564 77.3217 61.7821 78 64.1453 78C68.5342 78 73.2607 75.287 73.2607 69.5217L75.6239 52.9043C78.6624 51.5478 78.6624 47.1391 78.6624 42.7304L78.3248 40.3565C77.9872 31.8783 77.6496 27.1304 74.2735 23.4ZM73.5983 13.5652C73.5983 17.9739 70.2222 21.3652 65.8333 21.3652C61.4444 21.3652 58.0684 17.9739 58.0684 13.5652C58.0684 9.15652 61.4444 5.76522 65.8333 5.76522C69.8846 5.42609 73.5983 9.15652 73.5983 13.5652ZM13.1667 5.42609C17.5556 5.42609 20.9316 8.81739 20.9316 13.2261C20.9316 17.6348 17.5556 21.0261 13.1667 21.0261C8.77778 21.0261 5.40171 17.6348 5.40171 13.2261C5.0641 9.15652 8.77778 5.42609 13.1667 5.42609ZM73.2607 47.8174C71.9103 47.8174 71.235 48.8348 70.8974 50.1913L68.1966 68.8435V69.1826C68.1966 72.2348 64.8205 72.5739 64.1453 72.5739C63.8077 72.5739 60.094 72.5739 60.094 69.1826V68.8435L57.3932 50.1913C57.3932 48.8348 56.0427 48.1565 55.0299 47.8174C54.6923 47.1391 54.6923 45.1043 54.6923 43.4087L67.859 37.3043V31.8783L38.8248 44.7652L9.7906 31.8783V37.3043L22.9573 43.4087C22.9573 45.1043 22.9573 46.8 22.6197 47.8174C21.2692 47.8174 20.594 48.8348 20.2564 50.1913L17.5556 68.8435V69.1826C17.5556 72.2348 14.1795 72.5739 13.5043 72.5739C13.1667 72.5739 9.45299 72.5739 9.45299 69.1826V68.8435L6.75214 50.1913C6.75214 48.8348 5.40171 48.1565 4.38889 47.8174C4.05128 46.8 4.05128 44.7652 4.05128 42.7304L4.38889 40.3565C6.07692 31.2 6.41453 28.487 9.45299 26.113C10.4658 26.4522 11.8162 26.7913 13.1667 26.7913C15.1923 26.7913 17.2179 26.4522 18.906 25.4348C18.906 25.4348 18.906 25.4348 19.2436 25.7739C18.906 25.7739 19.2436 26.113 19.5812 26.4522L38.1496 36.9652C38.8248 37.3043 39.8376 37.3043 40.8504 36.9652L59.4188 26.4522C59.7564 26.113 60.094 26.113 60.094 25.7739C60.094 25.7739 60.094 25.7739 60.4316 25.4348C61.782 26.113 63.8077 26.7913 65.4957 26.7913C66.8462 26.7913 67.859 26.4522 69.2094 26.113C72.2479 28.487 72.5855 31.2 73.2607 40.3565L73.5983 42.3913C73.5983 44.4261 73.5983 46.8 73.2607 47.8174Z" fill="#504136"/>
</svg>
