<?xml version="1.0" encoding="utf-8"?>
<!-- Generator: Adobe Illustrator 21.0.0, SVG Export Plug-In . SVG Version: 6.00 Build 0)  -->
<svg version="1.1" id="OBJECTS" xmlns="http://www.w3.org/2000/svg" xmlns:xlink="http://www.w3.org/1999/xlink" x="0px" y="0px"
	 viewBox="0 0 54.2 39.9" style="enable-background:new 0 0 54.2 39.9;" xml:space="preserve">
<style type="text/css">
	.st0{fill:#504136;}
</style>
<g id="XMLID_517_">
	<g id="XMLID_530_">
		<path id="XMLID_532_" class="st0" d="M53.9,13.8l-10-10c-0.4-0.4-1.1-0.4-1.5,0s-0.4,1.1,0,1.5l9.3,9.3L46.3,20
			c-0.2,0.2-0.4,0.2-0.6,0L34.9,9.2c-0.2-0.2-0.2-0.4,0-0.6L38.6,5c0.4-0.4,0.4-1.1,0-1.5s-1.1-0.4-1.5,0l-3.6,3.6
			C32.7,7.9,32.6,9,33,9.9l-1.2,1.2H23l-1.6-1.6c0.1-0.2,0.1-0.4,0.1-0.7c0-0.7-0.3-1.3-0.7-1.8l-3.5-3.5c-0.4-0.4-1.1-0.4-1.5,0
			s-0.4,1.1,0,1.5l3.5,3.5c0.1,0.1,0.1,0.2,0.1,0.3s0,0.2-0.1,0.3L19,9.5L8.6,20l0,0c-0.1,0.1-0.2,0.1-0.3,0.1S8.1,20.1,8,20
			l-5.4-5.4L12,5.1c0.4-0.4,0.4-1.1,0-1.5s-1.1-0.4-1.5,0L0.3,13.8c-0.4,0.4-0.4,1.1,0,1.5l6.2,6.2C7,22,7.6,22.2,8.3,22.2
			c0.3,0,0.6-0.1,0.9-0.2l3.5,3.5c-0.3,0.5-0.4,1.1-0.4,1.7c0,2,1.6,3.6,3.6,3.6l0,0l0,0c0,2,1.6,3.6,3.6,3.6l0,0
			c0,2,1.6,3.6,3.6,3.6c0.6,0,1.2-0.2,1.7-0.4l1.3,1.3c0.6,0.6,1.4,0.9,2.3,0.9s1.7-0.3,2.3-0.9c0.6-0.6,0.9-1.3,0.9-2.1
			c0.8,0,1.6-0.4,2.2-1c0.6-0.6,1-1.5,1-2.4l0,0c0.9-0.1,1.8-0.5,2.4-1.1c0.6-0.7,0.9-1.6,0.9-2.4c0.9,0,1.7-0.4,2.3-1
			c0.7-0.7,1-1.5,1-2.5c0-0.5-0.1-1.1-0.4-1.5l3.5-3.2c0.4,0.3,0.9,0.5,1.5,0.5c0.7,0,1.3-0.2,1.8-0.7l6.2-6.2
			C54.3,14.9,54.3,14.2,53.9,13.8L53.9,13.8z M15.9,28.7c-0.8,0-1.5-0.7-1.5-1.5s0.7-1.5,1.5-1.5c0.8,0,1.5,0.7,1.5,1.5
			S16.7,28.7,15.9,28.7L15.9,28.7z M20.6,31.8l-0.1,0.1c-0.3,0.2-0.6,0.4-1,0.4c-0.8,0-1.5-0.7-1.5-1.5s0.7-1.5,1.5-1.5
			S21,30,21,30.8C21,31.2,20.8,31.6,20.6,31.8L20.6,31.8z M24.2,35.5L24.2,35.5C24.2,35.5,24.1,35.5,24.2,35.5
			c-0.3,0.3-0.7,0.5-1.1,0.5c-0.8,0-1.5-0.7-1.5-1.5c0-0.4,0.1-0.7,0.4-1l0.1-0.1c0.3-0.2,0.6-0.4,1-0.4c0.8,0,1.5,0.7,1.5,1.5
			C24.6,34.9,24.4,35.2,24.2,35.5L24.2,35.5z M38.9,27.4c-0.3,0.3-0.6,0.4-0.9,0.4c-0.4,0-0.7-0.1-0.9-0.4l-2.2-2.2
			c-0.4-0.4-1.1-0.4-1.5,0s-0.4,1.1,0,1.5l2.2,2.2l0,0l0,0c0.5,0.5,0.6,1.4,0,2c-0.3,0.3-0.6,0.5-1,0.5s-0.8-0.1-1-0.4l-2.1-2
			c-0.4-0.4-1.1-0.4-1.5,0s-0.4,1.1,0,1.5l2.3,2.2c0.2,0.2,0.4,0.5,0.4,0.8s-0.1,0.6-0.3,0.8c-0.5,0.5-1.2,0.5-1.6,0l-1.1-1.1
			c-0.4-0.4-1.1-0.4-1.5,0c-0.2,0.2-0.3,0.5-0.3,0.7c0,0.3,0.1,0.5,0.3,0.7l1.1,1.1c0.2,0.2,0.3,0.5,0.3,0.8s-0.1,0.6-0.3,0.8
			c-0.2,0.2-0.5,0.3-0.8,0.3s-0.6-0.1-0.8-0.3L26.4,36c0.3-0.5,0.4-1.1,0.4-1.7c0-2-1.6-3.6-3.6-3.6l0,0c0-2-1.6-3.6-3.6-3.6l0,0
			l0,0c0-2-1.6-3.6-3.6-3.6c-0.6,0-1.2,0.2-1.7,0.4L11,20.6l9.4-9.4l1.6,1.6c0.2,0.2,0.5,0.3,0.7,0.3H24l-4.2,4.2
			c-0.6,0.6-1,1.5-1,2.4s0.4,1.8,1,2.4s1.5,1,2.4,1s1.8-0.4,2.4-1l3.5-3.5H32l6.9,6.8c0.3,0.3,0.4,0.6,0.4,1
			C39.3,26.8,39.1,27.2,38.9,27.4L38.9,27.4z M39.6,23.3l-6.5-6.4l0,0c-0.2-0.2-0.6-0.3-0.9-0.3l-4.6-0.1c-0.3,0-0.6,0.1-0.8,0.3
			l-3.9,3.9c-0.2,0.2-0.6,0.4-0.9,0.4s-0.7-0.1-0.9-0.4c-0.2-0.2-0.4-0.6-0.4-0.9s0.1-0.7,0.4-0.9l5.7-5.7h5.1
			c0.3,0,0.6-0.1,0.7-0.3l1.4-1.4l8.7,8.7L39.6,23.3z"/>
	</g>
	<path id="XMLID_527_" class="st0" d="M47.5,15c0,0.6-0.5,1.1-1.1,1.1s-1.1-0.5-1.1-1.1s0.5-1.1,1.1-1.1S47.5,14.4,47.5,15L47.5,15z
		"/>
	<path id="XMLID_524_" class="st0" d="M8.8,15.1c0,0.6-0.5,1.1-1.1,1.1s-1.1-0.5-1.1-1.1S7.1,14,7.7,14C8.3,14.1,8.8,14.5,8.8,15.1
		L8.8,15.1z"/>
	<path id="XMLID_521_" class="st0" d="M14.9,1.9c0,0.6-0.5,1.1-1.1,1.1s-1.1-0.5-1.1-1.1s0.5-1.1,1.1-1.1
		C14.5,0.9,14.9,1.3,14.9,1.9L14.9,1.9z"/>
	<path id="XMLID_518_" class="st0" d="M41.4,1.8c0,0.6-0.5,1.1-1.1,1.1s-1.1-0.5-1.1-1.1s0.5-1.1,1.1-1.1
		C40.9,0.8,41.4,1.2,41.4,1.8L41.4,1.8z"/>
</g>
</svg>
