<svg width="83" height="82" viewBox="0 0 83 82" fill="none" xmlns="http://www.w3.org/2000/svg">
<path d="M65.7083 10.25H17.2917C13.4717 10.25 10.375 13.3094 10.375 17.0833V64.9167C10.375 68.6906 13.4717 71.75 17.2917 71.75H65.7083C69.5283 71.75 72.625 68.6906 72.625 64.9167V17.0833C72.625 13.3094 69.5283 10.25 65.7083 10.25Z" stroke="#504136" stroke-width="5" stroke-linecap="round" stroke-linejoin="round"/>
<path d="M29.396 34.1667C32.261 34.1667 34.5835 31.8722 34.5835 29.0417C34.5835 26.2113 32.261 23.9167 29.396 23.9167C26.531 23.9167 24.2085 26.2113 24.2085 29.0417C24.2085 31.8722 26.531 34.1667 29.396 34.1667Z" stroke="#504136" stroke-width="5" stroke-linecap="round" stroke-linejoin="round"/>
<path d="M72.6248 51.2501L55.3332 34.1667L17.2915 71.7501" stroke="#504136" stroke-width="5" stroke-linecap="round" stroke-linejoin="round"/>
</svg>
