<svg width="87" height="85" viewBox="0 0 87 85" fill="none" xmlns="http://www.w3.org/2000/svg">
<path d="M84.0256 38.1938V35.9471C83.2821 25.837 80.6795 23.5903 76.2179 19.8458L75.4744 19.0969C77.3333 17.2247 78.4487 14.2291 78.4487 11.6079C78.4487 5.24229 73.2436 0 66.9231 0C60.6026 0 55.3974 5.24229 55.3974 11.6079C55.3974 14.6035 56.5128 17.2247 58.3718 19.0969L57.6282 19.8458C53.1667 23.2159 50.5641 25.837 49.8205 35.9471V38.1938H39.0385C37.5513 33.7004 35.3205 30.3304 31.6026 27.3348C33.8333 24.7137 35.3205 21.3436 35.3205 17.5991C35.3205 9.36123 29 2.99559 20.8205 2.99559C12.2692 2.99559 5.57692 9.73568 5.57692 17.5991C5.57692 21.3436 7.0641 24.7137 9.29487 27.3348C3.34615 32.2026 0.74359 38.5683 0 49.8018C0 54.6696 -4.43214e-07 60.2863 6.32051 61.4097L8.92308 74.141C10.4103 80.8811 15.2436 85 20.4487 85C25.6538 85 30.1154 80.8811 31.9744 73.7665L34.5769 61.4097C40.5256 60.2863 40.5256 54.6696 40.5256 49.4273C40.5256 47.5551 40.1538 45.6828 39.7821 43.8106H84.0256C85.5128 43.8106 87 42.6872 87 40.815C86.6282 39.6916 85.5128 38.1938 84.0256 38.1938ZM29 58.0396L26.0256 72.6432C24.9103 76.7621 22.6795 79.0088 20.0769 79.0088C17.4744 79.0088 15.2436 76.3877 14.1282 72.6432L11.1538 58.0396C10.7821 56.5418 9.66667 55.7929 8.17949 55.7929C5.20513 55.7929 5.20513 55.793 5.20513 50.1762C5.94872 39.3172 8.55128 35.1982 12.641 31.8282C13.0128 31.8282 13.0128 31.4537 13.0128 31.4537C14.5 29.207 17.1026 26.9604 19.3333 26.9604C21.5641 26.9604 24.1667 29.5815 25.6538 31.4537C25.6538 31.8282 26.0256 31.8282 26.0256 31.8282C30.1154 35.1982 32.7179 39.3172 33.4615 49.8018C33.4615 55.793 33.4615 55.7929 30.4872 55.7929C30.4872 55.7929 29 56.5418 29 58.0396ZM20.0769 8.98678C24.9103 8.98678 28.6282 12.7313 28.6282 17.5991C28.6282 19.8458 27.8846 21.7181 26.7692 23.2159C22.3077 19.8458 17.8462 19.8458 13.3846 23.2159C12.2692 21.7181 11.5256 19.8458 11.5256 17.5991C11.5256 12.7313 15.2436 8.98678 20.0769 8.98678ZM66.5513 5.99119C69.8974 5.99119 72.5 8.61233 72.5 11.9824C72.5 15.3524 69.8974 17.9736 66.5513 17.9736C63.2051 17.9736 60.6026 15.3524 60.6026 11.9824C60.6026 8.61233 63.2051 5.99119 66.5513 5.99119ZM54.6538 38.1938V36.696C55.3974 28.8326 57.2564 27.3348 60.6026 24.7137L62.4615 23.2159L65.0641 26.9604L60.9744 38.1938H54.6538ZM68.0385 26.9604L70.641 23.2159L72.5 24.7137C75.8462 27.3348 77.7051 28.8326 78.0769 36.696V38.1938H72.1282L68.0385 26.9604ZM43.5 46.8062H81.0513V49.8018H43.5V46.8062Z" fill="#504136"/>
</svg>
