<svg width="94" height="94" viewBox="0 0 94 94" fill="none" xmlns="http://www.w3.org/2000/svg">
<path d="M69.0938 52.0312H66.75V45.7812C66.7493 45.1599 66.5021 44.5641 66.0628 44.1247C65.6234 43.6854 65.0276 43.4382 64.4062 43.4375H49.5625V37.1875H52.6875C53.3089 37.1868 53.9046 36.9396 54.344 36.5002C54.7834 36.0609 55.0305 35.4651 55.0312 34.8438V27.8125C55.0305 27.1911 54.7834 26.5954 54.344 26.156C53.9046 25.7166 53.3089 25.4695 52.6875 25.4688H43.3125C42.6911 25.4695 42.0954 25.7166 41.656 26.156C41.2166 26.5954 40.9695 27.1911 40.9688 27.8125V34.8438C40.9695 35.4651 41.2166 36.0609 41.656 36.5002C42.0954 36.9396 42.6911 37.1868 43.3125 37.1875H46.4375V43.4375H31.5938C30.9724 43.4382 30.3766 43.6854 29.9372 44.1247C29.4979 44.5641 29.2507 45.1599 29.25 45.7812V52.0312H26.9062C26.2849 52.032 25.6891 52.2791 25.2498 52.7185C24.8104 53.1579 24.5632 53.7536 24.5625 54.375V61.4062C24.5632 62.0276 24.8104 62.6234 25.2498 63.0627C25.6891 63.5021 26.2849 63.7493 26.9062 63.75H34.7188C35.3401 63.7493 35.9359 63.5021 36.3752 63.0627C36.8146 62.6234 37.0618 62.0276 37.0625 61.4062V54.375C37.0618 53.7536 36.8146 53.1579 36.3752 52.7185C35.9359 52.2791 35.3401 52.032 34.7188 52.0312H32.375V46.5625H46.4375V52.0312H44.0938C43.4724 52.032 42.8766 52.2791 42.4373 52.7185C41.9979 53.1579 41.7507 53.7536 41.75 54.375V61.4062C41.7507 62.0276 41.9979 62.6234 42.4373 63.0627C42.8766 63.5021 43.4724 63.7493 44.0938 63.75H51.9062C52.5276 63.7493 53.1234 63.5021 53.5627 63.0627C54.0021 62.6234 54.2493 62.0276 54.25 61.4062V54.375C54.2493 53.7536 54.0021 53.1579 53.5627 52.7185C53.1234 52.2791 52.5276 52.032 51.9062 52.0312H49.5625V46.5625H63.625V52.0312H61.2812C60.6599 52.032 60.0641 52.2791 59.6248 52.7185C59.1854 53.1579 58.9382 53.7536 58.9375 54.375V61.4062C58.9382 62.0276 59.1854 62.6234 59.6248 63.0627C60.0641 63.5021 60.6599 63.7493 61.2812 63.75H69.0938C69.7151 63.7493 70.3109 63.5021 70.7502 63.0627C71.1896 62.6234 71.4368 62.0276 71.4375 61.4062V54.375C71.4368 53.7536 71.1896 53.1579 70.7502 52.7185C70.3109 52.2791 69.7151 52.032 69.0938 52.0312ZM44.0938 28.5938H51.9062V34.0625H44.0938V28.5938ZM33.9375 55.1562V60.625H27.6875V55.1562H33.9375ZM51.125 55.1562V60.625H44.875V55.1562H51.125ZM68.3125 60.625H62.0625V55.1562H68.3125V60.625Z" fill="#504136"/>
<rect x="2" y="2" width="90" height="90" rx="45" stroke="#504136" stroke-width="4"/>
</svg>
