<svg width="1334" height="29" viewBox="0 0 1334 29" fill="none" xmlns="http://www.w3.org/2000/svg">
<path d="M1334 21.6875V28.3351L1333.5 28.9998H1328.91L1334 21.6875Z" fill="#FCF149"/>
<path d="M1334 2.16064L1315.32 29.0002H1319.91L1334 8.80821" fill="#FCF149"/>
<path d="M1301.65 29L1321.91 0H1326.5L1306.32 29H1301.65Z" fill="#FCF149"/>
<path d="M1288.06 29L1308.32 0H1312.91L1292.65 29H1288.06Z" fill="#FCF149"/>
<path d="M1274.47 29L1294.65 0H1299.32L1279.06 29H1274.47Z" fill="#FCF149"/>
<path d="M1260.8 29L1281.06 0H1285.73L1265.47 29H1260.8Z" fill="#FCF149"/>
<path d="M1247.21 29L1267.47 0H1272.05L1251.88 29H1247.21Z" fill="#FCF149"/>
<path d="M1233.62 29L1253.88 0H1258.46L1238.2 29H1233.62Z" fill="#FCF149"/>
<path d="M1220.03 29L1240.2 0H1244.87L1224.61 29H1220.03Z" fill="#FCF149"/>
<path d="M1206.35 29L1226.61 0H1231.28L1211.02 29H1206.35Z" fill="#FCF149"/>
<path d="M1192.76 29L1213.02 0H1217.61L1197.35 29H1192.76Z" fill="#FCF149"/>
<path d="M1179.17 29L1199.35 0H1204.02L1183.76 29H1179.17Z" fill="#FCF149"/>
<path d="M1165.5 29L1185.76 0H1190.43L1170.17 29H1165.5Z" fill="#FCF149"/>
<path d="M1151.91 29L1172.17 0H1176.75L1156.58 29H1151.91Z" fill="#FCF149"/>
<path d="M1138.32 29L1158.58 0H1163.16L1142.9 29H1138.32Z" fill="#FCF149"/>
<path d="M1124.73 29L1144.91 0H1149.57L1129.31 29H1124.73Z" fill="#FCF149"/>
<path d="M1111.06 29L1131.32 0H1135.98L1115.72 29H1111.06Z" fill="#FCF149"/>
<path d="M1097.46 29L1117.72 0H1122.31L1102.13 29H1097.46Z" fill="#FCF149"/>
<path d="M1083.88 29L1104.05 0H1108.72L1088.46 29H1083.88Z" fill="#FCF149"/>
<path d="M1070.2 29L1090.46 0H1095.13L1074.87 29H1070.2Z" fill="#FCF149"/>
<path d="M1056.61 29L1076.87 0H1081.46L1061.28 29H1056.61Z" fill="#FCF149"/>
<path d="M1043.02 29L1063.28 0H1067.87L1047.61 29H1043.02Z" fill="#FCF149"/>
<path d="M1029.43 29L1049.61 0H1054.28L1034.02 29H1029.43Z" fill="#FCF149"/>
<path d="M1015.76 29L1036.02 0H1040.69L1020.43 29H1015.76Z" fill="#FCF149"/>
<path d="M1002.17 29L1022.43 0H1027.01L1006.84 29H1002.17Z" fill="#FCF149"/>
<path d="M988.577 29L1008.84 0H1013.42L993.163 29H988.577Z" fill="#FCF149"/>
<path d="M974.987 29L995.164 0H999.833L979.573 29H974.987Z" fill="#FCF149"/>
<path d="M961.313 29L981.574 0H986.243L965.982 29H961.313Z" fill="#FCF149"/>
<path d="M947.724 29L967.984 0H972.569L952.309 29H947.724Z" fill="#FCF149"/>
<path d="M934.134 29L954.311 0H958.98L938.719 29H934.134Z" fill="#FCF149"/>
<path d="M920.46 29L940.72 0H945.389L925.129 29H920.46Z" fill="#FCF149"/>
<path d="M906.87 29L927.13 0H931.716L911.539 29H906.87Z" fill="#FCF149"/>
<path d="M893.28 29L913.54 0H918.125L897.865 29H893.28Z" fill="#FCF149"/>
<path d="M879.689 29L899.866 0H904.535L884.275 29H879.689Z" fill="#FCF149"/>
<path d="M866.016 29L886.276 0H890.945L870.685 29H866.016Z" fill="#FCF149"/>
<path d="M852.426 29L872.686 0H877.271L857.095 29H852.426Z" fill="#FCF149"/>
<path d="M838.836 29L859.013 0H863.682L843.422 29H838.836Z" fill="#FCF149"/>
<path d="M825.163 29L845.423 0H850.092L829.832 29H825.163Z" fill="#FCF149"/>
<path d="M811.572 29L831.832 0H836.418L816.241 29H811.572Z" fill="#FCF149"/>
<path d="M797.982 29L818.242 0H822.828L802.568 29H797.982Z" fill="#FCF149"/>
<path d="M784.392 29L804.569 0H809.238L788.978 29H784.392Z" fill="#FCF149"/>
<path d="M770.719 29L790.979 0H795.648L775.388 29H770.719Z" fill="#FCF149"/>
<path d="M757.128 29L777.389 0H781.974L761.797 29H757.128Z" fill="#FCF149"/>
<path d="M743.538 29L763.798 0H768.384L748.124 29H743.538Z" fill="#FCF149"/>
<path d="M729.865 29L750.125 0H754.794L734.534 29H729.865Z" fill="#FCF149"/>
<path d="M716.274 29L736.535 0H741.12L720.943 29H716.274Z" fill="#FCF149"/>
<path d="M702.685 29L722.945 0H727.53L707.27 29H702.685Z" fill="#FCF149"/>
<path d="M689.094 29L709.271 0H713.94L693.68 29H689.094Z" fill="#FCF149"/>
<path d="M675.421 29L695.681 0H700.35L680.09 29H675.421Z" fill="#FCF149"/>
<path d="M661.831 29L682.091 0H686.676L666.5 29H661.831Z" fill="#FCF149"/>
<path d="M648.241 29L668.501 0H673.086L652.826 29H648.241Z" fill="#FCF149"/>
<path d="M634.65 29L654.827 0H659.496L639.236 29H634.65Z" fill="#FCF149"/>
<path d="M620.977 29L641.237 0H645.906L625.646 29H620.977Z" fill="#FCF149"/>
<path d="M607.387 29L627.647 0H632.232L612.056 29H607.387Z" fill="#FCF149"/>
<path d="M593.797 29L613.974 0H618.643L598.383 29H593.797Z" fill="#FCF149"/>
<path d="M580.123 29L600.383 0H605.052L584.792 29H580.123Z" fill="#FCF149"/>
<path d="M566.533 29L586.793 0H591.379L571.202 29H566.533Z" fill="#FCF149"/>
<path d="M552.943 29L573.203 0H577.789L557.529 29H552.943Z" fill="#FCF149"/>
<path d="M539.353 29L559.53 0H564.199L543.939 29H539.353Z" fill="#FCF149"/>
<path d="M525.679 29L545.939 0H550.608L530.348 29H525.679Z" fill="#FCF149"/>
<path d="M512.089 29L532.349 0H536.935L516.758 29H512.089Z" fill="#FCF149"/>
<path d="M498.499 29L518.759 0H523.345L503.085 29H498.499Z" fill="#FCF149"/>
<path d="M484.826 29L505.086 0H509.755L489.495 29H484.826Z" fill="#FCF149"/>
<path d="M471.235 29L491.495 0H496.081L475.904 29H471.235Z" fill="#FCF149"/>
<path d="M457.646 29L477.906 0H482.491L462.231 29H457.646Z" fill="#FCF149"/>
<path d="M444.055 29L464.232 0H468.901L448.641 29H444.055Z" fill="#FCF149"/>
<path d="M430.382 29L450.642 0H455.311L435.051 29H430.382Z" fill="#FCF149"/>
<path d="M416.792 29L437.052 0H441.637L421.461 29H416.792Z" fill="#FCF149"/>
<path d="M403.202 29L423.462 0H428.047L407.787 29H403.202Z" fill="#FCF149"/>
<path d="M389.611 29L409.788 0H414.457L394.197 29H389.611Z" fill="#FCF149"/>
<path d="M375.938 29L396.198 0H400.867L380.607 29H375.938Z" fill="#FCF149"/>
<path d="M362.348 29L382.608 0H387.193L367.017 29H362.348Z" fill="#FCF149"/>
<path d="M348.758 29L368.935 0H373.604L353.343 29H348.758Z" fill="#FCF149"/>
<path d="M335.084 29L355.344 0H360.013L339.753 29H335.084Z" fill="#FCF149"/>
<path d="M321.494 29L341.754 0H346.34L326.163 29H321.494Z" fill="#FCF149"/>
<path d="M307.904 29L328.164 0H332.75L312.489 29H307.904Z" fill="#FCF149"/>
<path d="M294.314 29L314.491 0H319.16L298.9 29H294.314Z" fill="#FCF149"/>
<path d="M280.64 29L300.9 0H305.569L285.309 29H280.64Z" fill="#FCF149"/>
<path d="M267.05 29L287.31 0H291.896L271.719 29H267.05Z" fill="#FCF149"/>
<path d="M253.46 29L273.72 0H278.306L258.046 29H253.46Z" fill="#FCF149"/>
<path d="M239.787 29L260.047 0H264.716L244.456 29H239.787Z" fill="#FCF149"/>
<path d="M226.196 29L246.456 0H251.042L230.865 29H226.196Z" fill="#FCF149"/>
<path d="M212.606 29L232.867 0H237.452L217.192 29H212.606Z" fill="#FCF149"/>
<path d="M199.016 29L219.193 0H223.862L203.602 29H199.016Z" fill="#FCF149"/>
<path d="M185.343 29L205.603 0H210.272L190.012 29H185.343Z" fill="#FCF149"/>
<path d="M171.752 29L192.013 0H196.598L176.421 29H171.752Z" fill="#FCF149"/>
<path d="M158.163 29L178.423 0H183.008L162.748 29H158.163Z" fill="#FCF149"/>
<path d="M144.572 29L164.749 0H169.418L149.158 29H144.572Z" fill="#FCF149"/>
<path d="M130.899 29L151.159 0H155.828L135.568 29H130.899Z" fill="#FCF149"/>
<path d="M117.309 29L137.569 0H142.154L121.978 29H117.309Z" fill="#FCF149"/>
<path d="M103.719 29L123.895 0H128.564L108.304 29H103.719Z" fill="#FCF149"/>
<path d="M90.0449 29L110.305 0H114.974L94.7139 29H90.0449Z" fill="#FCF149"/>
<path d="M76.4551 29L96.7152 0H101.301L81.1241 29H76.4551Z" fill="#FCF149"/>
<path d="M62.8647 29L83.1249 0H87.7105L67.4504 29H62.8647Z" fill="#FCF149"/>
<path d="M49.2744 29L69.4512 0H74.1202L53.86 29H49.2744Z" fill="#FCF149"/>
<path d="M35.6011 29L55.8612 0H60.5302L40.2701 29H35.6011Z" fill="#FCF149"/>
<path d="M22.0112 29L42.2714 0H46.857L26.6802 29H22.0112Z" fill="#FCF149"/>
<path d="M8.4209 29L28.5976 0H33.2667L13.0065 29H8.4209Z" fill="#FCF149"/>
<path d="M19.6765 0L0 28.1691V21.5215L15.0075 0H19.6765Z" fill="#FCF149"/>
<path d="M6.08638 0L0 8.64183V1.99427L1.41738 0H6.08638Z" fill="#FCF149"/>
</svg>
