<svg width="84" height="84" viewBox="0 0 84 84" fill="none" xmlns="http://www.w3.org/2000/svg">
<g clip-path="url(#clip0_307_1593)">
<rect x="28" y="10" width="49" height="39" rx="8" fill="#F9EF42"/>
<path d="M76.6286 36.1163L76.4757 56.6718L58.7507 46.2617L76.6286 36.1163Z" fill="#F9EF42"/>
<path d="M53.6665 60.6666C53.6665 61.2855 53.4207 61.879 52.9831 62.3165C52.5455 62.7541 51.952 63 51.3332 63H18.6665C18.1532 63 17.6632 63.4666 17.2432 63.77L9.33317 70V32.6666C9.33317 32.0478 9.579 31.4543 10.0166 31.0167C10.4542 30.5791 11.0477 30.3333 11.6665 30.3333H20.6732V25.6666H11.6665C9.80999 25.6666 8.02951 26.4041 6.71676 27.7169C5.404 29.0296 4.6665 30.8101 4.6665 32.6666V74.6666C4.66998 75.1 4.79406 75.5238 5.02485 75.8906C5.25564 76.2574 5.58401 76.5526 5.97317 76.7433C6.34809 76.9138 6.76146 76.982 7.17128 76.941C7.5811 76.9001 7.97277 76.7513 8.3065 76.51L20.3232 67.6666H51.6832C52.5675 67.6928 53.4478 67.5371 54.2696 67.2092C55.0913 66.8813 55.837 66.3882 56.4604 65.7604C57.0838 65.1326 57.5717 64.3835 57.8938 63.5595C58.216 62.7355 58.3655 61.8541 58.3332 60.97V58.3333H53.6665V60.6666Z" fill="#504136"/>
<path d="M72.3332 9.33337H32.6665C30.81 9.33337 29.0295 10.0709 27.7168 11.3836C26.404 12.6964 25.6665 14.4769 25.6665 16.3334V44.3334C25.6665 46.1899 26.404 47.9704 27.7168 49.2831C29.0295 50.5959 30.81 51.3334 32.6665 51.3334H64.2832L75.4365 59.99C75.7681 60.2352 76.1587 60.3881 76.5685 60.4332C76.9784 60.4783 77.3929 60.4139 77.7698 60.2467C78.1669 60.0576 78.5024 59.7601 78.7378 59.3886C78.9731 59.017 79.0986 58.5865 79.0998 58.1467V16.3334C79.1009 14.5166 78.3955 12.7706 77.1328 11.4643C75.8701 10.1581 74.149 9.39393 72.3332 9.33337V9.33337ZM74.6665 53.5267L66.4998 47.1567C66.0926 46.8406 65.5921 46.6683 65.0765 46.6667H32.6665C32.0477 46.6667 31.4542 46.4209 31.0166 45.9833C30.579 45.5457 30.3332 44.9522 30.3332 44.3334V16.3334C30.3332 15.7145 30.579 15.121 31.0166 14.6835C31.4542 14.2459 32.0477 14 32.6665 14H72.3332C72.9569 14.0566 73.5384 14.3394 73.9682 14.7949C74.3979 15.2505 74.6463 15.8474 74.6665 16.4734V53.5267Z" fill="#504136"/>
</g>
<defs>
<clipPath id="clip0_307_1593">
<rect width="84" height="84" fill="white"/>
</clipPath>
</defs>
</svg>
