<svg width="74" height="74" viewBox="0 0 74 74" fill="none" xmlns="http://www.w3.org/2000/svg">
<path d="M21.5832 67.8334H12.3332C10.6977 67.8334 9.12915 67.1837 7.97268 66.0272C6.8162 64.8708 6.1665 63.3022 6.1665 61.6667V40.0834C6.1665 38.4479 6.8162 36.8794 7.97268 35.7229C9.12915 34.5664 10.6977 33.9167 12.3332 33.9167H21.5832M43.1665 27.7501V15.4167C43.1665 12.9635 42.192 10.6107 40.4572 8.87601C38.7225 7.1413 36.3698 6.16675 33.9165 6.16675L21.5832 33.9167V67.8334H56.3632C57.8503 67.8502 59.2935 67.329 60.4267 66.3658C61.5599 65.4025 62.3068 64.0622 62.5298 62.5917L66.7848 34.8417C66.919 33.9579 66.8594 33.0555 66.6101 32.197C66.3609 31.3385 65.928 30.5445 65.3414 29.8699C64.7548 29.1953 64.0286 28.6564 63.213 28.2903C62.3974 27.9243 61.5121 27.74 60.6182 27.7501H43.1665Z" stroke="#504136" stroke-width="5" stroke-linecap="round" stroke-linejoin="round"/>
</svg>
