<svg width="90" height="88" viewBox="0 0 90 88" fill="none" xmlns="http://www.w3.org/2000/svg">
<path d="M41.8257 52.6496L29.1286 47.3846V43.6239H49.6681C54.5228 43.6239 56.7635 39.8632 56.7635 36.4786C56.7635 33.094 54.5228 29.3333 49.6681 29.3333L30.6224 24.8205C33.2365 22.188 34.7303 18.4274 34.7303 14.6667C34.7303 6.39316 28.3817 0 20.166 0C12.3237 0 5.60166 6.39316 5.60166 14.6667C5.60166 17.6752 6.72199 20.6838 8.21577 23.3162C8.21577 23.3162 7.84232 24.0684 7.84232 24.4444C4.85477 30.4615 0 39.4872 0 49.641C0 60.1709 7.09544 67.3162 17.5519 67.3162H20.9129L23.527 79.7265C24.6473 84.6154 29.1286 88 33.61 88C33.9834 88 34.3568 88 34.7303 88C38.8382 87.6239 43.6929 84.2393 43.6929 75.9658V55.2821C43.6929 54.5299 42.9461 53.4017 41.8257 52.6496ZM20.166 5.64103C25.0207 5.64103 28.7552 9.40171 28.7552 14.2906C28.7552 19.1795 25.0207 22.9402 20.166 22.9402C15.3112 22.9402 11.5768 19.1795 11.5768 14.2906C11.5768 9.40171 15.3112 5.64103 20.166 5.64103ZM37.7178 75.9658C37.7178 79.3504 36.2241 81.6068 33.9834 81.9829C32.1162 82.359 29.5021 80.8547 28.7552 78.2222L25.7676 63.5556C25.3942 62.0513 24.2739 61.2991 22.7801 61.2991H17.5519C10.4564 61.2991 5.9751 56.7863 5.9751 49.641C5.9751 40.9915 10.083 33.094 13.0705 27.0769C15.3112 28.2051 17.9253 29.3333 20.5394 29.3333C21.2863 29.3333 22.0332 29.3333 22.4066 28.9573C22.4066 28.9573 22.4066 28.9573 22.7801 28.9573L48.9212 34.9744C49.2946 34.9744 49.2946 34.9744 49.6681 34.9744C50.7884 34.9744 51.1618 35.7265 51.1618 36.4786C51.1618 37.2308 50.7884 37.9829 49.6681 37.9829H14.5643C13.0705 37.9829 11.5768 39.1111 11.5768 40.9915C11.5768 42.8718 12.6971 44 14.5643 44H23.1535V50.0171C23.1535 51.1453 23.9004 52.2735 25.0207 52.6496L37.7178 57.9145V75.9658V75.9658ZM90 49.641C90 51.1453 88.8797 52.6496 87.0125 52.6496H84.0249V87.6239H78.0498V52.6496H57.5104V87.6239H51.5353V52.6496H48.5477C47.0539 52.6496 45.5602 51.5214 45.5602 49.641C45.5602 48.1368 46.6805 46.6325 48.5477 46.6325H60.8714C59.3776 46.6325 57.8838 45.5043 57.8838 43.6239C57.8838 42.1197 59.0042 40.6154 60.8714 40.6154H78.7967L81.4108 16.9231C81.4108 15.4188 82.9046 14.2906 84.7718 14.2906C86.2656 14.2906 87.3859 15.7949 87.3859 17.6752L84.3983 44V44.3761V44.7521C84.3983 45.1282 84.0249 45.1282 84.0249 45.1282C84.0249 45.1282 84.0249 45.5043 83.6515 45.5043C83.6515 45.5043 83.278 45.8803 82.9046 45.8803C82.9046 45.8803 82.5311 45.8803 82.5311 46.2564C82.1577 46.2564 81.7842 46.6325 81.4108 46.6325H87.3859C88.8797 46.6325 90 48.1368 90 49.641ZM72.8216 55.6581H75.8091V58.6667V88H72.8216V58.6667H60.8714V55.6581H72.8216V55.6581Z" fill="#504136"/>
</svg>
