<svg width="83" height="83" viewBox="0 0 83 83" fill="none" xmlns="http://www.w3.org/2000/svg">
<circle cx="29.5" cy="24.5" r="14.5" fill="#F9EF42"/>
<path d="M4 65C4 57.268 10.268 51 18 51H45C52.732 51 59 57.268 59 65V75H4V65Z" fill="#F9EF42"/>
<path d="M58.7918 72.625V65.7083C58.7918 62.0395 57.3344 58.5209 54.7401 55.9267C52.1459 53.3324 48.6273 51.875 44.9585 51.875H17.2918C13.623 51.875 10.1044 53.3324 7.51019 55.9267C4.91593 58.5209 3.4585 62.0395 3.4585 65.7083V72.625" stroke="#504136" stroke-width="5" stroke-linecap="round" stroke-linejoin="round"/>
<path d="M31.1248 38.0417C38.7648 38.0417 44.9582 31.8483 44.9582 24.2083C44.9582 16.5684 38.7648 10.375 31.1248 10.375C23.4849 10.375 17.2915 16.5684 17.2915 24.2083C17.2915 31.8483 23.4849 38.0417 31.1248 38.0417Z" stroke="#504136" stroke-width="5" stroke-linecap="round" stroke-linejoin="round"/>
<path d="M79.5415 72.625V65.7083C79.5392 62.6433 78.5191 59.6658 76.6412 57.2434C74.7634 54.821 72.1342 53.0908 69.1665 52.3246" stroke="#504136" stroke-width="5" stroke-linecap="round" stroke-linejoin="round"/>
<path d="M55.3335 10.8246C58.3091 11.5865 60.9465 13.317 62.8299 15.7434C64.7133 18.1698 65.7356 21.154 65.7356 24.2256C65.7356 27.2972 64.7133 30.2814 62.8299 32.7078C60.9465 35.1342 58.3091 36.8648 55.3335 37.6267" stroke="#504136" stroke-width="5" stroke-linecap="round" stroke-linejoin="round"/>
</svg>
