<?xml version="1.0" encoding="utf-8"?>
<!-- Generator: Adobe Illustrator 21.0.0, SVG Export Plug-In . SVG Version: 6.00 Build 0)  -->
<svg version="1.1" id="Capa_1" xmlns="http://www.w3.org/2000/svg" xmlns:xlink="http://www.w3.org/1999/xlink" x="0px" y="0px"
	 viewBox="0 0 187 75.5" style="enable-background:new 0 0 187 75.5;" xml:space="preserve">
<style type="text/css">
	.st0{fill:#FFFFFF;}
</style>
<g>
	<path class="st0" d="M35.8,72.7H10.3c-3.9,0-7-3.1-7-7V12c0-3.9,3.1-7,7-7s7,3.1,7,7v46.7h18.6c3.9,0,7,3.1,7,7
		C42.8,69.5,39.7,72.7,35.8,72.7z M62.5,65.5c0,3.9-3.1,7-7,7s-7-3.1-7-7V11.8c0-3.9,3.1-7,7-7s7,3.1,7,7V65.5z M125.8,65.5
		c0,3-2,5.7-4.8,6.7c-0.7,0.2-1.4,0.3-2.2,0.3c-2.2,0-4.3-1-5.7-2.9L87.9,34.9v30.6c0,3.9-3.1,7-7,7s-7-3.1-7-7V13.3
		c0-3,2-5.7,4.8-6.7c2.9-0.9,6,0.1,7.8,2.5l25.2,34.7V11.8c0-3.9,3.1-7,7-7s7,3.1,7,7V65.5z M176.8,71.4h-34.6c-3.9,0-7-3.1-7-7
		V37.5V10.7c0-3.9,3.1-7,7-7h33.6c3.9,0,7,3.1,7,7s-3.1,7-7,7h-26.6v12.8h21.6c3.9,0,7,3.1,7,7s-3.1,7-7,7h-21.6v12.8h27.6
		c3.9,0,7,3.1,7,7S180.7,71.4,176.8,71.4z"/>
</g>
</svg>
