<?xml version="1.0" encoding="utf-8"?>
<!-- Generator: Adobe Illustrator 21.0.0, SVG Export Plug-In . SVG Version: 6.00 Build 0)  -->
<svg version="1.1" id="圖層_1" xmlns="http://www.w3.org/2000/svg" xmlns:xlink="http://www.w3.org/1999/xlink" x="0px" y="0px"
	 viewBox="0 0 34.3 35.1" style="enable-background:new 0 0 34.3 35.1;" xml:space="preserve">
<style type="text/css">
	.st0{fill:#FFFFFF;}
</style>
<path class="st0" d="M33.6,15l-0.3-0.6L32.9,14c-0.6-0.5-3.7,0-4.5-0.7c-0.6-0.5-0.7-1.5-0.9-2.8c-0.3-2.6-0.5-2.7-0.9-3.5
	c-1.5-3.1-5.4-5.4-8.1-5.7h-7.3C5.4,1.2,0.6,5.9,0.6,11.7v5.1v7.1c0,5.7,4.7,10.4,10.5,10.4h12c5.8,0,10.4-4.7,10.5-10.4l0-6.9
	l0-1.5L33.6,15z M11.2,9.8h5.8c1.1,0,2,0.9,2,2c0,1.1-0.9,2-2,2h-5.8c-1.1,0-2-0.9-2-2C9.2,10.7,10.1,9.8,11.2,9.8z M23.1,25.7H11.2
	c-1.1,0-2-0.9-2-2c0-1.1,0.9-2,2-2h11.8c1.1,0,2,0.9,2,2C25,24.8,24.2,25.7,23.1,25.7z"/>
</svg>
