<?xml version="1.0" encoding="utf-8"?>
<!-- Generator: Adobe Illustrator 21.0.0, SVG Export Plug-In . SVG Version: 6.00 Build 0)  -->
<svg version="1.1" id="圖層_1" xmlns="http://www.w3.org/2000/svg" xmlns:xlink="http://www.w3.org/1999/xlink" x="0px" y="0px"
	 viewBox="0 0 257 243" style="enable-background:new 0 0 257 243;" xml:space="preserve">
<style type="text/css">
	.st0{fill-rule:evenodd;clip-rule:evenodd;fill:#79D5EA;}
</style>
<g>
	<path class="st0" d="M248.9,117c0-0.7,0-1.4,0-2.1c0-0.7,0-1.4,0-2.1c0-0.5,0-0.9,0-1.4c0-1.6,0-3.2,0.1-4.9c0-0.2,0-0.5,0-0.7l0,0
		c0-1.1-0.1-2.3-0.1-3.4c0.3-2.1-0.6-3.8-1.6-5.6c-0.4-0.5-0.8-1-1.2-1.4c-1-1.4-2.1-2.8-3.1-4.2c-0.7-1.6-1.5-3.3-2.2-4.9
		c0-0.2,0-0.4-0.1-0.7c-0.1-1,0.3-2.1-0.9-2.7c0-0.3,0-0.5,0.1-0.8c-0.2-0.7-0.5-1.4-0.7-2.1c0.1-0.5,0-1.1-0.5-1.4
		c-0.4-2-1.1-3.8-3-5c0-1-0.5-1.7-1.5-2.2c-0.4-0.4-0.8-0.8-1.2-1.2c-0.6-1.2-1.5-2.2-2.9-2.7c-1-1-2-1.9-3-2.9
		c-0.7-1.1-1.8-1.6-3-2.1c-0.5-0.7-1.4-1.1-2.3-1.4c-1.2-0.8-2.5-1.5-3.7-2.3c-0.3-0.2-0.5-0.4-0.8-0.5c0,0,0,0,0,0c0,0,0,0,0,0
		c0,0,0,0,0,0c0,0,0,0,0,0c0,0,0,0,0,0c0,0,0,0,0,0c-0.5-0.5-1-1-1.5-1.4c-0.7-0.8-1.5-1.5-2.2-2.3c-1.3-1.7-2.7-3.5-4-5.2
		c-0.6-0.7-1.2-1.4-1.9-2.2c0,0,0,0,0,0c-1.9-2.3-3.8-4.6-5.7-6.9c-1-1.4-1.9-2.8-2.9-4.2c-2.6-4.9-6.4-8.7-12.1-10.7
		c-1.9-1.2-3.9-2.1-6-2.6l0,0c-4.3-2.3-8.9-3.7-13.6-4.8c-2-0.9-3.9-1.8-6.1-2.1c0,0.1-0.1,0.2-0.1,0.2c0-0.1,0.1-0.2,0.1-0.2
		c-1.2-0.5-2.4-0.9-3.6-1.4c-1.4-0.8-3-1.4-4.7-1.4c0,0,0,0,0,0c-0.5-0.2-1-0.4-1.5-0.6c-2.3-0.9-4.6-0.9-7-0.1c0,0,0,0,0,0
		c-1.7-0.1-3.1,0.4-4.4,1.4c-1.2,0.5-2.5,1-3.7,1.5c-1.5,0.4-3.1,0.8-4.6,1.2c-2.6,0.3-5-0.8-7.4-1.4c-0.5-0.2-0.9-0.5-1.4-0.7
		c-0.5-0.7-1.1-1.5-1.6-2.2c-1.3-1.7-3.2-1.9-5.2-2.1c-1.8-0.7-3.6-1.1-5.5-1.1c-1.3,0.3-3.3-1.3-3.8,1.2c-0.5,0.3-0.9,0.7-1.4,1
		c0,0,0,0,0,0c0,0,0,0,0,0c-1.6,1-3.5,0.7-5.3,0.7c-1-0.1-2-0.1-3.1-0.2c-0.5-0.7-1.4-0.7-2.2-0.9c-2.7-2.1-5.5-0.9-8.3-0.3
		c-3.5,0.6-7,1.5-10,3.3c0,0,0,0,0,0c-1.7,0.4-3.2,0.9-4.4,2.1c-3.4,1.4-6.5,3.2-9.2,5.6c-0.9,0.7-1.9,1.4-2.8,2.1c0,0,0,0,0,0
		c-0.3,0.3-0.5,0.5-0.8,0.8v0l0,0c-1.5,0.7-2.3,2.1-3.2,3.3c-0.5,0.5-0.9,1-1.4,1.5c-2,2.5-4.1,5.1-6.1,7.6
		c-0.8,0.9-1.5,1.8-2.3,2.8c-2.6,2.6-4.8,5.4-6.8,8.4c-2.1,1.9-3.6,4.1-5.2,6.3c-0.9,0.8-1.2,1.7-1.4,2.9c-0.5,4.3,1.1,8.2,1.8,12.3
		c-0.1,0.5-0.1,1.1-0.3,1.6c-1.6,4.4-1.6,4.4-5.5,1.3c0,1.4,0,2.8,0,4.2c-0.2,0.7-0.4,1.4-0.6,2.1c-0.2,0.5-0.4,0.9-0.7,1.4
		c-0.2,0.4-0.3,0.9-0.5,1.3c-1.5,1.4-3,2.8-4.4,4.2c-0.2,0-0.4,0.1-0.6,0.1c-4,1.4-8.7,1.7-10.6,6.2l0,0c-0.8,0.5-0.8,1.2-0.9,2
		c-0.2,0.5-0.4,1-0.6,1.5c-0.7,1.1-0.1,2.6-1.5,3.5c0,0.2,0,0.5,0,0.7c0,3.5,0,7,0,10.4c0,0.5,0,0.9,0,1.4c0,0.9,0,1.9,0,2.8
		c1.6,1.4,0.2,3.5,1.4,5c0.3,2.1-0.3,4.2,0.8,6.2c-0.7,2.6,2.7,3.7,2.5,6.1c-0.2,1.2,0.1,2.2,1.3,2.9c0,0,0,0,0,0c0,0,0,0,0,0
		c0,0,0,0,0,0c0,0.2,0,0.4,0.1,0.6c-0.3,1.1,0.7,1.8,0.9,2.8c0,0.8-0.1,1.6,0.6,2.2c0.3,1.1,0.6,2.2,0.9,3.4c0,0.7-0.4,1.5,0.3,2.2
		c0.5,1.2-0.3,2.7,1,3.7c0,0.9-0.1,1.8,0.8,2.5c1.4,2.2,1.5,4.9,3.2,6.9c-0.3,1.1,0,2,0.7,2.8c0.8,1.8,0.7,4,2.2,5.5
		c0.2,1.1,0.5,2,1.4,2.8c0.3,1.2,0.6,2.5,1.5,3.5c0.3,0.9,0.7,1.8,1,2.7c0.4,1,0.8,2,1.3,2.9c0.2,0.5,0.4,0.9,0.6,1.4
		c0.2,1.3,0.7,2.5,1.6,3.5c0.2,0.4,0.4,0.9,0.6,1.3c0.6,2.1,1.7,3.9,3.3,5.5c0.4,1,1.1,1.8,2.1,2.3c0.3,0.8,0.8,1.5,1.7,1.8
		c0.4,0.7,1,1.3,2,1.6c0.6,0.4,1.1,0.9,1.7,1.3c2.7,2.4,5.9,4,9.1,5.7c2.4,1.7,1.4-1.3,2.5-1.5c0.9-0.7,1.9-1,3-0.7
		c2.1,0.6,2.8-0.4,2.9-2.1c-0.1-1.1,1.2-1.3,1.5-2.1c0.7-0.9,1.6-1.6,1.7-2.8c0.1-0.3,0.3-0.5,0.4-0.8c0.4-2.3,3.3-2.8,3.9-4.8
		c1-1.5,1.1-3.2,1.5-4.8c2.4,0.1,1.8,2.6,3.2,3.5c-0.1,2.4,0.8,4.6,1.7,6.8c0,0,0,0,0,0c0,1.9-3.2,3.3-1,5.6
		c0.4,0.7,0.7,1.5,1.1,2.2c0,0,0,0,0,0c0,0.2,0.1,0.4,0.3,0.6c0.3,2.4,0.7,4.7,3.7,5.6c0.2,0.2,0.4,0.5,0.6,0.7
		c0.4,1.6-1.7,1.5-2.1,2.5c2.3,0.8,4.4,1.6,6.8,1.7c0.5,0.4,1,0.9,1.4,1.3c3.5,2,6.9,1.7,10-0.7c-0.3,0.1-0.5,0.1-0.7,0
		c0.2,0,0.5,0,0.7,0c1.2,0.1,1.8-0.6,2.2-1.4c1.2-0.8,2.2-0.3,3,0.5c0.5,0.3,1,0.6,1.5,0.9c-0.5,0.7-0.5,1.3-0.2,2c0,0,0,0,0,0
		c-0.9,0.1-1.8,0.3-1.6,1.4c0.2,1.3,1.4,1.7,2.6,2c0,0,0,0,0,0c0.2,0.1,0.5,0.1,0.7,0.1c1,0.5,2,1,3,1.4c1.1,0.9,2.1,1.8,3.6,2.1
		c0.7,1.1,1.9,1.6,3.1,2.1c1.5,1,2.6,2.4,4.5,2.8c0,0,0,0,0,0c0.5,0.4,1.1,0.9,1.6,1.3c0.3-0.3,0.6-0.5,0.9-0.5
		c-0.3,0.1-0.6,0.3-0.9,0.5c2.9,2.3,6.1,4,9.8,4.8c0,0,0,0,0,0c0.2,0,0.5,0.1,0.7,0.1c3.7,2.3,7.9,2.3,12.1,2
		c4.8-0.4,9.5-1.3,14.1-2.5c0.1,0,0.3,0,0.5-0.1c2.6,0.1,5-0.7,7.4-1.6v0c0,0,0,0,0,0c3.3-1.8,6.6-3.6,9.9-5.4c0,0-0.1-0.1-0.1-0.1
		c0,0,0,0,0,0c0,0,0,0,0,0c0,0,0.1,0.1,0.1,0.1c2.6-0.9,5.1-1.8,7.7-2.7c0.2,0,0.4,0,0.6-0.1c0,0,0,0,0,0c0,0,0,0,0,0
		c1.7-0.1,3.2-0.5,4.7-1.3c0,0,0,0,0,0c1.3,0.1,2.5-0.2,3.6-0.8c2.9-0.7,5.8-1.4,8.5-2.7c0,0,0,0,0,0c0.7-0.3,1.4-0.5,2.1-0.8
		c3.1-0.5,5.3-2.4,7.6-4.1c1-0.7,2-1.4,3-2.1c1.4-0.8,2.9-1.5,3.9-2.7c0.3-0.2,0.5-0.4,0.8-0.6c1.3-0.3,2.2-1.1,2.9-2.2
		c1.3-0.7,2.3-1.6,2.9-2.9c0.9-0.5,0.9-1.3,0.8-2.1c0.1-1.7,1.4-2.8,2.1-4.2c0.3-0.9,0.5-1.8,0.8-2.7c0.3-0.7,0.5-1.4,0.8-2.1
		c0.5-0.5,1-1,1.5-1.5c1.5-0.4,2.7-1,2.2-2.7c0.2-0.9,0.8-1.9,0-2.8c0-0.5,0-0.9,0-1.4c1.6-1.7-0.8-2.7-0.7-4.2
		c0.3-0.7,1.1-1.4,0.1-2.2c-0.1-1.1-0.1-2.2-0.2-3.4c0.1-0.6,0.1-1.1-0.5-1.5c0-0.4-0.1-0.8-0.1-1.3c0.3-0.9,0.1-1.6-0.7-2.2
		c0-0.2-0.1-0.4-0.1-0.6c0.3-0.8,0.5-1.6-0.6-2.1c0.3-1.9-0.2-3.8-0.9-5.5c0-0.7,0-1.4-0.1-2.1c0.6-3.2,2.8,0.2,4-0.8
		c1.3,0.2,2.7,1.4,3.6-0.6c0.1-0.8-0.1-1.5-0.6-2.1c0-1,0.2-2-0.7-2.9c0,0,0,0,0,0c0,0,0,0,0,0c0,0,0,0,0,0c0,0,0,0,0,0c0,0,0,0,0,0
		c0,0,0,0,0,0c-0.1-0.4-0.2-0.9-0.2-1.3c-0.5-1.6-1-3.2-1.5-4.8c0-0.2,0-0.5,0-0.7c0-0.7,0-1.4,0-2.1c0.9-2.5,3.3-4.1,5-6.1
		c0.8-0.3,1.5-0.8,1.9-1.6c1.3-1,2.6-2,3.8-2.9c4-3,6.1-6.7,5.4-11.6C249.7,120,248.9,118.5,248.9,117z"/>
	<path class="st0" d="M217.2,58.5C217.2,58.5,217.2,58.5,217.2,58.5L217.2,58.5C217.2,58.5,217.2,58.5,217.2,58.5z"/>
	<path class="st0" d="M233.9,152.4C233.9,152.4,234,152.4,233.9,152.4L233.9,152.4C234,152.4,233.9,152.4,233.9,152.4z"/>
	<path class="st0" d="M46.9,126.8C46.9,126.8,46.9,126.8,46.9,126.8C46.9,126.8,46.9,126.8,46.9,126.8
		C46.9,126.8,46.9,126.8,46.9,126.8C46.9,126.8,46.9,126.8,46.9,126.8z"/>
	<ellipse transform="matrix(0.9033 -0.4291 0.4291 0.9033 -39.8564 48.9026)" class="st0" cx="88.5" cy="112.9" rx="0" ry="0"/>
</g>
</svg>
