<?xml version="1.0" encoding="utf-8"?>
<!-- Generator: Adobe Illustrator 21.0.0, SVG Export Plug-In . SVG Version: 6.00 Build 0)  -->
<svg version="1.1" id="圖層_1" xmlns="http://www.w3.org/2000/svg" xmlns:xlink="http://www.w3.org/1999/xlink" x="0px" y="0px"
	 viewBox="0 0 257 243" style="enable-background:new 0 0 257 243;" xml:space="preserve">
<style type="text/css">
	.st0{fill-rule:evenodd;clip-rule:evenodd;fill:#FCC2DF;}
</style>
<g>
	<path class="st0" d="M207.7,50.8c0.8,0.5,1.6,0.9,2.4,1.4c1.6,0.9,1.8-0.1,2-1c-0.1-2.2-1.9-2-3.4-2.2c-0.8-0.1-1.2-2.1-2.2-0.5
		C205.8,49.5,206.8,50.2,207.7,50.8z"/>
	<path class="st0" d="M248,120.7L248,120.7C248,120.7,248,120.7,248,120.7c0-0.4,0-0.7,0-1.1c1-0.8,0.4-1.4-0.2-2
		c0-0.3,0-0.5-0.1-0.8c-1.2-3-1.8-6.2-3.5-9.1c0.3-2.3-1-4.3-1.6-6.4c-0.8-2.3-1.9-4.5-4.2-6c-0.3-0.4-0.5-0.8-0.8-1.2c0,0,0,0,0,0
		c0,0,0,0,0,0c-0.5-0.5-0.9-1-1.4-1.5c0,0,0,0,0,0c-0.6-1.1-0.9-2.4-2.1-3.1c-0.1-0.6-0.1-1.2-0.2-1.9c0-0.2,0-0.4-0.2-0.6
		c0,0,0,0,0,0c0.1-0.6,0.2-1.3,0.2-1.9c0,0,0,0,0,0c0.2-0.2,0.4-0.4,0.7-0.6c3-0.2,3.3-1.9,2.7-4c0.3-1.3-0.9-1.6-1.9-2.1
		c-0.5-0.4-1-0.9-1.6-1.3c-0.3-0.2-0.5-0.3-0.8-0.5c-0.7-0.4-1.5-0.8-2.2-1.2c-2.2-0.2-4.4-0.7-6.5,0.6c0,0,0,0,0,0
		c-2.7,2.4-6,4.2-8.1,7.2c-1.5-1-1.8-2.7-2.7-4.1c0-2.1-0.7-3.9-1.7-5.8c-0.2-0.5-0.3-0.9-0.5-1.4c-1.2-3-2.4-6.1-3.7-9.1
		c-0.1-2.8-0.2-5.6-0.2-8.4c0,0,0,0,0,0c-0.9-0.9-1.9-1.8-2.8-2.8c0,0,0,0,0,0c-0.2-0.2-0.3-0.4-0.5-0.6c0,0,0,0,0,0
		c-2.6-1.4-3.8-4.3-6.8-5.3c-0.2-0.2-0.4-0.3-0.7-0.5c0,0,0,0,0,0c-1.4-1.1-2.8-2.3-4.2-3.4c-0.3-1.2-1.5-1.8-2.5-2.4
		c-0.2-0.7-0.6-1.1-1.3-1.4c-0.4-0.2-0.9-0.4-1.3-0.7c-1.7-2.2-4.5-3-6.7-4.5c-2.7-1.7-5.3-3.6-8.8-4c-1.2-2.3-3.6-2.1-5.8-2.1
		c0,0,0,0,0,0c-0.5-0.6-1.2-0.5-1.9-0.5c-1.5-1.9-4-2-6.1-2.8c-1.2-0.6-2.5-1.2-3.7-1.7c-3.1-0.8-6.2-1.1-9.1,0.2
		c-0.4,0.1-0.8,0.3-1.2,0.6c-1.7,1-3.4-0.2-5.1-0.1c-1.4,0-2.9,0-4.3,0.1c-0.3,0-0.5,0-0.8,0c-1.3,0-2.7-0.6-3.9,0.5c0,0,0,0,0,0
		c-1.4,0.3-2.7,0.5-4.1,0.8c-1.5-1.2-3.3-0.7-5-0.6c-1.5,0.2-2.9,0.4-4.4,0.6c-2.3-1-2.6,1.8-4.4,1.7c-0.2-0.2-0.5-0.4-0.7-0.6
		c-0.4-0.9-0.9-1.8-1.3-2.6c0,0,0,0,0,0c0.5-0.4,0.9-0.7,1.4-1.1c0,0,0,0,0,0c0.2-0.2,0.4-0.4,0.7-0.6c1.1-0.2,2.2-0.5,2.8-1.4
		c1.6-2.9,0.4-4.9-2.3-6.6l0,0c0,0,0,0,0,0c-0.2-0.4-0.4-0.8-0.7-1.2c-0.6-1-1.5-1.8-2.8-2.1c-1.2-1.2-2.8-1.2-4.4-1
		c-0.5,0-1,0-1.5,0c-1.9-0.2-3.6,0.1-5,1.3c0,0,0,0,0,0c0,0,0,0,0,0c-1.1,0.6-1.4,1.6-1.8,2.6c0,0,0,0,0,0c-0.1,0.2-0.3,0.4-0.4,0.5
		c0,0,0,0,0,0c0,0,0,0,0,0c-1,0.4-1.7,1.2-2.2,2.1c-0.4,0.7-0.9,1.3-1.3,2c-1.3,1.7-1.2,3.5-0.2,5.3c0.3,1.7,0.9,3.3,3,3.9
		c0.5,0.8,1.1,1.3,2.2,1.2v0c0.2,0,0.4,0.1,0.6,0.1c0.2,1.4-1.5,1.1-2.1,1.8c0,0,0,0,0,0c-1.2,0.2-2.4,0.5-3.6,0.7l0,0
		c-2-2.1-5.2-2.7-7.3-4.6c0,0,0,0,0,0c-0.7-0.7-1.5-1.3-2.2-2c-0.6-1-1.3-0.5-2-0.1c-1.1-1-2.1-2-3.9-1.9v0
		c-1.6-1.2-2.7-0.1-3.9,0.7c-0.2,0.2-0.4,0.4-0.7,0.6c0,0,0,0,0,0c0,0,0,0,0,0c-0.7,0.7-2.1,0.8-2,2.1c-0.6,1.6-2.2,3.1-0.1,4.7
		c1.1,1,1.9,2.3,3.7,2.5c1.2,0.5,2.2,1.8,3.7,0.6c0.2,0,0.5,0,0.7-0.1c1.7,0.4,3.4,0.9,5,1.3c1,0,2,0.2,2.9,0.7c0,0,0,0,0,0l0,0
		c0,0,0,0,0,0c-0.7,0.8-1.3,1.7-2,2.5c0,0,0,0,0,0c0,0,0,0,0,0c-1.5,0-2.3,0.7-2.5,2c-0.9,0.5-1.5,1.2-2,2c-0.3,0.4-0.6,0.8-0.9,1.2
		c-0.7,0.5-0.6,1.2-0.6,1.9c-1.2,0.5-2.4,0.9-3.6,1.4c-1,0.2-1.9,0.4-2.9,0.6c0,0,0,0,0,0c0.2-0.9,0.4-1.7,0.6-2.6
		c0.2-0.5,0.2-1.2,0.6-1.5c1.8-1.4,1.8-3.7,1.2-5c-0.7-1.5-3.2-2.1-5.4-1.7c-1.7-0.3-3.4-0.6-3.4,1.8c-0.1,0.2-0.1,0.4-0.2,0.6
		l0.1,0c0,0,0,0,0,0c0,0-0.1,0-0.1-0.1c-0.2,0.2-0.4,0.4-0.7,0.6c-2.5,1.7-4.9,3.4-7.4,5c0,0,0,0,0,0c-2.1,1-3.8,2.3-4.9,4.2
		c-2.2,1.5-3.8,3.4-4.6,5.7c-0.9,0.7-1.2,1.7-1.5,2.7c0,0,0,0,0,0c-0.6,0.3-0.6,0.8-0.5,1.3c-1.7,0.7-3.3,1.6-3.7,3.4
		c-0.2,0.2-0.5,0.4-0.7,0.6c-2.9,1.4-2.8,4.4-4.3,6.5c-0.5,0.4-1.4,0.4-1.4,1.3c0,0.4-0.1,0.8-0.1,1.2c-1.2,0.9-1.5,2.2-2.2,3.3
		c-0.8,0.7-1.5,1.5-1.4,2.6c-1.2,1.9-2.1,3.9-2.7,5.9c-0.6,1.5-1.7,2.8-1.7,4.5c-1.2,1.6-1.2,3.6-2,5.3c-0.3,1-0.6,2.1-0.9,3.1
		c-0.9,0.7-0.7,1.7-0.8,2.6l0,0c-1.1,2.8-1.6,5.6-1.3,8.5c-0.1,0.4-0.2,0.8-0.2,1.2c-0.6,0.2-0.7,0.7-0.7,1.2c-2.1,3.2-3,6.5-0.6,10
		c-0.1,1.1,1,1.7,1.5,2.6c-0.3,2.5,1,4.3,3,5.8c-1.1,1.2-2.3,0.9-3.4,0.1c-0.6-0.4-1.2-0.8-1.8,0c-0.5,0.9-1,1.7-1.5,2.6
		c-1,0.1-2.2-0.3-3,0.6c-0.2,0.2-0.4,0.5-0.7,0.7c-1,1.1-2,2.2-2.9,3.3c-0.6,0.2-0.7,0.7-0.8,1.2c0,0,0,0,0,0
		c-0.4,0.5-0.9,1-1.3,1.4c-0.2,1.3-4.5,2.6-0.1,4l0,0c0.5,0.2,1,0.4,1.5,0.6c1,0.5,2.1,1.8,3.1,0c0,0,0,0,0,0
		c0.7-0.2,1.4-0.5,2.1-0.7c2.2,0.6,4.4,1.3,6.5,0c0.7,0,1.4,0.1,2.1,0.1c0.1,0.2,0.1,0.4,0.2,0.6c0,0.7,0,1.3,0.1,2
		c0,0.4,0,0.9,0,1.3c-0.1,0.2-0.1,0.4-0.2,0.6c-1.4,1.3-0.1,2.6,0.1,4c0.9,1.7,1.1,3.5,1.4,5.2c0,0,0,0,0,0c0,0.2,0,0.4,0,0.6
		c0.1,1.1,0.1,2.3,0.2,3.4c-0.4,1.4,1.5,1.9,1.4,3.1c0.7,1.8,1.4,3.5,2.1,5.3c0,0.9,0,1.7,0,2.6c0,0.2,0,0.4,0,0.7
		c-0.1,0.5,0.1,1,0.6,1.3c0.6,1.2,0.3,2.8,2.1,3.4c1.3,1,2.8,1.4,4.5,1.1l0,0c2-0.2,3.1,0.6,3.5,2.3c0.2,1,0.5,1.9,1.6,2.4
		c0.3,0.6,0.6,1.3,0.9,1.9c0,0.7,0,1.3,0.1,2c0.8,1.3,1.7,2.5,3.6,2.6c1.1,1.4,2.2,2.4,3.9,0.6c0.1-0.2,0.3-0.4,0.4-0.6
		c2,0.2,3.9,0.3,5.9,0.5c1.9,0.7,2.6-0.5,3.1-1.8c0,0,0,0,0,0c1.7-1.2,1.5-3.5,3.5-4.6c0.2,0,0.5,0,0.7,0c3.2-1.3,4.6,0.5,5.9,2.6
		l0,0h0c-0.1,0.7-0.2,1.5,0.6,2c0,0,0,0,0,0c0.6,1.2,1.7,1.7,2.9,2.2c0,0,0,0,0,0c0.2,0.7,0.8,0.9,1.5,1c0,0.2,0.1,0.4,0.1,0.6
		c0.3,0.6,0.6,1.3,0.9,1.9l0,0c-2.8,0.7-4.9-1.3-7.5-1.3c-2.3-0.1-4.6-0.3-6,1.9c-0.8,0.6-1.7,1.1-2,2c-0.1,0.4-0.1,0.9-0.2,1.3
		c0,0,0,0,0,0c-0.3,0.1-0.6,0.2-0.9,0.4c0.3,0.1,0.6,0.3,0.9,0.4c-0.3,2,1.9,1.8,3,2.6c0,0,0,0,0,0c0.5,0.7,1.4,0.5,2.1,0.7
		c0.1,0.5,0.1,1,0.8,1.1l0,0c1.9,0.2,3.8,0.3,4.3-1.9c0,0,0,0,0,0c0.2-1.3-0.4-3.2,2.4-2.2c1,0.3,1.3-0.3,1.1-1.1
		c-0.5-1.9,0-2.6,2.5-3.3c1.1,0.5,2.3,1,3.4,1.5c0,0,0,0,0,0c0.3,0.5,0.9,0.6,1.5,0.6c1.2,1.2,2,2.7,3.7,3.4c0.5,0.2,1,0.4,1.5,0.6
		c0,0,0,0,0,0c-0.2,0.4-0.5,0.8-0.7,1.1c-0.5,0.2-0.9,0.5-1.4,0.7c-1.7-0.1-2.8,1.2-4.3,1.4c-1.1,0.4-2.4,0.6-3,1.8c0,0,0,0,0,0
		c-1.4,0.1-2.4,0.8-2.8,2c0,0.3-0.1,0.7-0.1,1.1c-1.8,0.3-1.9,1.6-2.2,2.9c-1.1,1.6-2.4,3.2-0.7,5.2c1.2,0,2.4,0,3.6,0
		c0.5,0,1,0,1.5,0c1.9,0.7,3.9,1.4,5.8,0.1l-0.1,0c2.5,0.3,3.5-1.8,5.3-2.6c0.2,0,0.5-0.1,0.7-0.2c1.2-0.9,3.2-0.8,3.7-2.5l0.3,0
		l0.3,0c3.1,1,5.1,3.2,7.3,5.2c-1.8,0.7-2.1,1.8-1.4,3.3c0.7,1,0.8,2.1,0.7,3.2c0,0,0,0,0,0c0,0,0,0,0,0c-0.1,0.1-0.2,0.2-0.2,0.3
		c0,0.1,0,0.3,0.1,0.3c1.3,0.4,2.1-0.5,3.1-1c3-1.5,4.4-4.1,5.7-6.7c0-0.7-0.2-1.6,0.8-2c3.6-0.2,6.7,0.7,9.4,2.8
		c1.3,1.5,2.6,3,4.5,0.6c0.7,0.4,1.4,0.8,2.1,1.3c1,0.6,1.9,0.1,2.8-0.1l0,0c0.8-0.4,1.5-0.8,2.3-1.2c0.5-0.3,0.9-0.5,1.4-0.8
		c0.8-0.4,1.6-0.8,2.3-1.1c1.4-0.1,2.8-0.1,4.2-0.2c3-0.8,7.2,0.1,7.5-4.4c0.2-0.4,0.4-0.8,0.7-1.1c3-2.7,5.6-2.9,7.1-0.3
		c0.3,1.5,0.6,3.1,0.9,4.6c-0.7,1.2-1.7,2.4,0.6,3.1c1,0.9,2.1,1.8,3.1,2.7c1.6,1.4,2.9,3.1,5,4c0,0,0,0,0,0c0,0,0,0,0,0
		c0.2,0.2,0.4,0.3,0.6,0.5c-1,0.4-0.9,1-0.3,1.5c1.3,0.9,2.6,1.8,3.9,2.6c0.1,0.2,0.2,0.4,0.3,0.6c0,0,0,0,0,0
		c1.8,1.8,3.6,3.7,5.5,5.5c0,0,0,0,0,0c1.5,1.3,2.9,2.7,5.3,2.5c0,0,0,0,0,0c0,0,0.3-0.1,0.3-0.1c0,0,0,0,0,0l0,0
		c2.5,1.6,3.8,1.3,4.5-1.2c0.5-1.7-0.4-2.9-1.5-4.1c0.2-1.6-0.3-3-0.7-4.5c0-0.9,0.8-1.9-0.6-2.6c-0.2-1.3,0.8-2.6-0.1-3.9
		c0.2-1,0.1-1.9-0.6-2.6c0-0.2,0-0.4,0-0.6c0-1.1,0-2.1-0.1-3.2c0-0.2,0-0.5,0-0.7c0.2-1.3,1.2-1.3,2.3-1.3c1.4,0.5,0.1,2.7,2.1,2.8
		c1,0.9,2.4,0.3,3.5,0.6c2.1,3.1,4,1,6.1-0.1c2.7-0.3,2.9-3.1,5.1-3.9c1.9-0.1,2.2-1.6,2.9-2.6c0.2-0.4,0.5-0.8,0.7-1.3
		c1.7-1.8,2.5-3.9,3.6-5.9c1.2-0.4,2.4-0.9,3.6-1.3c2.9-0.3,5.9,0.8,8.8-0.6c0.3,0,0.5-0.1,0.8-0.1c1.2-0.8,3.5-0.3,3.4-2.5
		c0.5,0,1.1,0,1.7,0c1.4-0.1,2.4-0.4,2.1-1.9c0,0,0,0,0,0c0,0,0-0.1,0-0.1c2.2-2.4,5.3-4.1,6.6-7.1c0.8-0.4,1.5-0.9,1.5-1.9
		c1.5-2,2.9-4.2,3.7-6.6c1.4-0.4,1.3-1.5,1.5-2.5c0.3-1.2,1.4-2.2,1.2-3.5c0.3-1.1,0.6-2.1,0.8-3.2c2-4.1,0.1-8.2,0-12.4
		c-0.5-2.8-0.9-5.7-1.4-8.5c-0.6-1.9,1.1-3,1.8-4.5c0.5-0.4,1.2-0.6,1.2-1.4c0.1-0.2,0-0.3,0-0.5c2.4-0.8,2.9-2.9,3.8-4.7
		c1.2-1.1,0.4-2.6,0.8-3.9c0,0,0,0,0,0c0.8-1.3-0.9-2.7,0.4-4C247.1,125.5,250.1,123,248,120.7z"/>
	<path class="st0" d="M202,43.7c1,1.5,1.7,2.4,2.3,3.3C204.9,45.4,204.1,44.5,202,43.7z"/>
	<path class="st0" d="M218.1,65.3c0.3,1,1.2,1.5,2,2c0.5,0.9,1.2,1.5,2.2,1.8c0.8,0.8,1.7,0.9,2.8,0.6c1.5-0.7,3.6-0.7,4.4-2.5
		c1.4-2.3,0-3.6-2-4.8c-1-1.1-1.9-2.4-3.7-2.4c-1.9-0.8-3.6-0.3-5.3,0.5c0,0,0,0,0,0c-0.9,0.4-1.5,1-1,2
		C217.2,63.7,217.3,64.6,218.1,65.3z"/>
</g>
</svg>
