<?xml version="1.0" encoding="utf-8"?>
<!-- Generator: Adobe Illustrator 21.0.0, SVG Export Plug-In . SVG Version: 6.00 Build 0)  -->
<svg version="1.1" id="圖層_1" xmlns="http://www.w3.org/2000/svg" xmlns:xlink="http://www.w3.org/1999/xlink" x="0px" y="0px"
	 viewBox="0 0 257 243" style="enable-background:new 0 0 257 243;" xml:space="preserve">
<style type="text/css">
	.st0{fill-rule:evenodd;clip-rule:evenodd;fill:#F4C376;}
</style>
<g>
	<path class="st0" d="M243.1,71.2c-3.1-1.2-5.5,0.2-7.9,1.5c-3.6,2.1-5.1,4.8-4.3,8c0,0.3,0.1,0.6,0.2,0.9c0.7,3.3,3.3,5.3,6.7,6.5
		c4.3,1.5,8.4-1.1,10.7-6.6C250,77.8,247,72,243.1,71.2z"/>
	<path class="st0" d="M24.8,145c-0.4-2.8-0.5-6.1-4.6-6.6c-2.9-0.4-6.1,0.1-7.5,3.2c-1.1,0.6-1.7,1.4-1.6,2.6
		c-1.2,1.2-2.2,2.6-2.2,4.3c-1.3,1.9-0.6,3.9-0.6,5.9c-0.2,7,2.1,8.8,10.2,8.4c1.4,0,2.9,0.4,4.2-0.6c2.8-2.1,0.5-5,1.5-7.4
		c1.1-1.3,0.6-2.8,0.7-4.2c0-0.4,0.1-0.8,0.1-1.3c0.9-1.2,1.1-2.4,0-3.5C24.8,145.4,24.8,145.2,24.8,145z M16.5,159.3
		c0.4,0.8,0.9,1.6,1.3,2.3C16.5,161.1,16.4,160.2,16.5,159.3z"/>
	<path class="st0" d="M77.9,10.8c2.7,0,4.4-1.3,5-3.7c-0.5-2.4-2.4-3.6-5.2-3.7c-2.6-0.1-4.7,1-5.5,3.1C71.6,8,75.3,10.7,77.9,10.8z
		"/>
	<path class="st0" d="M242.4,145.6c0-0.2-0.1-0.4-0.3-0.6c-1.2-2.8-3.4-4-6.9-3.4c-1.2,0.2-2.4,0.2-2.4-1.3c1.1-2.4,2-4.9,1.6-7.5
		c-0.1-1.1-0.2-2.3-0.3-3.4c0.3-0.8,0.2-1.5-0.5-2c-0.2-1.6,0.6-3.3-0.8-4.8c0-1.3-0.4-2.5-1.5-3.5c0.4-1.7-1.5-2.6-1.7-4
		c-1.3-2.2,0.6-6.7-5.4-5.5c-0.3-0.2-0.5-0.5-0.8-0.7c-1.8-2.2-3.7,1.4-5.5,0c-0.1,0.1-0.2,0.1-0.2,0.2c0-0.1-0.1-0.1-0.1-0.2h0
		l0.3,0c0-0.9,0-1.8,0-2.6c0,0,0,0,0,0c0,0,0,0,0,0c3.4,0.3,4.7-1.7,5.6-4c1.3-1.9,0-3.8-0.2-5.6c1.3-2.3,1.3-4.6,0.1-6.9
		c-1-3.9-2.1-7.7-3.1-11.6c1-0.9,2.1-1.8,3.1-2.7c0.3-0.2,0.6-0.4,0.8-0.6c1.4-1,1.9-2.3,2.4-3.7c1.1-2.9,0-5.9,1.3-8.7
		c0.1-0.2,0.3-0.4,0.4-0.6c0.7-0.5,1.4-1,2.2-1.6c3.4,0.3,5.8-0.5,5.7-3.9c0,0,0,0,0,0c0,0,0,0,0,0c0,0,0,0,0,0c0,0,0,0,0,0
		c0,0,0,0,0,0c0,0,0,0,0,0c0,0,0,0,0,0c0,0,0,0,0,0c1.2-4.4-0.8-6.1-8.1-6.9c0.1,0.1,0.1,0.1,0.2,0.2c-0.1,0-0.1-0.1-0.2-0.2
		c-3.5-1-6.9-1-10.4-0.1c-1.6,0.1-3.1,0.1-4.7,0.2c-2-0.4-4,0.3-4.7,1.6c-0.7,1.2,1,2.4,2.2,3.4c0,0,0,0,0,0c0,0,0,0,0,0
		c1.8,1.3,0.7,3,0.9,4.6c-1.8,1-3.2,0.7-4.3-0.8c-0.7-1-1.6-1.9-2.9-2.5c-1.8-0.3-2.9-1.5-3-2.8c-0.2-2.5-1.8-3-4.2-2.8
		c-0.7-0.3-1.5-0.6-2.2-1l0,0c-1.5-1.4-3.3-2.5-5.3-3.3c-2.9-1.1-5.4-2.6-4.5-5.9c0,0,0,0,0,0c0.1-0.3,0.1-0.5,0.2-0.8
		c-0.2-6.4-4-11.1-10.1-14.5c-5-3.2-10-2.9-15,0c-0.5,0.4-0.9,0.8-1.4,1.2l0,0c-1.3,0.8-2.5,1.6-3.8,2.4c-2.9-1.7-6.4-1.9-9.7-2.8
		c-1.3-1.6-2.5,0.6-4.4,0c-3.6-1.2-7.2-3.7-11.6-2.2c-0.5,0.1-1,0.2-1.6,0.2c-1.9-1.4-4.2-0.7-6.3-0.7c-3.2-0.1-6.3,0.7-9.6,0
		c-2.2-0.4-4.9-0.6-7.2,0.5c0,0,0,0,0,0c0,0,0,0,0,0c0,0,0,0,0,0c0,0,0,0,0,0c0,0,0,0,0,0c0,0,0,0,0,0l0,0c0,0,0,0,0,0
		c-1,0-2.1,0.1-3.1,0.1c-8.8-0.3-17,1.7-25,4.5c0,0,0,0,0,0c0,0,0,0,0,0c-0.9,0.1-1.9,0.2-2.9,0.2c-1.5,0.4-3.2,0.4-4.1,1.9
		c-2,0.1-3.8,0.7-5.4,1.6c-2,0.7-4.1,1.3-5.7,2.6c-2.5,1.2-5.5,2-6.4,4.8c-2.8,0.3-3.9,2-4.9,3.9c-2.1,1.2-3.2,2.9-3.7,5
		c-0.6,0.9-1.2,1.8-1.7,2.7c-1.8,4.5-2.6,9.3-4.9,13.6c-1.2,2-1.7,4.1-2.1,6.2l0,0c-1.3,5,0.5,10-0.8,15c-0.4,2.3,0,4.6,0.6,6.8
		c-0.7,1-1.4,1.5-3.1,1.6c-2.1,0-4.6-0.3-5.9,1.8c-0.2-0.1-0.4-0.1-0.5,0.1c-1.7-0.1-2.5,1-3.2,2c-1.7,1.1-3.4,2.3-4.1,4.1
		c-0.9,1.1-2.1,2-2.3,3.4c0,0,0,0,0,0c-0.7,0.2-0.8,0.7-0.8,1.2c-3,5.2-3.9,10.5-0.8,16c-0.4,3,2.2,4,4.8,4.9c2.5,1.2,4.1,3,4.8,5.3
		c0.2,0.8,0.5,1.5,0.7,2.3c0.5,2.1,3.1,3.6,3,5.5c-0.1,2,0.7,3.2,1.7,4.6c0.6,1.2-0.2,2.7,0.8,3.9c-0.6,0.7-0.8,1.4-0.4,2.2
		c0.4,4.3,1.4,8.5,3.8,12.3c0.6,0.9,0.4,2.1,1.5,2.8c0,0,0,0,0,0c0,0,0,0,0,0c0,0,0,0,0,0c0,0,0,0,0,0c0,0,0,0,0,0c0,0,0,0,0,0
		c0,0,0,0,0,0c0,0,0,0,0,0c0,0.9,0.5,1.3,1.5,1.4c0,0,0,0,0,0c-0.2,2,0.4,3.7,2.6,4.7c0,0,0,0,0,0l0,0c1.4,1.3,1.8,3.5,4.6,3.5v0
		c0.1,0.7,0,1.5,0.9,2c0,0.2,0,0.4,0,0.7c0.3,0.7,0.5,1.4,0.8,2.1c1.9,3,5.9,2.2,8.7,3.5l0-0.1c0,0,0,0,0,0c0,0-0.1,0-0.1,0.1
		c2.7,2.6,5,5.5,9.5,5.4c-0.2,1.5-1.7,1.7-2.6,2.7c3,0.2,5.4-2.4,8.1-0.7c-0.5,2.5-3.2,3.6-4.7,5.5c-2.6,0.1-2.5,0.8-0.9,2.4
		c4.5,4.4,10.3,7.5,15.2,11.5c0,0,0,0,0,0c0,0.2,0,0.3,0.1,0.5c0.3,0.7,0.7,1.2,1.5,1.4c0,0,0,0,0,0c0,0,0,0,0,0
		c1.1,1.1,2.7,1.3,4.1,1.9c0,0,0,0,0,0c0,0,0,0,0,0c1.3,0.3,2.5,0.6,3.8,0.9c1,0.9,2.3,1.4,3.7,1.3c0.9,0.7,1.8,1.4,2.7,2.1
		c0,0,0,0,0,0c0.3,0.6,0.9,1,1.7,1.1c2,0.7,4.1,1.5,6.1,2.2c0.5,0.7,0.8,1.5,1.8,1.8c1.6,0.5,3.2,0.9,4.8,1.4
		c1.4,0.6,2.7,1.4,4.1,1.9c4.7,1.6,9.1,4.3,14.5,2.6c0.2,0,0.4-0.1,0.6-0.2c4.6,0.5,8.5-1.7,12.6-2.8c2.4-0.5,4.7-0.9,7.1-1.4
		c0.9,1,1.6,0,2.4-0.2c1.6-0.3,3.4,0.7,4.8-0.5c0,0,0,0,0,0c1.3-0.1,2.4-0.5,3.4-1.3c2.4-0.2,4.1-1.3,5.6-2.8c0,0,0,0,0,0
		c0.6-0.5,1.3-1,1.9-1.5c0.8-0.5,1.7-1,2.5-1.4c2.3-0.6,3.2-2.3,4.1-4c0.9-0.9,1.4-1.7,0.1-2.7c0,0,0,0-0.1,0c1.9-2,2.4-4.6,3.7-6.9
		c0.4-1,0.9-1.9,1.8-2.8c2-2.1,4.8-4.1,4.1-7.4c2.5-0.7,2.1-3.2,3.7-4.3c1.1-0.6,1.5-1.5,1.6-2.6c2.3-3.2,4.7-6.4,7-9.6
		c0.6-1.3,1.3-2.6,1.9-3.8c1-0.6,0.5-1.5,0.7-2.2c1-0.4,0.7-1.3,0.8-2c0.3-0.4,0.5-0.9,0.8-1.3c2.2-1.7,2-4.2,3.3-6.3
		c2.1-1.7,1.3-3.6,0.4-5.5c0.1-0.2,0.2-0.4,0.3-0.6c1-0.1,2-0.1,3.1-0.2c0.5,0.5,1,1,1.5,1.5c0,1.4,1.4,1.8,2.5,2.2
		c2.2,0.7,3.3,2.1,3.9,4c0.1-0.1,0.2-0.1,0.2-0.2c0,0,0,0.1,0,0.1c0,0,0,0,0,0l-0.2,0.1c-0.2,1.3-1.7,1.7-2.3,2.7
		c-1.4,0.5-1.8,1.7-2.5,2.7l0,0c-0.8,0.2-1.3,0.7-1.6,1.4c-0.3,0.4-0.6,0.8-0.9,1.2c-0.8,1-1.5,1.9-2.3,2.9c-0.7,1.2-1.2,2.5,0,3.6
		c1,1,2.3,0.8,3.4,0c2.8,1.1,5.3-0.1,8-0.7c0,0,0,0,0.1,0c1.1,0.2,2.3,0.5,3.4,0.7c1.4,1.1,2.9,2.2,4.3,3.3
		c3.1,3.7,7.2,4.3,11.9,2.6c2-0.4,2.7-1.8,3-3.3c2.4-2.1,3.4-4.8,4.2-7.5c1.1-1.2,0.3-2.7,0.8-4.1c1.1-0.4,1.3-1,0.8-1.9
		c0.1-0.3,0.2-0.5,0.2-0.7c0.9-2.7,1.2-5.5,0.3-8.3l0,0c-0.3-1.2,1.3-2.1,0.8-3.4C245.9,151.2,245.1,148.1,242.4,145.6z"/>
</g>
</svg>
