<svg id="圖層_1" data-name="圖層 1" xmlns="http://www.w3.org/2000/svg" viewBox="0 0 41.53 15.94"><defs><style>.cls-1{fill:#fff;fill-rule:evenodd;}</style></defs><title>line-icon</title><path class="cls-1" d="M30.57,3.3a1.53,1.53,0,0,0-1.65-1.65c-1.12,0-1.71.66-1.72,2,0,2.09,0,4.18,0,6.27,0,.24.09.51-.15.76l-5.85-8c-.75-1-1.42-1.33-2.29-1.05s-1.13.93-1.14,2.18V4q0,5.64,0,11.28a4.73,4.73,0,0,0,.11,1.09,1.43,1.43,0,0,0,1.37,1.17,1.58,1.58,0,0,0,1.92-1.77c0-2.41,0-4.83,0-7.4a3.8,3.8,0,0,1,.31.3l4.06,5.53c.7.94,1.37,1.9,2.1,2.81a1.63,1.63,0,0,0,2,.41,1.47,1.47,0,0,0,.95-1.54C30.57,11.65,30.58,7.48,30.57,3.3Z" transform="translate(-0.94 -1.59)"/><path class="cls-1" d="M40.82,14.2c-.86,0-1.73,0-2.59,0-.65,0-1.48.28-1.89-.11s-.05-1.24-.14-1.88.14-.91.87-.9a19.13,19.13,0,0,0,4.06-.1,1.61,1.61,0,0,0,1.33-1.75A1.64,1.64,0,0,0,40.8,7.93c-.81,0-1.62,0-2.43,0s-1.61.3-2-.13-.05-1.34-.14-2,.2-.71.75-.71A24.55,24.55,0,0,0,41,5,1.62,1.62,0,0,0,42.47,3.3a1.65,1.65,0,0,0-1.39-1.62H34.18a1.57,1.57,0,0,0-1.41,1.65q0,6.27,0,12.54a1.5,1.5,0,0,0,1.6,1.62q3.26,0,6.51,0a1.57,1.57,0,0,0,1.58-1.66A1.65,1.65,0,0,0,40.82,14.2Z" transform="translate(-0.94 -1.59)"/><path class="cls-1" d="M9,14.2c-1.31,0-2.61,0-3.92,0-.56,0-.69-.15-.68-.7,0-3.24,0-6.47,0-9.71,0-.3.1-.63-.15-.9A1.41,1.41,0,0,0,2.78,1.66,1.57,1.57,0,0,0,1,2.93a.46.46,0,0,0-.05.15c0,4.31,0,8.62,0,12.92a1.45,1.45,0,0,0,1.56,1.5c2.17,0,4.33,0,6.5,0a1.62,1.62,0,0,0,1.62-1.64A1.65,1.65,0,0,0,9,14.2Z" transform="translate(-0.94 -1.59)"/><path class="cls-1" d="M13.67,1.65c-1,0-1.61.74-1.61,1.89q0,3,0,6t0,6c0,1.25.57,1.9,1.64,1.91a1.64,1.64,0,0,0,1.78-1.88q0-6.06,0-12.13A1.65,1.65,0,0,0,13.67,1.65Z" transform="translate(-0.94 -1.59)"/></svg>