<?xml version="1.0" encoding="utf-8"?>
<!-- Generator: Adobe Illustrator 16.0.0, SVG Export Plug-In . SVG Version: 6.00 Build 0)  -->
<!DOCTYPE svg PUBLIC "-//W3C//DTD SVG 1.1//EN" "http://www.w3.org/Graphics/SVG/1.1/DTD/svg11.dtd">
<svg version="1.1" id="line" xmlns="http://www.w3.org/2000/svg" xmlns:xlink="http://www.w3.org/1999/xlink" x="0px" y="0px"
	 width="40px" height="40px" viewBox="0 0 40 40" enable-background="new 0 0 40 40" xml:space="preserve">
<path fill="#606D75" d="M16.046,15.652h-1.294c-0.199,0-0.359,0.161-0.359,0.359v8.041c0,0.199,0.161,0.359,0.359,0.359h1.294
	c0.199,0,0.359-0.16,0.359-0.359v-8.041C16.406,15.813,16.245,15.652,16.046,15.652"/>
<path fill="#606D75" d="M24.956,15.652h-1.293c-0.2,0-0.36,0.161-0.36,0.359v4.778l-3.686-4.977
	c-0.009-0.014-0.018-0.025-0.028-0.037c0-0.001-0.001-0.002-0.002-0.002c-0.007-0.008-0.014-0.015-0.021-0.022
	c-0.002-0.002-0.004-0.004-0.006-0.006c-0.006-0.005-0.013-0.011-0.02-0.016c-0.003-0.002-0.006-0.004-0.009-0.007
	c-0.006-0.004-0.012-0.008-0.019-0.013c-0.003-0.002-0.007-0.004-0.01-0.006c-0.007-0.003-0.013-0.007-0.02-0.011
	c-0.004-0.002-0.008-0.004-0.011-0.006c-0.007-0.002-0.014-0.006-0.021-0.009c-0.004-0.001-0.008-0.002-0.012-0.004
	c-0.007-0.002-0.015-0.005-0.021-0.006c-0.004-0.002-0.008-0.002-0.012-0.003c-0.007-0.002-0.014-0.003-0.021-0.004
	c-0.005-0.001-0.01-0.002-0.015-0.003c-0.006,0-0.012-0.001-0.019-0.002c-0.006,0-0.013,0-0.019,0c-0.004,0-0.008-0.001-0.012-0.001
	h-1.295c-0.198,0-0.359,0.161-0.359,0.359v8.041c0,0.199,0.161,0.359,0.359,0.359h1.295c0.199,0,0.359-0.16,0.359-0.359v-4.775
	l3.689,4.983c0.025,0.036,0.057,0.064,0.091,0.089c0.002,0,0.003,0.003,0.005,0.003c0.007,0.004,0.015,0.009,0.022,0.013
	c0.002,0.002,0.007,0.005,0.01,0.006c0.006,0.003,0.011,0.006,0.017,0.008c0.007,0.003,0.011,0.005,0.018,0.009
	c0.004,0,0.007,0.002,0.012,0.003c0.008,0.004,0.016,0.006,0.024,0.008c0.001,0,0.002,0,0.004,0.003
	c0.029,0.006,0.061,0.011,0.093,0.011h1.294c0.199,0,0.36-0.16,0.36-0.357v-8.042C25.316,15.813,25.155,15.652,24.956,15.652"/>
<path fill="#606D75" d="M12.926,22.397H9.409v-6.386c0-0.198-0.161-0.359-0.36-0.359H7.754c-0.198,0-0.359,0.161-0.359,0.359v8.04
	v0.001c0,0.097,0.039,0.184,0.101,0.248c0.001,0.002,0.003,0.005,0.004,0.007c0.001,0.001,0.004,0.002,0.005,0.005
	c0.064,0.062,0.152,0.1,0.249,0.1h0h5.171c0.199,0,0.359-0.161,0.359-0.36v-1.293C13.285,22.558,13.125,22.397,12.926,22.397"/>
<path fill="#606D75" d="M32.104,17.666c0.199,0,0.36-0.161,0.36-0.359v-1.294c0-0.199-0.161-0.36-0.36-0.36h-5.171l0,0
	c-0.098,0-0.185,0.039-0.249,0.101c-0.002,0.002-0.003,0.003-0.004,0.004c-0.002,0.002-0.005,0.004-0.007,0.006
	c-0.061,0.064-0.099,0.151-0.099,0.248v0v8.039v0.001c0,0.097,0.038,0.184,0.1,0.248c0.001,0.002,0.004,0.005,0.006,0.007
	c0.001,0.001,0.002,0.002,0.004,0.005c0.064,0.062,0.152,0.1,0.249,0.1l0,0h5.171c0.199,0,0.36-0.16,0.36-0.36v-1.293
	c0-0.2-0.161-0.36-0.36-0.36h-3.517v-1.359h3.517c0.199,0,0.36-0.16,0.36-0.36v-1.294c0-0.198-0.161-0.359-0.36-0.359h-3.517v-1.359
	H32.104L32.104,17.666z"/>
</svg>
