<?xml version="1.0" encoding="utf-8"?>
<!-- Generator: Adobe Illustrator 21.0.0, SVG Export Plug-In . SVG Version: 6.00 Build 0)  -->
<svg version="1.1" id="Layer_1" xmlns="http://www.w3.org/2000/svg" xmlns:xlink="http://www.w3.org/1999/xlink" x="0px" y="0px"
	 viewBox="0 0 512 512" style="enable-background:new 0 0 512 512;" xml:space="preserve">
<style type="text/css">
	.st0{fill:#FFFFFF;}
</style>
<g>
	<g>
		<path class="st0" d="M246.3,271l-53.8-16.2v-21.8c19.9-14.7,33.4-37.7,35.3-63.8c10.4-3.1,18-12.8,18-24.2
			c0-7.4-3.3-14.4-8.9-19.1V74.1c0-14.2-7.2-27.5-19-35.5c-3.9-14.8-17.2-25.3-32.9-25.3h-71c-38.4,0-69.6,31.2-69.6,69.6v43
			c-5.6,4.8-8.9,11.7-8.9,19.1c0,11.4,7.6,21.1,18,24.2c1.9,26.1,15.4,49.1,35.3,63.8v21.8l-64.4,19.3C9.8,278.5,0,291.7,0,306.9
			v86.7c0,4.1,3.4,7.5,7.5,7.5h1.4v90.1c0,4.1,3.4,7.5,7.5,7.5s7.5-3.4,7.5-7.5v-90.1h29.4v90.1c0,4.1,3.4,7.5,7.5,7.5
			s7.5-3.4,7.5-7.5v-142c0-1.2-0.3-2.3-0.8-3.4l-17.8-35.5c-1.9-3.7-6.4-5.2-10.1-3.4c-3.7,1.9-5.2,6.4-3.4,10.1l17,33.9v35.1H16.4
			H15v-79.2c0-8.5,5.5-15.9,13.6-18.3l26.9-8.1c9.2,38.9,44.4,67.3,85.1,67.3c20.9,0,41.1-7.5,57-21.1
			c14.1-12.1,23.9-28.3,28.1-46.2l16.4,4.9c0.7,0.2,1.4,0.3,2.2,0.3c3.2,0,6.2-2.1,7.2-5.3C252.6,276.4,250.3,272.2,246.3,271z
			 M68.3,162.8c0-4.1-3.4-7.5-7.5-7.5c-5.7,0-10.3-4.6-10.3-10.3c0-3.6,1.9-6.9,5.1-8.8c0.2-0.1,0.3-0.2,0.5-0.3
			c1.4-0.7,3-1.1,4.6-1.1h11.4c7.1,0,13.3-4.5,15.5-11.2l5.2-15.5c17.6-0.4,73.2-2.9,104.4-18.5c3.7-1.9,5.2-6.4,3.4-10.1
			c-1.9-3.7-6.4-5.2-10.1-3.4C157,93,88.1,93.2,87.4,93.2c-3.2,0-6.1,2.1-7.1,5.1l-6.9,20.6c-0.2,0.6-0.7,0.9-1.3,0.9H60.8
			c-0.5,0-0.9,0-1.4,0V82.9c0-30.1,24.5-54.6,54.6-54.6h71c9.4,0,17.3,6.8,18.8,16.1c0.4,2.3,1.7,4.2,3.7,5.4
			c8.9,5,14.4,14.3,14.4,24.3v55.7c0,2.7,1.4,5.1,3.7,6.5c3.2,1.9,5.1,5.2,5.1,8.8c0,5.7-4.6,10.3-10.3,10.3c-4.1,0-7.5,3.4-7.5,7.5
			c0,39.9-32.5,72.4-72.4,72.4S68.3,202.7,68.3,162.8z M177.5,242v18.4c0,20.3-16.5,36.9-36.9,36.9c-20.3,0-36.8-16.5-36.9-36.8
			c0,0,0-0.1,0-0.1V242c11.2,5.2,23.7,8.2,36.9,8.2S166.3,247.2,177.5,242z M187.8,315.3c-13.1,11.3-29.9,17.5-47.2,17.5
			c-34,0-63.4-24-70.6-56.7l19.7-5.9c4.6,23.9,25.7,42.1,50.9,42.1c25.3,0,46.3-18.1,50.9-42.1l19.7,5.9
			C207.9,291.3,199.7,305.1,187.8,315.3z"/>
	</g>
</g>
<g>
	<g>
		<path class="st0" d="M163.1,183.6c-3.2-2.6-7.9-2.1-10.5,1.1c-3.2,3.9-7.4,6.1-11.9,6.1s-8.7-2.2-11.9-6.1
			c-2.6-3.2-7.3-3.7-10.5-1.1c-3.2,2.6-3.7,7.3-1.1,10.5c6,7.4,14.6,11.6,23.6,11.6s17.6-4.2,23.6-11.6
			C166.8,190.9,166.3,186.2,163.1,183.6z"/>
	</g>
</g>
<g>
	<g>
		<path class="st0" d="M105.1,137.6c-4.1,0-7.5,3.4-7.5,7.5v8.9c0,4.1,3.4,7.5,7.5,7.5s7.5-3.4,7.5-7.5v-8.9
			C112.6,140.9,109.3,137.6,105.1,137.6z"/>
	</g>
</g>
<g>
	<g>
		<path class="st0" d="M176.1,137.6c-4.1,0-7.5,3.4-7.5,7.5v8.9c0,4.1,3.4,7.5,7.5,7.5s7.5-3.4,7.5-7.5v-8.9
			C183.6,140.9,180.3,137.6,176.1,137.6z"/>
	</g>
</g>
<g>
	<g>
		<path class="st0" d="M402.7,228c-3.2-2.6-7.9-2.1-10.5,1.1c-3.2,3.9-7.4,6.1-11.9,6.1s-8.7-2.2-11.9-6.1
			c-2.6-3.2-7.3-3.7-10.5-1.1s-3.7,7.3-1.1,10.5c6,7.4,14.6,11.6,23.6,11.6c9,0,17.6-4.2,23.6-11.6
			C406.4,235.3,405.9,230.6,402.7,228z"/>
	</g>
</g>
<g>
	<g>
		<path class="st0" d="M344.8,181.9c-4.1,0-7.5,3.4-7.5,7.5v8.9c0,4.1,3.4,7.5,7.5,7.5s7.5-3.4,7.5-7.5v-8.9
			C352.3,185.3,348.9,181.9,344.8,181.9z"/>
	</g>
</g>
<g>
	<g>
		<path class="st0" d="M415.8,181.9c-4.1,0-7.5,3.4-7.5,7.5v8.9c0,4.1,3.4,7.5,7.5,7.5s7.5-3.4,7.5-7.5v-8.9
			C423.3,185.3,419.9,181.9,415.8,181.9z"/>
	</g>
</g>
<g>
	<g>
		<path class="st0" d="M490.5,335.5l-60.9-24.3c-0.5-0.2-1-0.5-1.5-0.7c41.2-8.3,60.5-16.1,61.4-16.5c3.1-1.3,5-4.5,4.6-7.9
			c-0.1-0.7-8.8-71.2-8.8-132.2c0-58-47.2-105.1-105.1-105.1S275.1,96,275.1,153.9c0,60.9-8.7,131.5-8.8,132.2
			c-0.4,3.4,1.5,6.6,4.6,7.9c0.9,0.4,20.2,8.1,61.4,16.5c-0.5,0.3-1,0.5-1.5,0.7L270,335.5c-13,5.2-21.5,17.6-21.5,31.7v18.8H228
			V351l17-33.9c1.9-3.7,0.4-8.2-3.4-10.1c-3.7-1.9-8.2-0.4-10.1,3.4l-17.8,35.5c-0.5,1-0.8,2.2-0.8,3.4v142c0,4.1,3.4,7.5,7.5,7.5
			s7.5-3.4,7.5-7.5v-90.1h20.5v10.3c0,2,0.8,3.9,2.2,5.3c1.4,1.4,3.3,2.2,5.3,2.2c0,0,0,0,0,0h1.4v72.4c0,4.1,3.4,7.5,7.5,7.5
			s7.5-3.4,7.5-7.5v-72.4h20.5v72.4c0,4.1,3.4,7.5,7.5,7.5s7.5-3.4,7.5-7.5v-97.6c0-4.1-3.4-7.5-7.5-7.5s-7.5,3.4-7.5,7.5v10.3
			h-29.4v-36.6c0-7.9,4.7-14.8,12-17.8l29.9-12c10.3,32.4,40.4,54.7,74.8,54.7s64.5-22.3,74.8-54.7l29.9,12c7.3,2.9,12,9.9,12,17.8
			v36.6h-29.4v-10.3c0-4.1-3.4-7.5-7.5-7.5s-7.5,3.4-7.5,7.5v97.6c0,4.1,3.4,7.5,7.5,7.5s7.5-3.4,7.5-7.5v-72.4h20.5v72.4
			c0,4.1,3.4,7.5,7.5,7.5s7.5-3.4,7.5-7.5v-72.4h1.4c4.1,0,7.5-3.4,7.5-7.5v-44.1C512,353.2,503.6,340.7,490.5,335.5z M290.1,153.9
			c0-49.7,40.4-90.1,90.1-90.1s90.1,40.4,90.1,90.1c0,51.5,6.1,109.6,8.2,128.1c-8.3,2.8-26.5,8.4-55.4,14.1v-12.9
			c4.2-2.4,8.1-5,11.9-8.1c15.2-12.3,26-29.6,30.3-48.6c1.4-6.3,2.2-12.9,2.2-19.4c0-43.7-31.6-50-62.2-56
			c-19.6-3.9-39.8-7.9-55.9-20.8c-1.8-1.4-4.1-1.9-6.3-1.5c-2.2,0.5-4.1,1.9-5.1,4c0,0.1-4.2,8.4-11.4,16.4c-6,6.8-15.5,15-26.3,15
			c-3.7,0-7.2,0.8-10.4,2.2C290.1,162.2,290.1,158.1,290.1,153.9z M380.3,279.6c-16.7,0-32.5-5.6-45.5-16.1
			c-12.6-10.2-21.5-24.5-25.1-40.2c-1.2-5.2-1.8-10.7-1.8-16.1c0-4.1-3.4-7.5-7.5-7.5c-5.7,0-10.3-4.6-10.3-10.3s4.6-10.3,10.3-10.3
			c22.7,0,39.2-20.6,46.7-32.1c17.5,11.3,37.5,15.2,55.4,18.8c33,6.5,50.2,11.4,50.2,41.3c0,5.4-0.6,10.8-1.8,16.1
			c-3.6,15.7-12.5,30-25.1,40.2C412.7,274,397,279.6,380.3,279.6z M281.9,282c1.3-11.6,4.2-39,6.2-70.5c1.6,0.9,3.2,1.6,5,2.1
			c0.3,4.4,1,8.7,1.9,13c4.3,19,15.1,36.3,30.3,48.6c3.7,3,7.7,5.7,11.9,8.1v12.9C308.4,290.4,290.2,284.9,281.9,282z M380.3,377.2
			c-28.2,0-52.9-18.5-60.8-45.3l17-6.8c9.6-3.9,15.9-13.1,15.9-23.4v-11.7c9,3,18.4,4.6,28,4.6s19-1.6,28-4.6v11.7
			c0,10.4,6.2,19.6,15.9,23.4l17,6.8C433.1,358.7,408.4,377.2,380.3,377.2z"/>
	</g>
</g>
</svg>
