<?xml version="1.0" encoding="utf-8"?>
<!-- Generator: Adobe Illustrator 21.0.0, SVG Export Plug-In . SVG Version: 6.00 Build 0)  -->
<svg version="1.1" id="Layer_3" xmlns="http://www.w3.org/2000/svg" xmlns:xlink="http://www.w3.org/1999/xlink" x="0px" y="0px"
	 viewBox="0 0 512 512" style="enable-background:new 0 0 512 512;" xml:space="preserve">
<style type="text/css">
	.st0{fill:#FFFFFF;}
</style>
<path class="st0" d="M496,248h-8v-49.4c0-16.7-6.5-32.5-18.3-44.3c-11.8-11.8-27.6-18.3-44.3-18.3H416v-8.7
	c19.1-11.1,32-31.7,32-55.3c0-35.3-28.7-64-64-64s-64,28.7-64,64c0,23.6,12.9,44.3,32,55.3v8.7h-9.4c-16.7,0-32.5,6.5-44.3,18.3
	c-11.8,11.8-18.3,27.5-18.3,44.3V248h-16v-24c0-4.4-3.6-8-8-8h-24v-2.7c0-23.3,7.9-45.4,22.3-63.3c3,1.3,6.2,2.1,9.7,2.1
	c13.2,0,24-10.8,24-24s-10.8-24-24-24s-24,10.8-24,24c0,3.9,1,7.5,2.7,10.8c-17.3,20.9-26.7,47-26.7,74.5v2.7h-24c-4.4,0-8,3.6-8,8
	v24h-8c-4.4,0-8,3.6-8,8v32c0,4.4,3.6,8,8,8h8v48c-22.1,0-40,17.9-40,40c0,11.9,5.3,22.4,13.6,29.8c-12.5,5.7-22.9,15.3-29.6,27.3
	c-6.6-12-17-21.6-29.6-27.3c8.2-7.3,13.6-17.9,13.6-29.8c0-22.1-17.9-40-40-40s-40,17.9-40,40c0,11.9,5.3,22.4,13.6,29.8
	C23.4,423.9,8,446.1,8,472v24c0,4.4,3.6,8,8,8h336c4.4,0,8-3.6,8-8v-8h120c4.4,0,8-3.6,8-8V296h8c4.4,0,8-3.6,8-8v-32
	C504,251.6,500.4,248,496,248z M264,120c4.4,0,8,3.6,8,8s-3.6,8-8,8s-8-3.6-8-8S259.6,120,264,120z M472,198.6V248h-16v-32h-16v32
	h-48v-59.1l20.4,10.2c1.1,0.6,2.4,0.8,3.6,0.8c1,0,2.1-0.2,3.1-0.6c2.1-0.9,3.8-2.7,4.5-4.9l13.7-41c7.9,2.1,15.2,6.2,21.1,12.1
	C467.2,174.5,472,186.2,472,198.6L472,198.6z M356,152l15.8,21.1l-15.2,7.6l-9.6-28.7H356z M412,152h8.9l-9.6,28.7l-15.2-7.6
	L412,152z M384,24c23.5,0,43.1,17,47.2,39.4C416,61.5,402,54.7,391,43.7l-1.4-1.4c-3-3-8.3-3-11.3,0l-1.4,1.4
	c-11,11-25,17.7-40.2,19.7C340.9,41,360.5,24,384,24L384,24z M336.6,79.6c17.6-1.7,34-8.9,47.4-20.5c13.4,11.7,29.8,18.8,47.4,20.5
	c-3.6,22.9-23.5,40.4-47.4,40.4S340.2,102.5,336.6,79.6z M384,136c5.5,0,10.9-0.8,16-2.1v7.4l-16,21.3l-16-21.3v-7.4
	C373.1,135.2,378.5,136,384,136z M296,198.6c0-12.5,4.8-24.2,13.7-33c5.9-5.9,13.2-10,21.1-12.1l13.7,41c0.7,2.2,2.4,4,4.5,4.9
	c1,0.4,2,0.6,3.1,0.6c1.2,0,2.5-0.3,3.6-0.8l20.4-10.2V248h-48v-32h-16v32h-16L296,198.6z M200,232h48v16h-48V232z M160,384
	c0-13.2,10.8-24,24-24s24,10.8,24,24s-10.8,24-24,24S160,397.2,160,384z M48,384c0-13.2,10.8-24,24-24s24,10.8,24,24s-10.8,24-24,24
	S48,397.2,48,384z M24,472c0-26.5,21.5-48,48-48s48,21.5,48,48v16H24V472z M136,472c0-26.5,21.5-48,48-48s48,21.5,48,48v16h-96V472z
	 M344,488h-96v-16c0-26.5,21.5-48,48-48s48,21.5,48,48V488z M272,384c0-13.2,10.8-24,24-24s24,10.8,24,24s-10.8,24-24,24
	S272,397.2,272,384z M472,472H360c0-25.9-15.4-48.1-37.6-58.2c8.2-7.3,13.6-17.9,13.6-29.8c0-22.1-17.9-40-40-40s-40,17.9-40,40
	c0,11.9,5.3,22.4,13.6,29.8c-12.5,5.7-22.9,15.3-29.6,27.3c-6.6-12-17-21.6-29.6-27.3c8.2-7.3,13.6-17.9,13.6-29.8
	c0-16.4-9.9-30.4-24-36.6V296h272V472z M488,280H184v-16h304V280z"/>
<path class="st0" d="M32,168h128c13.2,0,24-10.8,24-24v-12.7l29.7-29.7c3.1-3.1,3.1-8.2,0-11.3L184,60.7V48c0-13.2-10.8-24-24-24H32
	C18.8,24,8,34.8,8,48v96C8,157.2,18.8,168,32,168z M24,48c0-4.4,3.6-8,8-8h128c4.4,0,8,3.6,8,8v16c0,2.1,0.8,4.2,2.3,5.7L196.7,96
	l-26.3,26.3c-1.5,1.5-2.3,3.5-2.3,5.7v16c0,4.4-3.6,8-8,8H32c-4.4,0-8-3.6-8-8V48z"/>
<path class="st0" d="M40,56h112v16H40V56z"/>
<path class="st0" d="M40,120h112v16H40V120z"/>
<path class="st0" d="M56,88h80v16H56V88z"/>
</svg>
