<?xml version="1.0" encoding="utf-8"?>
<!-- Generator: Adobe Illustrator 21.0.0, SVG Export Plug-In . SVG Version: 6.00 Build 0)  -->
<svg version="1.1" id="reproduction" xmlns="http://www.w3.org/2000/svg" xmlns:xlink="http://www.w3.org/1999/xlink" x="0px"
	 y="0px" viewBox="0 0 512 512" style="enable-background:new 0 0 512 512;" xml:space="preserve">
<style type="text/css">
	.st0{fill:#FFFFFF;}
</style>
<path class="st0" d="M432.4,208.2l-3.9-1.2c-12.4-3.7-24.2-7.2-35.3-12l-7.3-3.2v-9.8c22-2,39.4-20.6,39.4-43.1V59.3
	c0-19-18.2-34.4-40.5-34.4h-93.3c-4.3,0-7.9,3.5-7.9,7.9c0,13.6,5.9,26.1,15.7,35.7V139c0,22.5,17.3,41.1,39.4,43.1v9.8l-7.3,3.1
	c-11.2,4.8-22.9,8.3-35.3,12l-4,1.2c-19.3,5.8-32.2,21.4-32.2,39v53.2c0,4.3,3.5,7.9,7.9,7.9h188.9c4.3,0,7.9-3.5,7.9-7.9v-53.2
	C464.6,229.7,451.7,214,432.4,208.2L432.4,208.2z M354.4,182.3h15.7v15.7c0,4.3-3.5,7.9-7.9,7.9s-7.9-3.5-7.9-7.9V182.3z M315,139
	V79.7c10,5.2,21.9,8.2,34.5,8.2h23.8c4.3,0,7.9-3.5,7.9-7.9s-3.5-7.9-7.9-7.9h-23.8c-24.3,0-44.6-13.5-49.3-31.5h84.4
	c13.7,0,24.8,8.4,24.8,18.7V139c0,15.2-12.4,27.6-27.6,27.6h-39.4C327.4,166.6,315,154.2,315,139z M448.9,292.6h-23.6v-31.5
	c0-4.3-3.5-7.9-7.9-7.9s-7.9,3.5-7.9,7.9v31.5H315v-31.5c0-4.3-3.5-7.9-7.9-7.9s-7.9,3.5-7.9,7.9v31.5h-23.6v-45.3
	c0-10.6,8.4-20.2,21-23.9l3.9-1.2c12.3-3.7,25.1-7.4,37.1-12.7l3.3-1.4c3.8,8,11.9,13.6,21.3,13.6s17.6-5.6,21.3-13.6l3.3,1.4
	c12,5.2,24.8,9,37.1,12.7l3.9,1.2c12.5,3.7,21,13.4,21,23.9L448.9,292.6z"/>
<path class="st0" d="M197,379.2c4.3,0,7.9-3.5,7.9-7.9v-53.2c0-17.3-10-32.9-24.9-38.8l-3-1.2c-9.2-3.6-17.9-7.1-26.1-11.8l-1.1-0.7
	v-14.1c4.7-1.3,9.1-3.4,13-6.2H197c4.3,0,7.9-3.5,7.9-7.9v-86.9c0-38.9-31.6-70.5-70.5-70.5h-16.4c-38.9,0-70.5,31.6-70.5,70.5v86.9
	c0,4.3,3.5,7.9,7.9,7.9h34.2c0,0,0,0,0,0c3.9,2.8,8.3,4.9,13,6.2v14.1l-1.1,0.7c-8.2,4.7-16.9,8.2-26.1,11.8l-3,1.2
	c-14.9,5.9-24.9,21.5-24.9,38.8v53.2c0,4.3,3.5,7.9,7.9,7.9H197z M86.7,209.9v-59h15.7c8.6,0,16.8-2.9,23.6-8c6.8,5.2,15.1,8,23.6,8
	h15.7v59c0,15.2-12.4,27.6-27.6,27.6h-23.6C99.1,237.4,86.7,225.1,86.7,209.9z M118.2,253.2H134v13.4l-7.9,11.8l-7.9-11.8V253.2z
	 M189.1,229.6h-12.7c3-5.9,4.8-12.6,4.8-19.7v-59c3.8,0,6.8-2.7,7.5-6.2c0.2,1.9,0.3,3.9,0.3,5.9V229.6z M117.9,95.7h16.4
	c26.2,0,48.2,18.6,53.5,43.2c-1.4-2.3-3.8-3.9-6.6-3.9h-31.5c-6.8,0-13.1-2.9-17.7-8.2c-3-3.4-8.9-3.4-11.8,0
	c-4.6,5.3-10.9,8.2-17.7,8.2H71c-2.9,0-5.2,1.6-6.6,3.9C69.7,114.3,91.7,95.7,117.9,95.7L117.9,95.7z M63.1,150.5c0-2,0.1-4,0.3-5.9
	c0.8,3.5,3.8,6.2,7.5,6.2v59c0,7.1,1.7,13.8,4.8,19.7H63.1V150.5z M63.1,318.1c0-10.9,6-20.6,15-24.2l2.9-1.2
	c9.1-3.6,18.5-7.3,27.5-12.5l11.1,16.6c1.5,2.2,3.9,3.5,6.5,3.5s5.1-1.3,6.5-3.5l11.1-16.6c9,5.1,18.4,8.9,27.5,12.5l2.9,1.2
	c9,3.6,15,13.3,15,24.2v45.3h-15.7v-23.6c0-4.3-3.5-7.9-7.9-7.9s-7.9,3.5-7.9,7.9v23.6h-63v-23.6c0-4.3-3.5-7.9-7.9-7.9
	s-7.9,3.5-7.9,7.9v23.6H63.1L63.1,318.1z"/>
<path class="st0" d="M362.3,316.2c-4.3,0-7.9,3.5-7.9,7.9v86.6H134v-15.7c0-4.3-3.5-7.9-7.9-7.9s-7.9,3.5-7.9,7.9v23.6
	c0,4.3,3.5,7.9,7.9,7.9h102.3v16.9c-13.5,3.5-23.6,15.7-23.6,30.4c0,17.4,14.1,31.5,31.5,31.5s31.5-14.1,31.5-31.5
	c0-14.6-10.1-26.9-23.6-30.4v-16.9h118.1c4.3,0,7.9-3.5,7.9-7.9V324C370.2,319.7,366.6,316.2,362.3,316.2z M252.1,473.6
	c0,8.7-7.1,15.7-15.7,15.7c-8.7,0-15.7-7.1-15.7-15.7c0-8.7,7.1-15.7,15.7-15.7C245,457.9,252.1,464.9,252.1,473.6z"/>
<path class="st0" d="M236.3,6.9c-7.6,0-14.9,2.6-20.7,7.3c-5.8-4.7-13.1-7.3-20.7-7.3c-18.2,0-33.1,14.8-33.1,33.1
	c0,15.7,9.1,30.8,26.3,43.6c12.6,9.4,25,14.2,25.2,14.2c0.8,0.3,1.6,0.4,2.3,0.4c0.8,0,1.7-0.2,2.4-0.4c0.1,0,12.6-4.9,25.1-14.2
	c17.2-12.7,26.3-27.8,26.3-43.6C269.3,21.7,254.5,6.9,236.3,6.9z M220.9,27.9c3.8-4.8,9.4-7.5,15.4-7.5c10.8,0,19.5,8.8,19.5,19.5
	c0,24.1-31.9,40.3-40.3,44.1c-8.4-3.8-40.3-19.9-40.3-44.1c0-10.8,8.8-19.5,19.5-19.5c6,0,11.7,2.7,15.4,7.5
	c1.3,1.6,3.3,2.6,5.3,2.6S219.6,29.6,220.9,27.9z"/>
</svg>
