<?xml version="1.0" encoding="utf-8"?>
<!-- Generator: Adobe Illustrator 21.0.0, SVG Export Plug-In . SVG Version: 6.00 Build 0)  -->
<svg version="1.1" id="Layer_3" xmlns="http://www.w3.org/2000/svg" xmlns:xlink="http://www.w3.org/1999/xlink" x="0px" y="0px"
	 viewBox="0 0 512 512" style="enable-background:new 0 0 512 512;" xml:space="preserve">
<style type="text/css">
	.st0{fill:#FFFFFF;}
</style>
<g>
	<path class="st0" d="M472,392v-40.8c18.2-3.7,32-19.9,32-39.2c0-22.1-17.9-40-40-40c-5.5,0-10.8,0.7-16,1.9V256
		c0-30.9-25.1-56-56-56H120c-30.9,0-56,25.1-56,56v17.9c-5.2-1.2-10.5-1.9-16-1.9c-22.1,0-40,17.9-40,40c0,19.3,13.8,35.5,32,39.2
		V392c-17.6,0-32,14.4-32,32s14.4,32,32,32h16v40c0,4.4,3.6,8,8,8h48c4.4,0,8-3.6,8-8v-40h272v40c0,4.4,3.6,8,8,8h48
		c4.4,0,8-3.6,8-8v-40h16c17.6,0,32-14.4,32-32S489.6,392,472,392z M488,312c0,13.2-10.8,24-24,24c-4.4,0-8,3.6-8,8v48h-48v-24v-24
		c0-30.9,25.1-56,56-56C477.2,288,488,298.8,488,312z M120,368c0-4.4,3.6-8,8-8h112c4.4,0,8,3.6,8,8v24H120V368z M264,368
		c0-4.4,3.6-8,8-8h112c4.4,0,8,3.6,8,8v24H264V368z M80,256c0-22.1,17.9-40,40-40h272c22.1,0,40,17.9,40,40v23.6
		c-23.7,11.8-40,36.2-40,64.4v1.5c-2.5-0.9-5.2-1.5-8-1.5H272c-6.2,0-11.7,2.4-16,6.2c-4.3-3.8-9.8-6.2-16-6.2H128
		c-2.8,0-5.5,0.6-8,1.5V344c0-28.2-16.3-52.6-40-64.4V256z M48,336c-13.2,0-24-10.8-24-24s10.8-24,24-24c30.9,0,56,25.1,56,56v24v24
		H56v-48C56,339.6,52.4,336,48,336z M104,488H72v-32h32V488z M440,488h-32v-32h32V488z M472,440H40c-8.8,0-16-7.2-16-16
		s7.2-16,16-16h432c8.8,0,16,7.2,16,16S480.8,440,472,440z"/>
	<path class="st0" d="M248,272h16v-8h8v-16h-8v-8h-16v8h-8v16h8V272z"/>
	<path class="st0" d="M152,272h16v-8h8v-16h-8v-8h-16v8h-8v16h8V272z"/>
	<path class="st0" d="M200,320h16v-8h8v-16h-8v-8h-16v8h-8v16h8V320z"/>
	<path class="st0" d="M296,320h16v-8h8v-16h-8v-8h-16v8h-8v16h8V320z"/>
	<path class="st0" d="M344,272h16v-8h8v-16h-8v-8h-16v8h-8v16h8V272z"/>
	<path class="st0" d="M152,40.8c-18.2,3.7-32,19.9-32,39.2c0,4.4,3.6,8,8,8h8v8c0,13.2,10.8,24,24,24s24-10.8,24-24v-8h8
		c4.4,0,8-3.6,8-8c0-19.3-13.8-35.5-32-39.2V24h80v48.8c-18.2,3.7-32,19.9-32,39.2c0,4.4,3.6,8,8,8h8v8c0,13.2,10.8,24,24,24
		s24-10.8,24-24v-8h8c4.4,0,8-3.6,8-8c0-19.3-13.8-35.5-32-39.2V24h80v16.8c-18.2,3.7-32,19.9-32,39.2c0,4.4,3.6,8,8,8h8v8
		c0,13.2,10.8,24,24,24s24-10.8,24-24v-8h8c4.4,0,8-3.6,8-8c0-19.3-13.8-35.5-32-39.2V24h40V8H112v16h40V40.8z M168,96
		c0,4.4-3.6,8-8,8s-8-3.6-8-8v-8h16V96z M182.6,72h-45.3c3.3-9.3,12.2-16,22.6-16S179.3,62.7,182.6,72L182.6,72z M264,128
		c0,4.4-3.6,8-8,8s-8-3.6-8-8v-8h16V128z M278.6,104h-45.3c3.3-9.3,12.2-16,22.6-16C266.4,88,275.3,94.7,278.6,104z M360,96
		c0,4.4-3.6,8-8,8s-8-3.6-8-8v-8h16V96z M374.6,72h-45.3c3.3-9.3,12.2-16,22.6-16S371.3,62.7,374.6,72L374.6,72z"/>
</g>
</svg>
