<?xml version="1.0" encoding="utf-8"?>
<!-- Generator: Adobe Illustrator 21.0.0, SVG Export Plug-In . SVG Version: 6.00 Build 0)  -->
<svg version="1.1" id="圖層_1" xmlns="http://www.w3.org/2000/svg" xmlns:xlink="http://www.w3.org/1999/xlink" x="0px" y="0px"
	 viewBox="0 0 512 512" style="enable-background:new 0 0 512 512;" xml:space="preserve">
<style type="text/css">
	.st0{fill:#FFFFFF;}
</style>
<g id="Outline">
	<path class="st0" d="M432,452c0,6.6-5.4,12-12,12s-12-5.4-12-12s5.4-12,12-12C426.6,440,432,445.4,432,452z M501.7,117.7
		L395.1,224.2c12,1.5,20.9,11.7,20.9,23.8v60.7l85.7,85.7l-11.3,11.3L456,371.3L371.3,456l34.3,34.3l-11.3,11.3l-96-96l11.3-11.3
		l18.3,18.3l84.7-84.7l-10.3-10.3c-1.5-1.5-2.3-3.5-2.3-5.7v-64c0-4.4-3.6-8-8-8s-8,3.6-8,8v32c0,4.4-3.6,8-8,8
		c-2.1,0-4.2-0.8-5.7-2.3L352,267.3l-30.3,30.3c-4.4,4.5-10.4,7.1-16.7,7.3c-0.2,6.3-2.8,12.3-7.3,16.7L251.3,368H264
		c13.3,0,24,10.7,24,24s-10.7,24-24,24h-60.7l-85.7,85.7l-11.3-11.3l34.3-34.3L56,371.3l-34.3,34.3l-11.3-11.3l106.5-106.5
		c-12-1.5-20.9-11.7-20.9-23.8v-60.7l-85.7-85.7l11.3-11.3L56,140.7l18.3-18.3l11.3,11.3L67.3,152L88,172.7L172.7,88L152,67.3
		l-54.3,54.3l-11.3-11.3L140.7,56l-34.3-34.3l11.3-11.3l106.5,106.5c1.5-12,11.7-20.9,23.8-20.9h60.7l85.7-85.7l11.3,11.3L371.3,56
		l84.7,84.7l34.3-34.3L501.7,117.7z M339.3,424l20.7,20.7l84.7-84.7L424,339.3L339.3,424z M120,272c4.4,0,8-3.6,8-8v-32
		c0-4.4,3.6-8,8-8c2.1,0,4.2,0.8,5.7,2.3l18.3,18.3l30.3-30.3c4.9-4.9,11.7-7.6,18.6-7.3l4.7-4.7l36,36c3.5,3.5,9.2,3.5,12.7,0
		s3.5-9.2,0-12.7l0,0l0,0l-36-36l11.3-11.3l36,36c3.5,3.5,9.2,3.5,12.7,0l0,0c3.5-3.5,3.5-9.2,0-12.7L184,99.3L99.3,184l10.3,10.3
		c1.5,1.5,2.3,3.5,2.3,5.7v64C112,268.4,115.5,272,120,272C120,272,120,272,120,272z M144,251.3v9.4l4.7-4.7L144,251.3z M172.7,424
		L88,339.3L67.3,360l84.7,84.7L172.7,424z M289,304c0-5-4-9-9-9c-2.4,0-4.7,0.9-6.3,2.6l-36,36c-3.1,3.1-8.2,3.1-11.3,0
		s-3.1-8.2,0-11.3l36-36c3.5-3.5,3.5-9.2,0-12.7s-9.2-3.5-12.7,0l-36,36c-3.1,3.1-8.2,3.1-11.3,0s-3.1-8.2,0-11.3l36-36
		c3.5-3.5,3.5-9.2,0-12.7s-9.2-3.5-12.7,0l-36,36c-3.1,3.1-8.2,3.1-11.3,0s-3.1-8.2,0-11.3l36-36c3.5-3.5,3.5-9.2,0-12.7
		s-9.2-3.5-12.7,0L99.3,328l84.7,84.7l10.3-10.3c1.5-1.5,3.5-2.3,5.7-2.3h64c4.4,0,8-3.6,8-8s-3.6-8-8-8h-32c-4.4,0-8-3.6-8-8
		c0-2.1,0.8-4.2,2.3-5.7l60-60C288,308.7,289,306.4,289,304z M368,251.3l-4.7,4.7l4.7,4.7V251.3z M412.7,184L328,99.3l-10.3,10.3
		c-1.5,1.5-3.5,2.3-5.7,2.3h-64c-4.4,0-8,3.6-8,8s3.6,8,8,8h32c4.4,0,8,3.6,8,8c0,2.1-0.8,4.2-2.3,5.7l-8,8L272,144h-20.7l46.3,46.3
		c4.7,4.7,7.3,11,7.3,17.7c0,0.3,0,0.6,0,0.9l4.7,4.7l-36,36c-3.5,3.5-3.5,9.2,0,12.7l0,0l0,0c3.5,3.5,9.2,3.5,12.7,0l0,0l36-36
		l11.3,11.3l-36,36c-3.5,3.5-3.5,9.2,0,12.7l0,0l0,0c3.5,3.5,9.2,3.5,12.7,0L412.7,184z M444.7,152L360,67.3L339.3,88l84.7,84.7
		L444.7,152z M440,92c0,6.6,5.4,12,12,12s12-5.4,12-12s-5.4-12-12-12C445.4,80,440,85.4,440,92z M80,60c0,6.6,5.4,12,12,12
		s12-5.4,12-12s-5.4-12-12-12C85.4,48,80,53.4,80,60z M60,408c-6.6,0-12,5.4-12,12s5.4,12,12,12s12-5.4,12-12
		C72,413.4,66.6,408,60,408z M264,16h-16v16h16V16z M248,80h16V48h-16V80z M207.1,81.8l15.6-3.6l-14.9-64l-15.6,3.6L207.1,81.8z
		 M304.9,81.8l14.9-64l-15.6-3.6l-14.9,64L304.9,81.8z M248,496h16v-16h-16V496z M264,432h-16v32h16V432z M319.8,494.2l-14.9-64
		l-15.6,3.6l14.9,64L319.8,494.2z M207.1,430.2l-14.9,64l15.6,3.6l14.9-64L207.1,430.2z M32,264v-16H16v16H32z M48,264h32v-16H48
		V264z M17.8,319.8l64-14.9l-3.6-15.6l-64,14.9L17.8,319.8z M17.8,192.2l-3.6,15.6l64,14.9l3.6-15.6L17.8,192.2z M480,248v16h16v-16
		H480z M464,248h-32v16h32V248z M494.2,192.2l-64,14.9l3.6,15.6l64-14.9L494.2,192.2z M494.2,319.8l3.6-15.6l-64-14.9l-3.6,15.6
		L494.2,319.8z"/>
</g>
</svg>
