<?xml version="1.0" encoding="utf-8"?>
<!-- Generator: Adobe Illustrator 21.0.0, SVG Export Plug-In . SVG Version: 6.00 Build 0)  -->
<svg version="1.1" id="layer_1" xmlns="http://www.w3.org/2000/svg" xmlns:xlink="http://www.w3.org/1999/xlink" x="0px" y="0px"
	 viewBox="0 0 25.5 25.5" style="enable-background:new 0 0 25.5 25.5;" xml:space="preserve">
<style type="text/css">
	.st0{fill:#C9B37D;}
</style>
<g>
	<path class="st0" d="M7.6,19l-0.3,1.4c-0.3,1.1-0.9,1.7-1.6,1.7c-0.7,0-1.3-0.7-1.6-1.7l-0.8-3.9c-0.1-0.4-0.4-0.6-0.8-0.6
		c-0.8,0-0.8,0-0.8-1.5c0.2-2.9,0.9-4,2-4.9C3.9,9.4,4,9.4,4,9.3c0,0,0,0,0.1-0.1c0.2,0.1,0.3,0.1,0.5,0.2l0.7,1l-1,2.6l1.6,2.1
		L7.3,13l-1-2.6l0.7-1c0.2-0.1,0.3-0.1,0.5-0.2c0,0,0,0,0.1,0.1c0,0.1,0.1,0.1,0.1,0.1c0.9,0.7,1.5,1.5,1.8,3.3l1.6,0
		c-0.4-2.1-1.1-3.4-2.4-4.4c0.6-0.7,1-1.6,1-2.6c0-2.2-1.7-3.9-3.9-3.9c-2.2,0-3.9,1.7-3.9,3.9c0,1,0.4,1.9,1,2.6
		c-1.6,1.3-2.3,3-2.5,6c0,1.3,0,2.8,1.7,3.1l0.7,3.4c0.4,1.8,1.7,2.9,3.1,2.9h0c1.4,0,2.6-1.1,3.1-3L9.2,19L7.6,19z M5.7,3.4
		c1.3,0,2.3,1,2.3,2.3S7,8.1,5.7,8.1c-1.3,0-2.3-1-2.3-2.3S4.5,3.4,5.7,3.4z"/>
	<path class="st0" d="M16.3,19l0.3,1.7c0.4,1.8,1.7,2.9,3.1,2.9h0c1.4,0,2.6-1.1,3.1-3l0.7-3.3c1.7-0.3,1.7-1.8,1.7-3.1
		c-0.2-3-1-4.6-2.5-5.9c0.6-0.7,1-1.6,1-2.6c0-2.2-1.7-3.9-3.9-3.9c-2.2,0-3.9,1.7-3.9,3.9c0,1,0.4,1.9,1,2.6
		c-1.3,1.1-2,2.4-2.4,4.4l1.6,0c0.3-1.8,1-2.6,1.8-3.3C18,9.4,18,9.4,18,9.3c0,0,0,0,0.1-0.1c0.2,0.1,0.3,0.1,0.5,0.2l0.7,1l-1,2.6
		l1.6,2.1l1.6-2.1l-1-2.6l0.7-1c0.2-0.1,0.3-0.1,0.5-0.2c0,0,0,0,0.1,0.1c0,0.1,0.1,0.1,0.1,0.1c1.1,0.9,1.8,2,2,4.8
		c0,1.6,0,1.6-0.8,1.6c-0.4,0-0.7,0.3-0.8,0.6l-0.8,3.9c-0.3,1.1-0.9,1.7-1.6,1.7c-0.7,0-1.3-0.7-1.6-1.7L17.9,19L16.3,19z
		 M19.8,8.1c-1.3,0-2.3-1-2.3-2.3s1-2.3,2.3-2.3c1.3,0,2.3,1,2.3,2.3S21.1,8.1,19.8,8.1z"/>
	<path class="st0" d="M18,16.4C18,16.4,18,16.4,18,16.4c0.1-0.2,0.2-0.3,0.2-0.5c0,0,0,0,0,0c0-0.1,0-0.1,0-0.1v0l0,0
		c0-0.2-0.1-0.4-0.2-0.5v0c0,0,0,0,0,0l0,0c0,0,0,0,0,0c0,0,0,0,0,0l-1.6-1.6c-0.3-0.3-0.8-0.3-1.1,0c-0.3,0.3-0.3,0.8,0,1.1
		l0.2,0.2h-2.8H10l0.2-0.2c0.3-0.3,0.3-0.8,0-1.1c-0.3-0.3-0.8-0.3-1.1,0l-1.6,1.6c0,0,0,0,0,0c0,0,0,0,0,0l0,0c0,0,0,0,0,0v0
		c-0.1,0.1-0.2,0.3-0.2,0.5l0,0v0c0,0,0,0.1,0,0.1c0,0,0,0,0,0c0,0.1,0.1,0.3,0.2,0.4c0,0,0,0,0,0L9.1,18c0.2,0.2,0.4,0.2,0.6,0.2
		c0.2,0,0.4-0.1,0.6-0.2c0.3-0.3,0.3-0.8,0-1.1L10,16.6h2.8h2.8l-0.2,0.2c-0.3,0.3-0.3,0.8,0,1.1c0.2,0.2,0.4,0.2,0.6,0.2
		c0.2,0,0.4-0.1,0.6-0.2L18,16.4z"/>
</g>
</svg>
