<?xml version="1.0" encoding="utf-8"?>
<!-- Generator: Adobe Illustrator 21.0.0, SVG Export Plug-In . SVG Version: 6.00 Build 0)  -->
<svg version="1.1" id="layer_1" xmlns="http://www.w3.org/2000/svg" xmlns:xlink="http://www.w3.org/1999/xlink" x="0px" y="0px"
	 viewBox="0 0 25.5 25.5" style="enable-background:new 0 0 25.5 25.5;" xml:space="preserve">
<style type="text/css">
	.st0{fill:#C9B37D;stroke:#C9B37D;stroke-width:0.75;stroke-miterlimit:10;}
</style>
<g>
	<path class="st0" d="M15.4,18.5c-0.6,0.8-1.5,1.2-2.5,1.2c-1,0-1.9-0.5-2.5-1.2c-0.1-0.2-0.4-0.2-0.5-0.1c-0.2,0.1-0.2,0.4-0.1,0.5
		c0.8,1,1.9,1.5,3.1,1.5c1.2,0,2.4-0.6,3.1-1.5c0.1-0.2,0.1-0.4-0.1-0.5C15.7,18.3,15.5,18.3,15.4,18.5z"/>
	<path class="st0" d="M23.9,14.4c0-1.2-0.9-2.1-2.1-2.2c-0.8-3.4-3.5-6-6.9-6.8c0.3-0.7,0.4-1.5,0.3-2.3c-0.3-1.4-1.8-2.3-3.2-2
		c-0.5,0.1-1,0.5-1.3,0.9c-0.3,0.5-0.4,1-0.3,1.6c0.1,0.4,0.4,0.8,0.7,1c0.4,0.2,0.8,0.3,1.2,0.2c0.3-0.1,0.6-0.3,0.8-0.6
		c0.2-0.3,0.2-0.7,0.2-1c-0.1-0.6-0.7-0.9-1.3-0.8c-0.2,0-0.3,0.2-0.3,0.4c0,0.2,0.2,0.3,0.4,0.3c0.2,0,0.4,0.1,0.4,0.2
		c0.1,0.3-0.1,0.6-0.4,0.7c-0.2,0.1-0.5,0-0.7-0.1c-0.2-0.1-0.3-0.3-0.4-0.6c-0.1-0.4,0-0.7,0.2-1c0.2-0.3,0.5-0.5,0.8-0.6
		c0.5-0.1,1,0,1.5,0.2c0.4,0.3,0.8,0.7,0.9,1.2c0.2,0.7,0,1.4-0.3,2c-0.4-0.1-0.9-0.1-1.3-0.1c-4.3,0-8,3-9,7
		c-1.2,0.1-2.1,1-2.1,2.2c0,1.2,0.9,2.1,2.1,2.2c1,4,4.6,7,9,7c4.3,0,8-3,9-7C22.9,16.5,23.9,15.6,23.9,14.4z M2.5,14.4
		c0-0.7,0.5-1.3,1.2-1.4c-0.1,0.5-0.1,0.9-0.1,1.4c0,0.5,0,1,0.1,1.4C3,15.7,2.5,15.1,2.5,14.4z M12.8,22.9c-4.7,0-8.5-3.8-8.5-8.5
		c0-4.7,3.8-8.5,8.5-8.5c0.3,0,0.5,0,0.7,0c-0.3,0.3-0.7,0.5-1.2,0.6c-0.2,0-0.3,0.2-0.3,0.4c0,0.2,0.2,0.3,0.4,0.3c0,0,0.1,0,0.1,0
		c0.8-0.2,1.4-0.6,1.9-1.2c3.9,0.8,6.8,4.2,6.8,8.3C21.3,19.1,17.5,22.9,12.8,22.9z M21.9,15.8c0.1-0.5,0.1-0.9,0.1-1.4
		c0-0.5,0-1-0.1-1.4c0.7,0.1,1.2,0.7,1.2,1.4C23.1,15.1,22.6,15.7,21.9,15.8z"/>
	<path class="st0" d="M18.2,14.1c-0.2-0.1-0.4,0-0.5,0.2c-0.2,0.6-0.8,0.9-1.4,0.9c-0.6,0-1.1-0.4-1.3-0.9c-0.1-0.2-0.3-0.3-0.5-0.2
		c-0.2,0.1-0.3,0.3-0.2,0.5c0.3,0.9,1.1,1.4,2,1.4c0.9,0,1.7-0.6,2-1.4C18.5,14.4,18.4,14.1,18.2,14.1z"/>
	<path class="st0" d="M11.3,14.5c0.1-0.2,0-0.4-0.2-0.5c-0.2-0.1-0.4,0-0.5,0.2c-0.2,0.6-0.7,0.9-1.3,0.9c-0.6,0-1.1-0.4-1.4-0.9
		c-0.1-0.2-0.3-0.3-0.5-0.2c-0.2,0.1-0.3,0.3-0.2,0.5c0.3,0.8,1.1,1.4,2,1.4C10.1,16,10.9,15.4,11.3,14.5z"/>
</g>
</svg>
