<?xml version="1.0" encoding="utf-8"?>
<!-- Generator: Adobe Illustrator 21.0.0, SVG Export Plug-In . SVG Version: 6.00 Build 0)  -->
<svg version="1.1" id="layer_1" xmlns="http://www.w3.org/2000/svg" xmlns:xlink="http://www.w3.org/1999/xlink" x="0px" y="0px"
	 viewBox="0 0 25.5 25.5" style="enable-background:new 0 0 25.5 25.5;" xml:space="preserve">
<style type="text/css">
	.st0{fill:#C9B37D;}
</style>
<path class="st0" d="M23.1,8.2c0.8-0.7,1.4-1.8,1.4-3c0-2.2-1.7-3.9-3.9-3.9c-2.2,0-3.9,1.7-3.9,3.9c0,1,0.4,1.9,1,2.6l-4.9,2.8
	L7.9,7.8c0.6-0.7,1-1.6,1-2.6c0-2.2-1.7-3.9-3.9-3.9S1.1,3.1,1.1,5.3c0,1.2,0.5,2.2,1.4,3c-1,1.1-1.1,2.5-1.3,4.8l-0.1,0.8
	c0,1.3,0,2.6,0.9,3l0.7,4.9c0.1,3.2,5.4,3.2,5.5,0l0.7-4.9c0.6-0.3,0.8-1.1,0.8-2l2.8,1.3c0.1,0,0.2,0.1,0.3,0.1
	c0.1,0,0.2,0,0.3-0.1l2.8-1.3c0,0.9,0.2,1.7,0.8,2l0.7,4.9c0,0.8,0.3,1.4,0.9,1.9c0.5,0.4,1.1,0.6,1.8,0.6c1.3,0,2.7-0.8,2.7-2.5
	l0.7-4.9c0.9-0.4,0.9-1.7,0.9-3l-0.1-0.7C24.2,10.7,24.1,9.3,23.1,8.2z M22.9,5.3c0,1.3-1,2.3-2.3,2.3c-1.3,0-2.3-1-2.3-2.3
	c0-1.3,1-2.3,2.3-2.3C21.8,2.9,22.9,4,22.9,5.3z M5,2.9c1.3,0,2.3,1,2.3,2.3c0,1.3-1,2.3-2.3,2.3c-1.3,0-2.3-1-2.3-2.3
	C2.6,4,3.7,2.9,5,2.9z M22.8,15.4c-0.4,0-0.6,0.3-0.7,0.7l-0.8,5.5c0,0,0,0.1,0,0.1c0,0.9-1,1-1.2,1c-0.1,0-1.2,0-1.2-1
	c0,0,0-0.1,0-0.1l-0.8-5.5c0-0.4-0.4-0.6-0.7-0.7c-0.1-0.2-0.1-0.8-0.1-1.3l3.9-1.8v-1.6l-8.6,3.8l-8.6-3.8v1.6l3.9,1.8
	c0,0.5,0,1-0.1,1.3c-0.4,0-0.6,0.3-0.7,0.7l-0.8,5.5c0,0,0,0.1,0,0.1c0,0.9-1,1-1.2,1c-0.1,0-1.2,0-1.2-1c0,0,0-0.1,0-0.1l-0.8-5.5
	c0-0.4-0.4-0.6-0.7-0.7c-0.1-0.3-0.1-0.9-0.1-1.5l0.1-0.7C2.9,10.5,3,9.7,3.9,9C4.2,9.1,4.6,9.2,5,9.2c0.6,0,1.2-0.1,1.7-0.4
	c0,0,0,0,0.1,0.1C6.7,8.9,6.8,9,6.9,9.1l5.5,3.1c0.2,0.1,0.5,0.1,0.8,0l5.5-3.1c0.1-0.1,0.2-0.1,0.2-0.2c0,0,0,0,0.1-0.1
	C19.4,9,20,9.2,20.5,9.2c0.4,0,0.7-0.1,1.1-0.2c0.9,0.7,1,1.5,1.2,4.2l0.1,0.6C22.9,14.4,22.9,15.1,22.8,15.4z"/>
</svg>
